<svg width="40" height="40" viewBox="0 0 40 40" fill="none" xmlns="http://www.w3.org/2000/svg">
<path d="M29.4282 8.84003C24.2216 3.71836 15.7799 3.71836 10.5732 8.84003C9.33705 10.0478 8.35476 11.4904 7.6841 13.0832C7.01345 14.676 6.66797 16.3868 6.66797 18.115C6.66797 19.8433 7.01345 21.5541 7.6841 23.1468C8.35476 24.7396 9.33705 26.1823 10.5732 27.39L19.9999 36.665L29.4282 27.39C30.6644 26.1823 31.6467 24.7396 32.3174 23.1468C32.988 21.5541 33.3335 19.8433 33.3335 18.115C33.3335 16.3868 32.988 14.676 32.3174 13.0832C31.6467 11.4904 30.6644 10.0478 29.4282 8.84003ZM19.9999 22.4984C18.8866 22.4984 17.8416 22.065 17.0532 21.2784C16.2728 20.4963 15.8345 19.4365 15.8345 18.3317C15.8345 17.2268 16.2728 16.1671 17.0532 15.385C17.8399 14.5984 18.8866 14.165 19.9999 14.165C21.1132 14.165 22.1599 14.5984 22.9466 15.385C23.727 16.1671 24.1653 17.2268 24.1653 18.3317C24.1653 19.4365 23.727 20.4963 22.9466 21.2784C22.1599 22.065 21.1132 22.4984 19.9999 22.4984Z" fill="#333333"/>
</svg>
