<svg width="51" height="60" viewBox="0 0 51 60" fill="none" xmlns="http://www.w3.org/2000/svg">
<g clip-path="url(#clip0_24_1580)">
<path d="M15.3082 35.322L21.8654 59.9096L0.184326 35.322H15.3082Z" fill="#006633"/>
<path d="M15.4329 31.809H0.184326L10.2073 21.786C10.5378 21.4565 10.9838 21.272 11.4495 21.272H21.4543L15.4324 31.8095L15.4329 31.809Z" fill="#006633"/>
<path d="M32.5364 31.809H17.7218L25.4999 21.272L32.5364 31.809Z" fill="#006633"/>
<path d="M32.0567 35.4121L25.4999 60.0002L18.9432 35.4121H32.0567Z" fill="#006633"/>
<path d="M35.5666 31.809L29.5453 21.2715H39.5501C40.0158 21.2715 40.4622 21.456 40.7917 21.7855L50.8152 31.8085H35.5661L35.5666 31.809Z" fill="#006633"/>
<path d="M35.6919 35.4121H50.8157L29.1346 60.0002L35.6919 35.4121Z" fill="#006633"/>
<path d="M25.5 10.0141C24.5302 10.0141 23.7438 9.22822 23.7438 8.25836V1.75622C23.7438 0.786358 24.5302 0.000488281 25.5 0.000488281C26.4699 0.000488281 27.2558 0.786358 27.2558 1.75622V8.25836C27.2558 9.22822 26.4699 10.0141 25.5 10.0141Z" fill="#006633"/>
<path d="M8.04188 13.6411L4.79081 8.01004C4.30588 7.17063 4.59331 6.09578 5.43375 5.61137C6.27315 5.12644 7.34801 5.41386 7.83242 6.25431L11.0835 11.8848C11.5684 12.7247 11.281 13.7991 10.4405 14.2835C9.60426 14.7669 8.52889 14.4846 8.04188 13.6411Z" fill="#006633"/>
<path d="M40.5594 14.2834C39.7194 13.7985 39.4315 12.7241 39.9164 11.8842L43.1675 6.2537C43.6524 5.41378 44.7262 5.12584 45.5662 5.61077C46.4061 6.0957 46.694 7.17003 46.2091 8.00944L42.958 13.6405C42.4715 14.483 41.3962 14.7668 40.5594 14.2834Z" fill="#006633"/>
</g>
<defs>
<clipPath id="clip0_24_1580">
<rect width="50.6317" height="60" fill="white" transform="translate(0.184082)"/>
</clipPath>
</defs>
</svg>
