<svg width="148" height="180" viewBox="0 0 148 180" fill="none" xmlns="http://www.w3.org/2000/svg">
<g clip-path="url(#clip0_190_1125)">
<path fill-rule="evenodd" clip-rule="evenodd" d="M48.7194 119.054C49.3252 118.111 49.9047 117.067 50.5547 116.157L51.7121 114.356C51.77 114.276 51.7024 114.39 51.8189 114.209L52.2053 113.581C52.2607 113.489 52.2428 113.509 52.2984 113.421L56.1192 107.438C56.1687 107.353 56.1435 107.386 56.2154 107.281L57.9434 104.529C58.0405 104.362 58.0638 104.376 58.1586 104.237L61.0467 99.6877C61.1182 99.5671 61.361 99.1684 61.5421 99.1684C61.817 99.1684 62.6995 99.5514 62.9653 99.6919C63.827 100.147 64.7972 100.437 65.7313 100.65C66.1712 100.751 66.0005 100.804 66.4076 100.905L67.9015 101.274C68.2956 101.305 68.4109 101.299 68.748 101.359C69.0921 101.42 69.1598 101.474 69.4862 101.552L73.7447 101.953L77.9736 101.523C78.301 101.416 78.2893 101.406 78.7281 101.346L80.2669 101.022C80.5208 100.951 80.8178 100.947 81.0435 100.867C81.3526 100.757 81.3051 100.683 81.719 100.611C82.1048 100.545 82.1398 100.56 82.4578 100.419C82.7878 100.273 82.8363 100.319 83.1829 100.213L85.1165 99.3537C86.085 98.8271 86.2962 99.6372 86.7242 100.335L88.6958 103.435C89.3281 104.323 89.8246 105.275 90.4264 106.184L92.2745 109.068C92.4023 109.242 92.3628 109.22 92.4658 109.384L93.7275 111.334C93.8128 111.496 93.7932 111.508 93.8997 111.669L94.9232 113.265C95.3155 113.888 95.8461 114.563 96.1837 115.217L96.9922 116.521C97.1013 116.718 97.0898 116.675 97.1908 116.83L98.6348 119.104C98.793 119.384 98.8257 119.501 98.9972 119.756C98.803 119.849 98.7974 119.822 98.5994 119.95C98.0135 120.332 97.2763 120.653 96.6404 120.953C96.4342 121.05 96.0755 121.216 95.8536 121.351L90.7715 123.969C90.6131 124.051 90.5179 124.067 90.3595 124.149L84.4899 127.164C84.3243 127.249 84.2419 127.265 84.0865 127.353C83.907 127.455 83.9492 127.459 83.7075 127.567L75.0119 131.986C74.3588 132.372 73.8024 132.734 73.0809 132.314C72.2326 131.82 71.3512 131.492 70.4857 131.016L64.9809 128.229C64.8657 128.174 64.8741 128.165 64.8228 128.133L53.0449 122.141C52.7863 121.971 52.5602 121.893 52.2689 121.733L48.3226 119.756L48.7194 119.054V119.054ZM40.8655 52.762C40.8655 52.0718 40.8807 51.1608 40.9803 50.5139C41.0573 50.015 41.2162 49.8308 41.5318 49.5443L45.6258 46.1957C45.6452 46.1804 45.704 46.1393 45.7237 46.1244L45.9576 45.9354C45.9711 45.9243 45.9892 45.9069 46.0028 45.8959C46.0164 45.8849 46.0353 45.8685 46.0492 45.8578L50.622 42.564C50.7749 42.4398 50.7873 42.4042 50.9523 42.3022C51.0901 42.2171 51.1734 42.1956 51.335 42.0928C51.4648 42.0103 51.4299 42.0219 51.5359 41.9554L51.9053 41.7325C52.0211 41.6566 51.9352 41.7088 52.0573 41.6307L53.5039 40.7086C54.4294 40.0763 55.7553 39.2086 56.7594 38.7189L58.612 37.6947C58.7736 37.6137 58.6911 37.6697 58.8377 37.582L65.3131 34.4108C65.4812 34.3314 65.522 34.2824 65.7053 34.2106C65.8687 34.1467 65.9813 34.1287 66.1409 34.0538L70.3215 32.3944C70.6034 32.3227 70.548 32.3446 70.7598 32.2404L75.1001 30.8244C75.7313 30.564 78.1944 30.0376 78.9395 29.9223C79.4459 29.8439 79.5367 29.7471 79.8693 29.6667C80.2351 29.5784 80.5259 29.6006 80.8949 29.5067C81.2596 29.4138 81.3864 29.3267 81.8296 29.256C82.2185 29.1939 82.4115 29.1852 82.7759 29.1014C83.4502 28.9463 84.2044 28.9507 84.9082 28.8619C85.5403 28.7823 86.1776 28.5634 86.8764 28.5437C88.0598 28.5101 89.1734 28.5235 90.305 28.413C90.5784 28.3862 90.8748 28.4621 91.2857 28.4621C91.383 28.6451 91.4861 28.7647 91.5639 28.9446L91.9172 29.9428C92.0081 30.1553 91.9942 30.2508 92.0653 30.4702C92.266 31.0889 92.8731 32.2257 93.1192 32.9646L94.8687 37.0445C94.9473 37.2258 94.8571 37.0506 94.9912 37.26C95.3129 37.7627 95.7338 38.9542 96.0907 39.5403L96.5644 40.503C96.6664 40.7361 96.655 40.7536 96.7776 40.9657L103.239 52.3354C103.382 52.5962 103.328 52.5106 103.507 52.7433C103.62 52.8894 103.567 52.8191 103.644 52.9447L105.411 55.6572C107.075 58.2746 106.335 56.5406 106.118 59.3461C106.07 59.9687 105.875 60.4531 105.755 61.0942C105.687 61.4598 105.559 61.4681 105.471 61.9079L104.437 65.0977C104.315 65.4675 104.357 65.5101 104.185 65.8591L104.027 66.2925C103.869 66.7955 103.552 67.228 103.359 67.7362L102.713 69.2022C102.639 69.3442 102.619 69.4368 102.565 69.5615C102.258 70.2676 101.806 70.9144 101.477 71.5998C101.186 72.2053 100.785 72.7159 100.487 73.3139C100.057 74.1754 97.195 78.2615 96.6117 78.9055L95.8729 79.7731C95.7166 79.9678 95.5824 80.1645 95.4289 80.3435L93.3942 82.5361C93.3823 82.5489 93.3648 82.5668 93.353 82.5795L92.3623 83.618C92.2837 83.6896 92.2638 83.7059 92.1847 83.7787L91.26 84.63C91.1934 84.6904 91.1449 84.7318 91.0836 84.7917L90.6913 85.1604C90.5616 85.2857 90.5958 85.2749 90.4374 85.414C89.7575 86.0103 88.5146 87.0391 87.7848 87.4978L84.8737 89.4087L79.4112 91.8164C79.0549 91.9282 79.0147 92.0301 78.5706 92.0763C78.1454 92.1207 78.0594 92.1208 77.7281 92.25C76.6116 92.6855 73.6963 92.7557 72.3889 92.7557C71.5322 92.7557 71.1018 92.5597 70.3582 92.4997C69.7176 92.4479 69.087 92.3753 68.4737 92.1823C68.1208 92.0713 67.7635 92.0951 67.452 92.0184L65.318 91.3587C64.8888 91.2465 64.9958 91.1601 64.558 91.0187L63.371 90.5131C62.64 90.1205 62.0226 90.0127 61.0918 89.4075C61.0765 89.3975 61.056 89.3837 61.0406 89.374C61.0251 89.3642 61.0035 89.3518 60.9878 89.3422L58.9634 88.0673L52.4393 82.16C51.8851 81.5536 51.3158 80.8671 50.8696 80.1794C50.7726 80.03 50.7935 80.0291 50.6706 79.8712C50.2552 79.3373 49.7476 78.8231 49.4413 78.2265C49.355 78.0584 49.3741 78.0526 49.2682 77.8927C48.2781 76.3983 47.3747 74.9081 46.5806 73.3125L45.4655 71.0476C45.4031 70.8869 45.356 70.8439 45.2898 70.7165C45.0203 70.1971 44.9122 69.6758 44.6433 69.1663L44.1197 68.0002C44.0617 67.8059 44.0671 67.7535 44.0104 67.6029L43.712 66.7187C43.596 66.2791 43.5149 66.4328 43.3993 65.9332L42.8436 64.2927C42.6663 63.8889 42.7257 63.7611 42.605 63.3491L41.6492 59.829C41.5909 59.4118 41.6181 59.2441 41.5242 58.8567C41.4529 58.5627 41.323 58.3444 41.2938 57.9892C41.2243 57.1423 40.9462 55.5518 40.9507 55.0401C40.955 54.5445 40.887 54.4242 40.8655 54.028L40.8659 52.762H40.8655ZM11.8845 180H134.842L136.541 179.666C136.962 179.591 136.932 179.508 137.296 179.405C138.232 179.144 138.33 179.219 139.255 178.74C139.413 178.658 139.508 178.642 139.667 178.559L140.663 178.033C140.797 177.962 140.94 177.91 141.054 177.832C141.16 177.759 141.069 177.815 141.195 177.719L143.381 175.93C143.779 175.53 144.789 174.42 145.034 173.947L145.616 172.924C145.736 172.744 145.932 172.408 146.023 172.232C146.121 172.044 146.246 171.75 146.341 171.536L147.127 169.113C147.19 168.417 147.212 167.868 147.337 167.213C147.487 166.434 147.223 164.195 147.124 163.299C147.055 162.672 146.825 162.169 146.791 161.521L146.118 158.057C146.053 157.198 145.836 156.941 145.779 156.285C145.709 155.481 145.489 155.046 145.439 154.514L144.958 151.872C144.864 151.521 144.79 151.429 144.718 151.013C144.654 150.64 144.684 150.463 144.579 150.139L143.995 147.515C143.955 147.109 143.92 147.03 143.801 146.695C143.668 146.321 143.698 146.203 143.621 145.777C143.547 145.361 143.448 145.342 143.356 145.029C143.256 144.689 143.282 144.421 143.17 144.118C142.89 143.365 142.704 142.435 142.518 141.645L142.046 140.006C141.911 139.658 141.934 139.522 141.84 139.114C141.761 138.772 141.631 138.655 141.558 138.382L141.288 137.554C141.166 137.285 141.192 137.051 141.067 136.761C140.996 136.596 140.982 136.646 140.897 136.424C140.84 136.273 140.815 136.096 140.775 135.955C140.68 135.619 140.599 135.59 140.501 135.216L140.222 134.397C140.081 134.084 140.119 133.905 139.997 133.608C139.71 132.912 139.476 131.975 139.18 131.3C139.064 131.033 139.028 130.812 138.903 130.563L137.978 128.278C137.742 127.503 137.079 126.215 136.7 125.5C136.32 124.783 135.933 123.731 135.474 122.924L132.135 117.221L129.083 112.919C128.395 112.217 127.788 111.391 127.126 110.649L121.407 105.206C120.324 104.294 120.086 104.54 120.292 102.991C120.335 102.663 120.331 102.382 120.351 101.953C120.363 101.712 120.42 101.33 120.472 101.061C120.648 100.15 120.66 99.154 120.788 98.1691C120.869 97.5446 121.037 97.0054 121.03 96.301C121.019 95.1109 121.154 93.5824 121.333 92.3833C121.425 91.7656 121.431 89.3535 121.554 88.3844C121.63 87.7787 121.71 87.1494 121.708 86.4285L121.877 80.3535C121.895 80.0262 121.859 79.6676 121.876 79.3402C121.898 78.9462 121.967 78.8219 121.963 78.3296C121.956 77.5882 122.047 77.1016 122.046 76.3032C122.046 75.5994 122.047 74.8957 122.044 74.1919C122.041 73.5195 122.131 72.9481 122.131 72.1688C122.131 69.936 122.239 58.3814 122.108 57.4262C122.024 56.8188 122.059 56.1033 122.05 55.3748C122.042 54.7417 121.921 54.0734 121.824 53.4897C121.673 52.5742 121.719 51.7827 121.502 50.7737C121.367 50.1504 121.431 49.4476 121.348 48.817L121.017 47.0373C120.972 46.6692 120.859 46.4924 120.78 46.1766C120.702 45.866 120.719 45.639 120.657 45.2869C120.595 44.9374 120.493 44.76 120.415 44.4304C120.369 44.2374 120.331 43.7317 120.293 43.5398C120.21 43.1242 120.121 43.095 120.047 42.688C119.847 41.5999 119.748 41.659 119.625 40.9983C119.534 40.5111 119.507 40.6114 119.372 40.2375L118.912 38.587C118.827 38.086 118.745 38.1633 118.636 37.7641C118.556 37.47 118.594 37.2639 118.447 36.9405L116.165 31.1969C116.156 31.179 116.147 31.1563 116.139 31.1378L114.117 26.9918C114.012 26.8021 114.046 26.8259 113.961 26.6416L113.595 25.9934C113.312 25.4536 112.867 24.9285 112.591 24.377C111.997 23.1876 111.15 21.863 110.327 20.8094L109.425 19.5987C109.395 19.5581 109.363 19.5061 109.32 19.4501L109.002 19.0067C108.227 17.8782 107.304 16.7984 106.378 15.7984C106.366 15.7856 106.348 15.7679 106.336 15.7551C106.324 15.7425 106.307 15.7245 106.295 15.7118L103.553 12.7887C101.223 10.6422 100.498 9.97262 97.7992 7.97098L95.2416 6.29885C95.0416 6.1827 95.091 6.18868 94.9426 6.09017C94.7833 5.98459 94.7743 6.00323 94.608 5.91719C94.4163 5.81788 94.4832 5.83144 94.2974 5.72017C94.1162 5.6116 94.0535 5.61489 93.9053 5.51997L90.8102 3.87686C90.0228 3.57356 88.1473 2.5852 87.4956 2.4521C87.0865 2.36844 87.0348 2.30234 86.6723 2.17492C86.3654 2.06714 86.1334 2.08279 85.8681 1.96325C85.1376 1.63403 84.249 1.45287 83.4527 1.16203L79.8956 0.485047C79.1707 0.271682 78.1926 0.460421 77.4479 0.137781L77.2043 0.042863C76.7499 -0.0519549 69.8624 0.0409687 69.8602 0.0414672C69.3947 0.149745 69.9359 0.0371799 69.5262 0.21515C69.287 0.319041 69.3809 0.264703 69.0896 0.286638C68.6896 0.316848 68.5435 0.354436 68.0662 0.364606L65.4404 0.871897C64.9433 1.05037 64.3012 1.07679 63.7451 1.29334C63.4551 1.40611 63.1793 1.38218 62.8508 1.49983C62.475 1.63453 62.5767 1.66185 62.0868 1.75158L59.6832 2.56456C59.4912 2.65659 59.5999 2.64871 59.3497 2.73874L58.5922 2.99707C58.3337 3.14473 58.4594 3.06976 58.1721 3.16936L50.9541 7.03546C50.7942 7.13975 50.8218 7.13775 50.669 7.258C50.0555 7.74126 49.3809 8.09581 48.7533 8.55673L43.1866 13.5608C43.1744 13.5731 43.1558 13.5902 43.1435 13.6023C43.1311 13.6146 43.1123 13.6311 43.1 13.6434L41.0432 15.8986C41.0314 15.9114 41.0138 15.9292 41.0019 15.9419C40.99 15.9546 40.9726 15.9726 40.9608 15.9853C39.6879 17.3599 39.6483 17.5453 38.6202 18.8861C38.5409 18.9894 38.5294 18.9882 38.5015 19.021L36.5705 21.6546C36.0897 22.3837 35.57 23.1147 35.1785 23.8966C34.6489 24.9547 33.5037 26.5342 33.0328 27.5821C32.8851 27.9109 32.8448 27.8722 32.6997 28.2628L30.3629 33.2767C30.2448 33.5143 30.2076 33.7928 30.0743 34.0864L29.2464 36.3838C29.1264 36.7174 29.1636 36.8542 28.9875 37.2229L28.4565 38.8035C28.3693 39.1554 28.2499 39.264 28.1753 39.5361L27.3698 42.9528C27.3133 43.2313 27.1945 43.4661 27.1171 43.7981C27.0599 44.0438 27.0517 44.4065 26.9694 44.6635L26.7171 45.5092C26.6308 46.1915 26.394 46.5722 26.3751 47.278C26.3459 48.368 25.6715 51.6848 25.6142 52.8485C25.5157 54.8399 25.2712 56.827 25.2736 58.8375C25.2764 61.1109 25.1566 72.5614 25.3095 73.5675C25.4895 74.7516 25.2964 76.4666 25.4307 77.6655L25.6127 81.7032C25.6118 83.19 25.6976 84.3988 25.6974 85.8375C25.6973 87.3475 25.934 88.2921 25.9483 89.7221L26.0335 91.7466C26.0343 92.3428 26.1458 93.0766 26.2217 93.6687C26.3687 94.8172 26.2734 96.5041 26.5107 97.5997C26.6644 98.3099 26.6909 98.6866 26.7118 99.5088C26.7284 100.159 26.896 100.73 26.9843 101.347C27.0651 101.911 27.0823 102.68 27.1465 103.296C27.178 103.598 27.2793 103.885 27.1435 104.148C27.0326 104.363 26.7778 104.536 26.5895 104.698C25.6416 105.511 24.644 106.236 23.7232 107.075L17.2289 114.277C16.6878 115.131 15.9617 115.862 15.4724 116.747C15.3859 116.904 15.3785 116.936 15.2864 117.068L12.9106 121.031C12.6356 121.669 11.82 122.937 11.4439 123.789C11.3668 123.964 11.3677 123.916 11.2698 124.122L10.3941 126.034C10.3858 126.052 10.3744 126.073 10.3655 126.09C10.2882 126.237 10.3402 126.101 10.2357 126.299C9.74344 127.229 9.36623 128.296 8.99283 129.28C8.80097 129.786 8.51789 130.249 8.36048 130.76L7.81705 132.328C7.60967 132.74 7.72573 132.679 7.59575 133.12C7.4786 133.517 7.4068 133.34 7.29965 133.838L6.78186 135.432C6.60152 135.791 6.64217 135.796 6.54174 136.205L5.07246 141.07C4.88881 141.538 4.8059 142.182 4.59812 142.707C4.48607 142.991 4.49709 143.28 4.40627 143.613C4.19458 144.39 3.85773 145.246 3.74678 146.078C3.69671 146.454 3.59578 146.635 3.51046 146.94C3.41333 147.287 3.44317 147.44 3.37698 147.82C3.3141 148.179 3.20305 148.349 3.12334 148.664C3.05004 148.954 3.05725 149.288 2.99847 149.552C2.92057 149.9 2.80892 150.07 2.75495 150.407L2.25668 153.032C2.02436 153.933 2.01185 154.444 1.91912 154.805C1.82299 155.18 1.76472 155.207 1.68921 155.673C1.65387 155.892 1.64305 156.3 1.58417 156.581C1.50697 156.949 1.42816 157.055 1.35176 157.447C1.19745 158.238 1.27686 158.151 1.01661 159.222C0.955328 159.475 0.973152 159.801 0.920982 160.14C0.863404 160.514 0.777188 160.707 0.695779 161.012C0.545076 161.578 0.583228 162.2 0.395876 162.823L0.000244141 166.641L0.308158 169.336L1.87957 173.087C2.24977 173.757 2.58682 174.411 3.13666 174.957C3.57074 175.389 3.92622 175.92 4.37472 176.34L5.25491 177.067C5.48011 177.252 5.65545 177.35 5.89296 177.529C6.60903 178.067 7.4062 178.386 8.20617 178.854C8.51309 179.033 8.99093 179.262 9.35341 179.315L11.6952 179.936C11.7157 179.942 11.742 179.95 11.7602 179.956C11.7782 179.961 11.8088 179.973 11.8232 179.977C11.8375 179.982 11.8664 179.989 11.885 180L11.8845 180Z" fill="#666666"/>
</g>
<defs>
<clipPath id="clip0_190_1125">
<rect width="147.383" height="180" fill="white"/>
</clipPath>
</defs>
</svg>
