<svg width="164" height="48" viewBox="0 0 164 48" fill="none" xmlns="http://www.w3.org/2000/svg">
<path fill-rule="evenodd" clip-rule="evenodd" d="M23.1861 1.628C23.5045 1.628 23.8208 1.63614 24.1359 1.64895C12.788 2.12974 3.73548 11.4801 3.73548 22.9462C3.73548 34.7198 13.2799 44.2643 25.0538 44.2643C36.5199 44.2643 45.8701 35.2117 46.351 23.8639C46.3637 24.1792 46.3719 24.4956 46.3719 24.814C46.3719 37.6192 35.9911 47.9998 23.186 47.9998C10.3806 47.9998 -0.00012207 37.6192 -0.00012207 24.814C-0.00012207 12.0086 10.3807 1.628 23.1861 1.628Z" fill="#006633"/>
<path fill-rule="evenodd" clip-rule="evenodd" d="M38.1133 9.02028L46.372 17.2792V21.663L38.1133 13.4042L18.0809 33.4363H13.6971L38.1133 9.02028Z" fill="#CC9933"/>
<path fill-rule="evenodd" clip-rule="evenodd" d="M23.6501 0L30.0979 1.34066L23.6501 3.25589L25.3098 1.628L23.6501 0Z" fill="#006633"/>
<path fill-rule="evenodd" clip-rule="evenodd" d="M35.0527 23.3485H37.3631V25.6589H35.0527V23.3485Z" fill="#CC9933"/>
<path fill-rule="evenodd" clip-rule="evenodd" d="M38.4272 23.3485H40.7378V25.6589H38.4272V23.3485Z" fill="#CC9933"/>
<path fill-rule="evenodd" clip-rule="evenodd" d="M35.0527 26.3699H37.3631V28.6803H35.0527V26.3699Z" fill="#CC9933"/>
<path fill-rule="evenodd" clip-rule="evenodd" d="M38.4272 26.3699H40.7378V28.6803H38.4272V26.3699Z" fill="#CC9933"/>
<path fill-rule="evenodd" clip-rule="evenodd" d="M20.8532 20.3317L25.4228 20.2085L12.0855 33.4363H7.83029L20.8532 20.3317Z" fill="#CC9933"/>
<path d="M62.4922 14.7733C62.5737 14.7733 62.6225 14.8059 62.6552 14.8874L63.9589 18.3426C64.0405 18.5382 63.9264 18.6848 63.8123 18.7175C63.6493 18.7338 63.5841 18.7664 63.5841 18.8642C63.5841 18.9783 63.7797 18.9783 64.073 18.9945C65.3769 19.0271 66.5667 19.0271 67.1534 19.0271C67.7564 19.0271 67.9032 18.9945 67.9032 18.8642C67.9032 18.7501 67.8217 18.7338 67.6913 18.7338C67.4957 18.7338 67.2512 18.7175 67.0067 18.6686C66.6645 18.5871 66.1918 18.3588 65.5725 16.892C64.5294 14.4148 61.9217 7.76528 61.5307 6.86883C61.3676 6.49388 61.2698 6.34722 61.1232 6.34722C60.9602 6.34722 60.8624 6.52655 60.6668 6.9992L56.576 17.2342C56.25 18.0491 55.9404 18.6033 55.1907 18.7011C55.0604 18.7174 54.8322 18.7337 54.6854 18.7337C54.555 18.7337 54.4899 18.7663 54.4899 18.8641C54.4899 18.9944 54.5877 19.027 54.7995 19.027C55.647 19.027 56.5434 18.9782 56.7228 18.9782C57.228 18.9782 57.9287 19.027 58.4503 19.027C58.6297 19.027 58.7275 18.9944 58.7275 18.8641C58.7275 18.7663 58.6785 18.7337 58.4829 18.7337H58.2384C57.7332 18.7337 57.5864 18.5218 57.5864 18.2284C57.5864 18.0329 57.668 17.6416 57.831 17.2342L58.711 14.9038C58.7436 14.8059 58.7762 14.7733 58.8577 14.7733H62.4922ZM59.1837 13.9585C59.1185 13.9585 59.1022 13.9096 59.1185 13.8444L60.6178 9.8351C60.6342 9.76996 60.6668 9.68844 60.7156 9.68844C60.7646 9.68844 60.7809 9.76996 60.7972 9.8351L62.264 13.8606C62.2803 13.9096 62.264 13.9585 62.1824 13.9585H59.1837Z" fill="#006633"/>
<path d="M70.6734 19.2063C71.4395 19.2063 72.3847 19.1248 73.0691 18.6359C74.1122 17.9024 74.5033 17.0713 74.5033 16.0446C74.5033 14.7897 73.9166 13.7302 72.0261 12.6872L71.4394 12.3612C70.1518 11.644 69.9236 11.1551 69.9236 10.5358C69.9236 9.59052 70.8525 9.05263 71.8795 9.05263C72.8084 9.05263 73.2647 9.44386 73.4766 9.70461C73.7863 10.0632 73.8515 10.4869 73.8515 10.6172C73.8515 10.7803 73.9004 10.8617 73.9982 10.8617C74.1123 10.8617 74.1775 10.715 74.1775 10.4216C74.1775 9.32977 74.2264 8.93854 74.2264 8.75932C74.2264 8.66151 74.1612 8.61255 74.0308 8.57998C73.656 8.48217 72.9226 8.3518 71.9935 8.3518C70.0051 8.3518 68.3753 9.44376 68.3753 11.1387C68.3753 12.3611 68.9295 13.2901 70.6244 14.2842L71.4557 14.7732C72.7268 15.523 72.8736 16.1259 72.8736 16.729C72.8736 17.7069 72.1238 18.4892 70.8852 18.4892C69.9889 18.4892 68.9131 18.1469 68.6034 17.1201C68.522 16.8757 68.473 16.5823 68.473 16.403C68.473 16.3052 68.4567 16.1748 68.3263 16.1748C68.2122 16.1748 68.147 16.3215 68.147 16.5334C68.1307 16.7616 68.0656 17.6253 68.0656 18.3751C68.0656 18.6847 68.1144 18.75 68.3426 18.8478C68.962 19.1248 69.8422 19.2063 70.6734 19.2063ZM79.4743 19.2063C80.2404 19.2063 81.1856 19.1248 81.87 18.6359C82.9131 17.9024 83.3042 17.0713 83.3042 16.0446C83.3042 14.7897 82.7175 13.7302 80.827 12.6872L80.2403 12.3612C78.9527 11.644 78.7245 11.1551 78.7245 10.5358C78.7245 9.59052 79.6534 9.05263 80.6803 9.05263C81.6093 9.05263 82.0656 9.44386 82.2775 9.70461C82.5872 10.0632 82.6524 10.4869 82.6524 10.6172C82.6524 10.7803 82.7013 10.8617 82.7991 10.8617C82.9132 10.8617 82.9784 10.715 82.9784 10.4216C82.9784 9.32977 83.0273 8.93854 83.0273 8.75932C83.0273 8.66151 82.9621 8.61255 82.8317 8.57998C82.4569 8.48217 81.7234 8.3518 80.7944 8.3518C78.806 8.3518 77.1762 9.44376 77.1762 11.1387C77.1762 12.3611 77.7304 13.2901 79.4253 14.2842L80.2566 14.7732C81.5277 15.523 81.6745 16.1259 81.6745 16.729C81.6745 17.7069 80.9247 18.4892 79.6861 18.4892C78.7897 18.4892 77.714 18.1469 77.4043 17.1201C77.3228 16.8757 77.2739 16.5823 77.2739 16.403C77.2739 16.3052 77.2576 16.1748 77.1272 16.1748C77.0131 16.1748 76.9479 16.3215 76.9479 16.5334C76.9316 16.7616 76.8665 17.6253 76.8665 18.3751C76.8665 18.6847 76.9153 18.75 77.1435 18.8478C77.7629 19.1248 78.6431 19.2063 79.4743 19.2063Z" fill="#006633"/>
<path d="M86.4008 15.0015C86.4008 16.2727 86.4008 17.3647 86.3355 17.9514C86.2867 18.3588 86.2052 18.6197 85.9118 18.6848C85.7814 18.7175 85.6184 18.7338 85.4065 18.7338C85.2272 18.7338 85.1783 18.8153 85.1783 18.8805C85.1783 18.9783 85.2761 19.0271 85.4555 19.0271C85.7488 19.0271 86.1073 19.0108 86.4495 18.9945C86.7918 18.9945 87.1015 18.9783 87.2644 18.9783C87.6882 18.9783 88.2259 18.9945 88.9268 19.0108C89.6277 19.0435 90.4915 19.0598 91.567 19.0598C92.1049 19.0598 92.2353 19.0598 92.3331 18.7012C92.4146 18.4241 92.5287 17.4789 92.5287 17.1692C92.5287 17.0225 92.5124 16.8432 92.3983 16.8432C92.3005 16.8432 92.2678 16.9083 92.2353 17.0551C92.1375 17.6256 91.9745 17.9189 91.616 18.0818C91.241 18.2448 90.6381 18.2611 90.2633 18.2611C88.7964 18.2611 88.3563 18.0492 88.3237 17.104C88.3074 16.6965 88.3237 15.5231 88.3237 15.0504V13.9422C88.3237 13.8606 88.34 13.7955 88.4052 13.7955C88.7638 13.7955 90.3936 13.8281 90.6544 13.8606C91.1923 13.9096 91.3715 14.1215 91.4529 14.3985C91.4855 14.5779 91.4855 14.7571 91.5019 14.9039C91.5019 14.969 91.5345 15.018 91.6323 15.018C91.7626 15.018 91.7789 14.8223 91.7789 14.7082C91.7789 14.6104 91.8115 14.0563 91.8442 13.7793C91.9256 13.0784 91.9583 12.8503 91.9583 12.7688C91.9583 12.6874 91.9093 12.6221 91.8442 12.6221C91.7789 12.6221 91.7301 12.7037 91.616 12.8015C91.4855 12.9481 91.2737 12.9807 90.9314 13.0134C90.6054 13.0459 88.7474 13.0459 88.4215 13.0459C88.34 13.0459 88.3237 12.9807 88.3237 12.8993V9.47665C88.3237 9.39512 88.3563 9.34627 88.4215 9.34627C88.7149 9.34627 90.4262 9.37884 90.6707 9.41141C91.3879 9.47665 91.5019 9.67227 91.616 9.91673C91.6974 10.0797 91.7138 10.3242 91.7138 10.4219C91.7138 10.5361 91.7301 10.6013 91.8279 10.6013C91.942 10.6013 91.9745 10.4383 91.9908 10.3731C92.0234 10.2102 92.0561 9.60702 92.0723 9.46047C92.1049 8.82477 92.1864 8.66194 92.1864 8.56413C92.1864 8.49889 92.1702 8.43376 92.0886 8.43376C92.0234 8.43376 91.942 8.48261 91.8604 8.49889C91.7464 8.51517 91.5182 8.56413 91.2573 8.58042C90.9803 8.5967 87.8022 8.58042 87.3459 8.58042C86.9385 8.58042 86.0258 8.54785 85.276 8.54785C85.0641 8.54785 84.95 8.58042 84.95 8.67822C84.95 8.77603 85.0478 8.82488 85.1945 8.82488C85.4064 8.82488 85.6509 8.84117 85.765 8.87384C86.2213 9.00422 86.3518 9.15087 86.3844 9.62352C86.4007 10.0636 86.4007 10.4547 86.4007 12.5572V15.0018L86.4008 15.0015ZM97.6952 15.0015C97.6952 16.2727 97.6952 17.3647 97.6299 17.9514C97.5811 18.3588 97.4996 18.6197 97.2062 18.6848C97.0921 18.7175 96.9128 18.7338 96.7009 18.7338C96.5217 18.7338 96.4727 18.8153 96.4727 18.8805C96.4727 18.9783 96.5705 19.0271 96.7499 19.0271C97.3203 19.0271 98.2981 18.9783 98.6241 18.9783C99.0316 18.9783 99.9932 19.0271 100.938 19.0271C101.102 19.0271 101.216 18.9783 101.216 18.8805C101.216 18.8153 101.15 18.7338 100.987 18.7338C100.776 18.7338 100.45 18.7175 100.254 18.6848C99.8301 18.6197 99.7486 18.3588 99.6998 17.9677C99.6345 17.3647 99.6182 16.2727 99.6182 15.0015V9.39501L101.427 9.42769C102.715 9.44397 103.09 9.86777 103.122 10.2262L103.139 10.3729C103.155 10.5848 103.188 10.65 103.302 10.65C103.383 10.65 103.416 10.5685 103.432 10.4217C103.432 10.0632 103.465 9.03646 103.465 8.74303C103.465 8.53124 103.448 8.44972 103.351 8.44972C103.302 8.44972 103.188 8.48228 102.959 8.51485C102.747 8.54752 102.438 8.58009 101.981 8.58009H96.1631C95.6905 8.58009 95.1527 8.56381 94.729 8.51485C94.3703 8.466 94.2237 8.35191 94.1096 8.35191C94.0281 8.35191 93.9792 8.43343 93.9467 8.61266C93.914 8.72675 93.637 10.0632 93.637 10.2914C93.637 10.4381 93.6695 10.5195 93.7673 10.5195C93.8651 10.5195 93.8977 10.4544 93.9303 10.3403C93.9629 10.2425 94.0281 10.0632 94.1748 9.86766C94.3866 9.55796 94.729 9.46015 95.5601 9.44386L97.6952 9.39491V15.0015Z" fill="#006633"/>
<path d="M60.2103 37.13C60.357 37.5538 60.4222 37.733 60.5852 37.733C60.7808 37.733 60.8623 37.5375 61.1719 36.8693C61.8728 35.3699 64.0404 29.6005 64.3501 28.7692H64.3826L67.7726 36.9345C68.0172 37.5376 68.115 37.733 68.2779 37.733C68.4898 37.733 68.5714 37.5375 68.7506 36.967C69.5491 34.5224 71.2605 29.3395 72.0102 27.286C72.3524 26.3571 72.5318 25.7051 72.9229 25.5584C73.1021 25.4932 73.3303 25.4769 73.4933 25.4769C73.64 25.4769 73.7215 25.428 73.7215 25.3139C73.7215 25.2162 73.6074 25.1835 73.4281 25.1835C72.8902 25.1835 72.1895 25.2325 72.0754 25.2325C71.9287 25.2325 71.2443 25.1835 70.3804 25.1835C70.1359 25.1835 70.0055 25.2162 70.0055 25.3303C70.0055 25.428 70.1196 25.4769 70.2826 25.4769C70.9183 25.4769 71.0649 25.7051 71.0649 25.9658C71.0649 26.194 71.0159 26.5363 70.9018 26.9111C70.3314 28.818 69.0276 33.1206 68.7342 34.2126H68.6853L65.2953 26.0147C65.0834 25.4931 65.0019 25.2486 64.8226 25.2486C64.6922 25.2486 64.5781 25.379 64.4151 25.8354L61.2533 34.3267H61.2045C60.911 33.414 59.3954 28.4758 59.1183 27.4C58.9226 26.6666 58.7597 26.1125 58.7597 25.9006C58.7597 25.7213 58.7923 25.6072 58.9389 25.5419C59.053 25.4768 59.2161 25.4768 59.3464 25.4768C59.5095 25.4768 59.6399 25.4605 59.6399 25.3301C59.6399 25.2323 59.5258 25.1834 59.2976 25.1834C58.3523 25.1834 57.6352 25.2323 57.4884 25.2323C57.3417 25.2323 56.4454 25.1834 55.5979 25.1834C55.3697 25.1834 55.2393 25.2161 55.2393 25.3301C55.2393 25.4605 55.3371 25.4768 55.5001 25.4768C55.6468 25.4768 55.9728 25.5094 56.1521 25.6235C56.3803 25.7865 56.5595 26.1776 56.7551 26.7807L60.2103 37.13ZM79.8655 37.6842C83.5653 37.6842 85.8795 35.1906 85.8795 32.0125C85.8795 28.8344 83.6303 26.8297 80.0123 26.8297C75.6608 26.8297 73.9983 29.8937 73.9983 32.2569C73.9983 34.7179 75.6933 37.6842 79.8655 37.6842ZM80.4524 36.9344C77.747 36.9344 76.1171 34.6852 76.1171 31.8331C76.1171 28.4105 77.9914 27.5631 79.5886 27.5631C81.903 27.5631 83.7445 29.4536 83.7445 32.5177C83.7445 36.4617 81.4628 36.9344 80.4524 36.9344Z" fill="#006633"/>
<path d="M88.5522 33.4793C88.5522 34.7506 88.5522 35.8425 88.487 36.4293C88.4381 36.8367 88.3566 37.0975 88.0633 37.1627C87.9328 37.1953 87.7699 37.2116 87.558 37.2116C87.3786 37.2116 87.3298 37.2931 87.3298 37.3583C87.3298 37.4561 87.4276 37.5049 87.6069 37.5049C88.1774 37.5049 89.09 37.4561 89.367 37.4561C89.5789 37.4561 90.7687 37.5049 91.5999 37.5049C91.7792 37.5049 91.8933 37.4561 91.8933 37.3583C91.8933 37.2931 91.8281 37.2116 91.714 37.2116C91.5348 37.2116 91.2251 37.1953 91.0132 37.1627C90.5731 37.0975 90.5079 36.8367 90.459 36.4293C90.3938 35.8425 90.3775 34.7668 90.3775 33.4793V33.2838C90.3775 33.2022 90.4264 33.1697 90.4916 33.1697L91.7791 33.2022C91.877 33.2022 91.9584 33.2185 92.0399 33.3001C92.2192 33.512 92.8221 34.4409 93.3926 35.1906C94.1911 36.2662 94.729 36.9182 95.3484 37.2279C95.7233 37.4235 96.1145 37.5049 96.913 37.5049H98.282C98.4614 37.5049 98.5591 37.4724 98.5591 37.3583C98.5591 37.2931 98.4939 37.2116 98.3798 37.2116C98.2657 37.2116 98.1842 37.2116 98.0376 37.1791C97.8094 37.1301 97.304 37.065 96.5055 36.2663C95.6417 35.4027 94.6312 34.1475 93.36 32.5829C94.7617 31.4584 95.3484 30.5457 95.3484 29.519C95.3484 28.5901 94.7453 27.8891 94.338 27.6121C93.5719 27.1068 92.5289 27.0253 91.6162 27.0253C91.1761 27.0253 89.8724 27.0579 89.3833 27.0579C89.09 27.0579 88.1774 27.0253 87.4276 27.0253C87.2157 27.0253 87.1016 27.0579 87.1016 27.1557C87.1016 27.2535 87.1994 27.3024 87.3461 27.3024C87.558 27.3024 87.8024 27.3187 87.9165 27.3513C88.3729 27.4817 88.5034 27.6284 88.5359 28.101C88.5522 28.5411 88.5522 28.9322 88.5522 31.0347V33.4793ZM90.3776 27.9869C90.3776 27.8728 90.4102 27.824 90.5079 27.7914C90.6547 27.7587 90.997 27.7425 91.3554 27.7425C92.2029 27.7425 93.5395 28.2478 93.5395 30.2034C93.5395 31.3442 93.0504 31.9473 92.6105 32.2571C92.366 32.4363 92.1704 32.4852 91.6 32.4852C91.2415 32.4852 90.8178 32.4526 90.5081 32.3548C90.4104 32.3059 90.3777 32.2571 90.3777 32.1103L90.3776 27.9869ZM101.656 31.0347C101.656 28.9322 101.656 28.5411 101.688 28.101C101.721 27.6121 101.835 27.4165 102.226 27.3513C102.389 27.3187 102.618 27.3024 102.78 27.3024C102.96 27.3024 103.041 27.2535 103.041 27.1557C103.041 27.0579 102.943 27.0253 102.732 27.0253C102.177 27.0253 101.004 27.0579 100.662 27.0579C100.271 27.0579 99.3579 27.0253 98.6897 27.0253C98.4778 27.0253 98.3799 27.0579 98.3799 27.1557C98.3799 27.2535 98.4615 27.3024 98.6244 27.3024C98.8037 27.3024 98.983 27.3187 99.0971 27.3513C99.5534 27.4817 99.6839 27.6284 99.7165 28.101C99.7327 28.5411 99.7328 28.9322 99.7328 31.0347V33.4793C99.7328 34.7506 99.7328 35.8425 99.6675 36.4293C99.6187 36.8367 99.5371 37.0975 99.2438 37.1627C99.1133 37.1953 98.9504 37.2116 98.7385 37.2116C98.5592 37.2116 98.5103 37.2931 98.5103 37.3583C98.5103 37.4561 98.6081 37.5049 98.7875 37.5049C99.0808 37.5049 99.4393 37.4887 99.7815 37.4724C100.124 37.4724 100.433 37.4561 100.596 37.4561C101.183 37.4561 101.786 37.4724 102.503 37.4887C103.22 37.5213 104.052 37.5376 105.078 37.5376C105.828 37.5376 105.893 37.4724 105.991 37.1627C106.105 36.7553 106.203 35.7285 106.203 35.5655C106.203 35.4025 106.17 35.2558 106.072 35.2558C105.958 35.2558 105.926 35.3373 105.909 35.4677C105.877 35.7285 105.73 36.1197 105.551 36.2989C105.192 36.6737 104.638 36.69 103.872 36.69C102.764 36.69 102.21 36.6085 101.965 36.3967C101.656 36.1358 101.656 35.2558 101.656 33.4793L101.656 31.0347ZM108.729 33.4794C108.729 34.7507 108.729 35.8426 108.664 36.4294C108.615 36.8368 108.533 37.0976 108.24 37.1628C108.11 37.1954 107.947 37.2117 107.735 37.2117C107.555 37.2117 107.507 37.2933 107.507 37.3584C107.507 37.4562 107.604 37.505 107.784 37.505C108.077 37.505 108.436 37.4888 108.778 37.4725C109.12 37.4725 109.43 37.4562 109.593 37.4562C109.951 37.4562 110.473 37.4888 111.043 37.5377C111.614 37.5703 112.233 37.6191 112.754 37.6191C115.395 37.6191 116.91 36.6414 117.562 35.9894C118.377 35.1909 119.127 33.8706 119.127 32.1267C119.127 30.4807 118.491 29.3235 117.774 28.6063C116.21 27.0255 113.798 27.0255 112.005 27.0255C111.141 27.0255 110.114 27.058 109.674 27.058C109.267 27.058 108.354 27.0255 107.604 27.0255C107.393 27.0255 107.278 27.058 107.278 27.1558C107.278 27.2536 107.376 27.3025 107.523 27.3025C107.735 27.3025 107.979 27.3188 108.093 27.3514C108.55 27.4818 108.68 27.6285 108.713 28.1011C108.729 28.5412 108.729 28.9323 108.729 31.0348V33.4794ZM110.652 30.8229C110.652 29.731 110.652 28.5901 110.668 28.1174C110.668 27.9545 110.717 27.8892 110.848 27.8404C110.962 27.7751 111.435 27.7426 111.728 27.7426C112.852 27.7426 114.417 27.8892 115.737 29.0627C116.373 29.6169 117.074 30.7577 117.074 32.5179C117.074 33.9521 116.78 35.1908 115.851 35.9568C114.987 36.6739 114.026 36.902 112.722 36.902C111.598 36.902 111.027 36.6086 110.848 36.3478C110.734 36.2012 110.701 35.7121 110.685 35.37C110.668 35.0929 110.652 34.0336 110.652 32.5668L110.652 30.8229ZM123.984 37.1792C124.114 37.5377 124.196 37.6844 124.375 37.6844C124.587 37.6844 124.668 37.5214 124.929 36.9509C125.516 35.6797 127.439 30.774 127.684 30.1872H127.716L130.634 37.0161C130.845 37.5214 130.943 37.6844 131.139 37.6844C131.351 37.6844 131.432 37.5214 131.595 37.0324C132.296 34.9626 133.763 30.5621 134.431 28.8182C134.724 28.0197 134.887 27.4981 135.23 27.3677C135.392 27.3188 135.588 27.3025 135.735 27.3025C135.865 27.3025 135.93 27.2374 135.93 27.1395C135.93 27.058 135.833 27.0255 135.67 27.0255C135.197 27.0255 134.578 27.058 134.48 27.058C134.349 27.058 133.698 27.0255 132.948 27.0255C132.72 27.0255 132.606 27.058 132.606 27.1558C132.606 27.2374 132.72 27.3025 132.85 27.3025C133.421 27.3025 133.551 27.4655 133.551 27.6937C133.551 27.8892 133.502 28.1664 133.404 28.4923C132.899 30.1057 131.807 33.7565 131.53 34.5551H131.481L128.613 27.7262C128.433 27.2861 128.303 27.0742 128.14 27.0742C128.01 27.0742 127.863 27.1883 127.716 27.5795L124.978 34.6528H124.929C124.717 34.0171 123.414 29.8286 123.169 28.9159C122.99 28.2802 122.859 27.824 122.859 27.6447C122.859 27.498 122.876 27.4165 123.006 27.3676C123.12 27.3187 123.251 27.3024 123.365 27.3024C123.511 27.3024 123.625 27.2535 123.625 27.1557C123.625 27.0579 123.528 27.0253 123.316 27.0253C122.485 27.0253 121.784 27.0579 121.653 27.0579C121.523 27.0579 120.724 27.0253 119.991 27.0253C119.779 27.0253 119.665 27.0579 119.665 27.1557C119.665 27.2535 119.746 27.3024 119.893 27.3024C120.024 27.3024 120.301 27.3187 120.447 27.4165C120.659 27.5468 120.773 27.8728 120.953 28.3781L123.984 37.1792ZM137.837 33.4795C137.837 34.8159 137.837 35.9242 137.772 36.4946C137.723 36.9021 137.642 37.0977 137.348 37.1629C137.218 37.1956 137.055 37.2118 136.843 37.2118C136.664 37.2118 136.615 37.2934 136.615 37.3585C136.615 37.4563 136.712 37.5052 136.892 37.5052C137.462 37.5052 138.44 37.4563 138.766 37.4563C139.157 37.4563 140.135 37.5052 141.08 37.5052C141.243 37.5052 141.357 37.4563 141.357 37.3585C141.357 37.2934 141.292 37.2118 141.129 37.2118C140.917 37.2118 140.591 37.1956 140.396 37.1629C139.972 37.0977 139.874 36.8858 139.825 36.511C139.76 35.9242 139.76 34.8159 139.76 33.4795V31.0349C139.76 28.9324 139.76 28.5413 139.793 28.1012C139.825 27.6123 139.94 27.4167 140.331 27.3516C140.494 27.3189 140.608 27.3026 140.754 27.3026C140.901 27.3026 140.983 27.27 140.983 27.1397C140.983 27.0581 140.869 27.0256 140.689 27.0256C140.135 27.0256 139.206 27.0581 138.848 27.0581C138.44 27.0581 137.462 27.0256 136.924 27.0256C136.696 27.0256 136.582 27.0581 136.582 27.1397C136.582 27.27 136.664 27.3026 136.81 27.3026C136.99 27.3026 137.169 27.3189 137.332 27.3678C137.642 27.4656 137.788 27.6286 137.821 28.1012C137.837 28.5413 137.837 28.9324 137.837 31.0349V33.4795ZM144.47 33.4795C144.47 34.7508 144.47 35.8427 144.405 36.4295C144.356 36.8369 144.275 37.0977 143.981 37.1629C143.851 37.1956 143.688 37.2118 143.476 37.2118C143.297 37.2118 143.248 37.2934 143.248 37.3585C143.248 37.4563 143.346 37.5052 143.525 37.5052C143.818 37.5052 144.177 37.4889 144.519 37.4726C144.861 37.4726 145.171 37.4563 145.334 37.4563C145.693 37.4563 146.214 37.4889 146.785 37.5378C147.355 37.5704 147.974 37.6192 148.496 37.6192C151.136 37.6192 152.652 36.6415 153.304 35.9895C154.119 35.191 154.868 33.8707 154.868 32.1268C154.868 30.4808 154.233 29.3236 153.516 28.6065C151.951 27.0256 149.539 27.0256 147.746 27.0256C146.882 27.0256 145.856 27.0581 145.416 27.0581C145.008 27.0581 144.096 27.0256 143.346 27.0256C143.134 27.0256 143.02 27.0581 143.02 27.1559C143.02 27.2537 143.118 27.3026 143.264 27.3026C143.476 27.3026 143.721 27.3189 143.835 27.3516C144.291 27.4819 144.422 27.6286 144.454 28.1012C144.47 28.5413 144.47 28.9324 144.47 31.0349V33.4795ZM146.394 30.823C146.394 29.7311 146.394 28.5902 146.41 28.1175C146.41 27.9546 146.459 27.8893 146.589 27.8405C146.703 27.7752 147.176 27.7427 147.469 27.7427C148.594 27.7427 150.158 27.8893 151.479 29.0628C152.114 29.617 152.815 30.7578 152.815 32.518C152.815 33.9523 152.521 35.1909 151.593 35.9569C150.729 36.6741 149.767 36.9021 148.463 36.9021C147.339 36.9021 146.768 36.6087 146.589 36.348C146.475 36.2013 146.442 35.7123 146.426 35.3701C146.41 35.0931 146.393 34.0337 146.393 32.5669L146.394 30.823Z" fill="#006633"/>
<path d="M157.851 33.4793C157.851 34.7506 157.851 35.8425 157.785 36.4293C157.736 36.8367 157.655 37.0975 157.362 37.1627C157.231 37.1953 157.068 37.2116 156.856 37.2116C156.677 37.2116 156.628 37.2931 156.628 37.3583C156.628 37.4561 156.726 37.5049 156.905 37.5049C157.199 37.5049 157.557 37.4887 157.899 37.4724C158.242 37.4724 158.551 37.4561 158.714 37.4561C159.138 37.4561 159.676 37.4724 160.377 37.4887C161.077 37.5213 161.941 37.5376 163.017 37.5376C163.555 37.5376 163.685 37.5376 163.783 37.1791C163.864 36.9019 163.979 35.9567 163.979 35.647C163.979 35.5004 163.962 35.321 163.848 35.321C163.75 35.321 163.718 35.3862 163.685 35.5329C163.587 36.1034 163.424 36.3967 163.066 36.5596C162.691 36.7226 162.088 36.739 161.713 36.739C160.246 36.739 159.806 36.5271 159.774 35.5818C159.757 35.1744 159.774 34.0009 159.774 33.5282V32.42C159.774 32.3385 159.79 32.2733 159.855 32.2733C160.214 32.2733 161.843 32.3059 162.104 32.3385C162.642 32.3874 162.821 32.5993 162.903 32.8764C162.935 33.0557 162.935 33.2349 162.952 33.3817C162.952 33.4468 162.984 33.4958 163.082 33.4958C163.212 33.4958 163.229 33.3002 163.229 33.1861C163.229 33.0883 163.261 32.5341 163.294 32.2572C163.375 31.5562 163.408 31.3281 163.408 31.2466C163.408 31.1652 163.359 31.1 163.294 31.1C163.229 31.1 163.18 31.1815 163.066 31.2793C162.935 31.426 162.724 31.4585 162.381 31.4912C162.055 31.5238 160.197 31.5238 159.871 31.5238C159.79 31.5238 159.774 31.4585 159.774 31.3771V27.9545C159.774 27.8729 159.806 27.8241 159.871 27.8241C160.165 27.8241 161.876 27.8567 162.12 27.8892C162.838 27.9545 162.952 28.1501 163.066 28.3946C163.147 28.5575 163.164 28.8021 163.164 28.8998C163.164 29.014 163.18 29.0791 163.278 29.0791C163.392 29.0791 163.424 28.9162 163.441 28.8509C163.473 28.688 163.506 28.0848 163.522 27.9383C163.555 27.3026 163.636 27.1398 163.636 27.042C163.636 26.9767 163.62 26.9116 163.538 26.9116C163.473 26.9116 163.392 26.9604 163.31 26.9767C163.196 26.993 162.968 27.042 162.707 27.0582C162.43 27.0745 159.252 27.0582 158.796 27.0582C158.388 27.0582 157.476 27.0257 156.726 27.0257C156.514 27.0257 156.4 27.0582 156.4 27.156C156.4 27.2539 156.498 27.3027 156.644 27.3027C156.856 27.3027 157.101 27.319 157.215 27.3517C157.671 27.482 157.802 27.6287 157.834 28.1013C157.85 28.5414 157.85 28.9326 157.85 31.035V33.4796L157.851 33.4793Z" fill="#006633"/>
<path d="M58.1708 43.7716C58.0855 43.6386 57.9696 43.5363 57.8229 43.4647C57.6763 43.3931 57.5194 43.3572 57.3523 43.3572C57.1476 43.3572 56.9566 43.3965 56.7793 43.4749C56.6053 43.5499 56.4484 43.654 56.3086 43.787C56.1722 43.92 56.0596 44.0769 55.971 44.2576C55.8823 44.435 55.8226 44.626 55.7919 44.8306C55.7646 45.0216 55.7697 45.2024 55.8073 45.3729C55.8448 45.5434 55.913 45.6935 56.0119 45.8231C56.1108 45.9527 56.2387 46.055 56.3956 46.1301C56.5525 46.2051 56.7366 46.2426 56.9481 46.2426C57.1561 46.2426 57.3437 46.2 57.5108 46.1147C57.6814 46.0294 57.8314 45.9101 57.961 45.7566L58.3294 46.0687C58.2987 46.1062 58.2441 46.1607 58.1657 46.2324C58.0872 46.3006 57.9866 46.3705 57.8638 46.4421C57.7411 46.5103 57.5961 46.57 57.429 46.6212C57.2653 46.6757 57.0794 46.703 56.8714 46.703C56.5849 46.703 56.3342 46.6485 56.1193 46.5393C55.9045 46.4302 55.7288 46.2869 55.5924 46.1096C55.456 45.9322 55.3605 45.7327 55.3059 45.511C55.2513 45.2859 55.2394 45.0591 55.2701 44.8306C55.311 44.5509 55.3929 44.2934 55.5157 44.0581C55.6418 43.8194 55.8004 43.6147 55.9914 43.4442C56.1824 43.2703 56.4007 43.1356 56.6463 43.0401C56.8918 42.9446 57.1544 42.8968 57.4341 42.8968C57.6729 42.8968 57.8997 42.9429 58.1145 43.0349C58.3328 43.1236 58.5016 43.2652 58.621 43.4596L58.1708 43.7716Z" fill="#CC9933"/>
<path d="M59.2763 45.3985C59.2593 45.5213 59.261 45.6355 59.2815 45.7412C59.3053 45.8436 59.3463 45.9322 59.4042 46.0073C59.4622 46.0789 59.5373 46.1369 59.6293 46.1812C59.7248 46.2221 59.834 46.2426 59.9568 46.2426C60.0795 46.2426 60.1921 46.2221 60.2944 46.1812C60.4001 46.1369 60.4922 46.0789 60.5707 46.0073C60.6491 45.9322 60.7139 45.8436 60.7651 45.7412C60.8196 45.6355 60.8554 45.5213 60.8725 45.3985C60.8895 45.2757 60.8861 45.1632 60.8623 45.0608C60.8418 44.9551 60.8009 44.8664 60.7395 44.7948C60.6815 44.7198 60.6065 44.6618 60.5144 44.6209C60.4223 44.5765 60.3149 44.5544 60.1921 44.5544C60.0693 44.5544 59.9551 44.5765 59.8493 44.6209C59.747 44.6618 59.6549 44.7198 59.5731 44.7948C59.4946 44.8664 59.4298 44.9551 59.3787 45.0608C59.3275 45.1632 59.2934 45.2757 59.2763 45.3985ZM58.7852 45.3985C58.8091 45.2211 58.8654 45.0557 58.954 44.9022C59.0427 44.7488 59.1536 44.614 59.2866 44.4981C59.4196 44.3821 59.568 44.2917 59.7317 44.2269C59.8988 44.1587 60.0727 44.1246 60.2535 44.1246C60.4342 44.1246 60.5979 44.1587 60.7446 44.2269C60.8913 44.2917 61.014 44.3821 61.1129 44.4981C61.2153 44.614 61.2886 44.7488 61.3329 44.9022C61.3773 45.0557 61.3875 45.2211 61.3636 45.3985C61.3363 45.5758 61.2784 45.743 61.1897 45.8998C61.1044 46.0533 60.9953 46.188 60.8623 46.304C60.7293 46.4165 60.5792 46.5069 60.4121 46.5751C60.2484 46.6399 60.0761 46.6723 59.8954 46.6723C59.7146 46.6723 59.5492 46.6399 59.3991 46.5751C59.2525 46.5069 59.1297 46.4165 59.0308 46.304C58.9319 46.188 58.8585 46.0533 58.8108 45.8998C58.7665 45.743 58.7579 45.5758 58.7852 45.3985Z" fill="#CC9933"/>
<path d="M62.1093 44.186H62.539L62.4878 44.5646H62.4981C62.5151 44.5305 62.5475 44.4879 62.5953 44.4367C62.643 44.3855 62.7044 44.3378 62.7794 44.2934C62.8545 44.2457 62.938 44.2065 63.0301 44.1758C63.1256 44.1417 63.2279 44.1246 63.3371 44.1246C63.6884 44.1246 63.9186 44.2747 64.0277 44.5748C64.13 44.4248 64.2579 44.3122 64.4114 44.2372C64.5649 44.1621 64.715 44.1246 64.8616 44.1246C65.0492 44.1246 65.1975 44.1553 65.3067 44.2167C65.4192 44.2781 65.5011 44.36 65.5522 44.4623C65.6068 44.5612 65.6375 44.6754 65.6443 44.805C65.6546 44.9312 65.6494 45.0625 65.629 45.199L65.4346 46.6109H64.9742L65.1634 45.2603C65.1771 45.1683 65.1822 45.0796 65.1788 44.9943C65.1788 44.9091 65.1651 44.834 65.1379 44.7692C65.1106 44.7044 65.0645 44.6533 64.9997 44.6158C64.9383 44.5748 64.8514 44.5544 64.7388 44.5544C64.5171 44.5544 64.3483 44.6226 64.2324 44.759C64.1198 44.8954 64.0482 45.0711 64.0175 45.2859L63.8333 46.6109H63.3729L63.5468 45.3422C63.5639 45.2262 63.5724 45.1205 63.5724 45.025C63.5758 44.9295 63.5639 44.8477 63.5366 44.7795C63.5127 44.7078 63.4701 44.6533 63.4087 44.6158C63.3473 44.5748 63.2603 44.5544 63.1478 44.5544C63.0659 44.5544 62.9841 44.5714 62.9022 44.6055C62.8204 44.6362 62.7453 44.684 62.6771 44.7488C62.6123 44.8136 62.556 44.8971 62.5083 44.9994C62.4605 45.0983 62.4264 45.216 62.406 45.3524L62.232 46.6109H61.7716L62.1093 44.186Z" fill="#CC9933"/>
<path d="M66.4658 44.186H66.9262L66.8801 44.5339H66.8904C66.9995 44.4043 67.1359 44.3037 67.2996 44.2321C67.4633 44.1604 67.6271 44.1246 67.7908 44.1246C67.9783 44.1246 68.1438 44.157 68.287 44.2218C68.4303 44.2866 68.5462 44.377 68.6349 44.493C68.727 44.6089 68.7901 44.7454 68.8242 44.9022C68.8617 45.0557 68.8685 45.2211 68.8446 45.3985C68.8174 45.5792 68.7628 45.7481 68.6809 45.905C68.6025 46.0584 68.5019 46.1931 68.3791 46.3091C68.2563 46.4217 68.1148 46.5103 67.9545 46.5751C67.7942 46.6399 67.6202 46.6723 67.4326 46.6723C67.2587 46.6723 67.1001 46.6365 66.9569 46.5649C66.8136 46.4899 66.7096 46.3893 66.6448 46.2631H66.6346L66.3839 48.0536H65.9235L66.4658 44.186ZM67.6731 44.5544C67.5503 44.5544 67.4361 44.5765 67.3303 44.6209C67.228 44.6618 67.1359 44.7198 67.0541 44.7948C66.9756 44.8664 66.9108 44.9551 66.8597 45.0608C66.8085 45.1632 66.7744 45.2757 66.7574 45.3985C66.7403 45.5213 66.742 45.6355 66.7625 45.7412C66.7863 45.8436 66.8273 45.9322 66.8853 46.0073C66.9432 46.0789 67.0183 46.1369 67.1104 46.1812C67.2058 46.2221 67.315 46.2426 67.4378 46.2426C67.5606 46.2426 67.6731 46.2221 67.7754 46.1812C67.8811 46.1369 67.9732 46.0789 68.0517 46.0073C68.1301 45.9322 68.1949 45.8436 68.2461 45.7412C68.3006 45.6355 68.3365 45.5213 68.3535 45.3985C68.3706 45.2757 68.3671 45.1632 68.3433 45.0608C68.3228 44.9551 68.2819 44.8664 68.2205 44.7948C68.1625 44.7198 68.0875 44.6618 67.9954 44.6209C67.9033 44.5765 67.7959 44.5544 67.6731 44.5544Z" fill="#CC9933"/>
<path d="M69.5625 44.4827C69.7092 44.3634 69.8712 44.2747 70.0485 44.2167C70.2293 44.1553 70.405 44.1246 70.5755 44.1246C70.7528 44.1246 70.9029 44.1468 71.0257 44.1911C71.1485 44.2355 71.2457 44.2952 71.3173 44.3702C71.3889 44.4452 71.4367 44.5322 71.4605 44.6311C71.4844 44.7266 71.4895 44.8272 71.4759 44.9329L71.3019 46.171C71.2883 46.2562 71.2781 46.3347 71.2712 46.4063C71.2644 46.4779 71.261 46.5461 71.261 46.6109H70.8517C70.8551 46.5496 70.8586 46.4882 70.862 46.4268C70.8688 46.3654 70.8773 46.304 70.8876 46.2426H70.8773C70.7511 46.3995 70.613 46.5103 70.4629 46.5751C70.3163 46.6399 70.1509 46.6723 69.9667 46.6723C69.8541 46.6723 69.7484 46.657 69.6495 46.6263C69.554 46.5956 69.4722 46.5496 69.4039 46.4882C69.3357 46.4268 69.2846 46.3517 69.2505 46.2631C69.2198 46.171 69.213 46.0653 69.23 45.9459C69.2505 45.789 69.3033 45.6577 69.3886 45.552C69.4739 45.4462 69.5813 45.361 69.7109 45.2962C69.8439 45.228 69.9923 45.1802 70.156 45.1529C70.3231 45.1222 70.4987 45.1069 70.6829 45.1069H71.0206L71.0359 45.0046C71.0461 44.9432 71.0427 44.8818 71.0257 44.8204C71.012 44.759 70.9847 44.7044 70.9438 44.6567C70.9029 44.6055 70.8483 44.5663 70.7801 44.539C70.7119 44.5083 70.6283 44.493 70.5294 44.493C70.4408 44.493 70.3606 44.5015 70.289 44.5185C70.2208 44.5356 70.1577 44.5578 70.0997 44.5851C70.0451 44.6089 69.9923 44.6379 69.9411 44.672C69.8934 44.7061 69.8456 44.7385 69.7979 44.7692L69.5625 44.4827ZM70.729 45.4445C70.6198 45.4445 70.5073 45.4513 70.3913 45.465C70.2754 45.4752 70.1679 45.4974 70.069 45.5315C69.9701 45.5656 69.8865 45.6133 69.8183 45.6747C69.7501 45.7361 69.7092 45.8146 69.6955 45.9101C69.6751 46.0499 69.7075 46.1505 69.7928 46.2119C69.878 46.2733 70.0008 46.304 70.1611 46.304C70.2873 46.304 70.3964 46.2835 70.4885 46.2426C70.584 46.1983 70.6642 46.142 70.729 46.0738C70.7938 46.0056 70.8432 45.9305 70.8773 45.8487C70.9148 45.7634 70.9387 45.6799 70.9489 45.598L70.9745 45.4445H70.729Z" fill="#CC9933"/>
<path d="M73.4483 44.7948C73.404 44.7266 73.3443 44.6703 73.2693 44.626C73.1976 44.5782 73.1039 44.5544 72.9879 44.5544C72.8788 44.5544 72.7798 44.5782 72.6912 44.626C72.6059 44.6703 72.5582 44.7368 72.5479 44.8255C72.5377 44.8971 72.5513 44.9551 72.5889 44.9994C72.6298 45.0438 72.6792 45.0796 72.7372 45.1069C72.7986 45.1342 72.8634 45.1546 72.9316 45.1683C72.9998 45.1819 73.0595 45.1938 73.1107 45.2041C73.2062 45.228 73.2948 45.2569 73.3767 45.291C73.4586 45.3252 73.5268 45.3695 73.5813 45.4241C73.6393 45.4786 73.6802 45.5451 73.7041 45.6236C73.728 45.702 73.7331 45.7975 73.7195 45.9101C73.699 46.0465 73.653 46.1642 73.5813 46.2631C73.5131 46.3586 73.4279 46.437 73.3255 46.4984C73.2232 46.5598 73.1107 46.6041 72.9879 46.6314C72.8685 46.6587 72.7492 46.6723 72.6298 46.6723C72.4286 46.6723 72.2563 46.6416 72.1131 46.5802C71.9732 46.5189 71.8539 46.4063 71.755 46.2426L72.1387 45.9561C72.2035 46.0311 72.2785 46.0976 72.3638 46.1556C72.449 46.2136 72.5582 46.2426 72.6912 46.2426C72.8105 46.2426 72.9248 46.2187 73.0339 46.171C73.1431 46.1198 73.2062 46.0414 73.2232 45.9356C73.2335 45.8674 73.2198 45.8112 73.1823 45.7668C73.1482 45.7225 73.1021 45.6884 73.0442 45.6645C72.9896 45.6372 72.9282 45.6168 72.86 45.6031C72.7952 45.5861 72.7389 45.5724 72.6912 45.5622C72.5957 45.5383 72.5053 45.511 72.42 45.4803C72.3348 45.4496 72.2614 45.4087 72.2001 45.3576C72.1387 45.3064 72.0926 45.2416 72.0619 45.1632C72.0346 45.0847 72.0295 44.9875 72.0466 44.8715C72.0636 44.7454 72.1046 44.6362 72.1694 44.5441C72.2376 44.4486 72.3194 44.3702 72.4149 44.3088C72.5104 44.2474 72.6161 44.2014 72.7321 44.1707C72.8481 44.14 72.9623 44.1246 73.0749 44.1246C73.2386 44.1246 73.3903 44.1553 73.5302 44.2167C73.6734 44.2781 73.7792 44.3804 73.8474 44.5237L73.4483 44.7948Z" fill="#CC9933"/>
<path d="M75.7215 44.7948C75.6772 44.7266 75.6175 44.6703 75.5424 44.626C75.4708 44.5782 75.377 44.5544 75.2611 44.5544C75.1519 44.5544 75.053 44.5782 74.9643 44.626C74.8791 44.6703 74.8313 44.7368 74.8211 44.8255C74.8109 44.8971 74.8245 44.9551 74.862 44.9994C74.903 45.0438 74.9524 45.0796 75.0104 45.1069C75.0718 45.1342 75.1366 45.1546 75.2048 45.1683C75.273 45.1819 75.3327 45.1938 75.3838 45.2041C75.4793 45.228 75.568 45.2569 75.6499 45.291C75.7317 45.3252 75.7999 45.3695 75.8545 45.4241C75.9125 45.4786 75.9534 45.5451 75.9773 45.6236C76.0012 45.702 76.0063 45.7975 75.9926 45.9101C75.9722 46.0465 75.9261 46.1642 75.8545 46.2631C75.7863 46.3586 75.701 46.437 75.5987 46.4984C75.4964 46.5598 75.3839 46.6041 75.2611 46.6314C75.1417 46.6587 75.0223 46.6723 74.903 46.6723C74.7017 46.6723 74.5295 46.6416 74.3862 46.5802C74.2464 46.5189 74.127 46.4063 74.0281 46.2426L74.4118 45.9561C74.4766 46.0311 74.5517 46.0976 74.6369 46.1556C74.7222 46.2136 74.8313 46.2426 74.9643 46.2426C75.0837 46.2426 75.198 46.2187 75.3071 46.171C75.4163 46.1198 75.4793 46.0414 75.4964 45.9356C75.5066 45.8674 75.493 45.8112 75.4555 45.7668C75.4214 45.7225 75.3753 45.6884 75.3173 45.6645C75.2628 45.6372 75.2014 45.6168 75.1332 45.6031C75.0684 45.5861 75.0121 45.5724 74.9643 45.5622C74.8688 45.5383 74.7785 45.511 74.6932 45.4803C74.6079 45.4496 74.5346 45.4087 74.4732 45.3576C74.4118 45.3064 74.3658 45.2416 74.3351 45.1632C74.3078 45.0847 74.3027 44.9875 74.3197 44.8715C74.3368 44.7454 74.3777 44.6362 74.4425 44.5441C74.5107 44.4486 74.5926 44.3702 74.6881 44.3088C74.7836 44.2474 74.8893 44.2014 75.0053 44.1707C75.1212 44.14 75.2355 44.1246 75.348 44.1246C75.5117 44.1246 75.6635 44.1553 75.8033 44.2167C75.9466 44.2781 76.0523 44.3804 76.1205 44.5237L75.7215 44.7948Z" fill="#CC9933"/>
<path d="M76.8282 44.186H77.2887L76.951 46.6109H76.4906L76.8282 44.186ZM76.8436 43.3163C76.8572 43.2242 76.9016 43.1458 76.9766 43.081C77.0516 43.0128 77.1352 42.9787 77.2273 42.9787C77.3194 42.9787 77.3944 43.0128 77.4524 43.081C77.5104 43.1458 77.5325 43.2242 77.5189 43.3163C77.5052 43.4084 77.4609 43.4886 77.3859 43.5568C77.3108 43.6216 77.2273 43.654 77.1352 43.654C77.0431 43.654 76.9681 43.6216 76.9101 43.5568C76.8521 43.4886 76.8299 43.4084 76.8436 43.3163Z" fill="#CC9933"/>
<path d="M78.2261 45.3985C78.209 45.5213 78.2107 45.6355 78.2312 45.7412C78.2551 45.8436 78.296 45.9322 78.354 46.0073C78.4119 46.0789 78.487 46.1369 78.5791 46.1812C78.6746 46.2221 78.7837 46.2426 78.9065 46.2426C79.0293 46.2426 79.1418 46.2221 79.2441 46.1812C79.3499 46.1369 79.4419 46.0789 79.5204 46.0073C79.5988 45.9322 79.6636 45.8436 79.7148 45.7412C79.7694 45.6355 79.8052 45.5213 79.8222 45.3985C79.8393 45.2757 79.8359 45.1632 79.812 45.0608C79.7915 44.9551 79.7506 44.8664 79.6892 44.7948C79.6312 44.7198 79.5562 44.6618 79.4641 44.6209C79.372 44.5765 79.2646 44.5544 79.1418 44.5544C79.019 44.5544 78.9048 44.5765 78.7991 44.6209C78.6967 44.6618 78.6047 44.7198 78.5228 44.7948C78.4444 44.8664 78.3796 44.9551 78.3284 45.0608C78.2772 45.1632 78.2431 45.2757 78.2261 45.3985ZM77.735 45.3985C77.7588 45.2211 77.8151 45.0557 77.9038 44.9022C77.9925 44.7488 78.1033 44.614 78.2363 44.4981C78.3693 44.3821 78.5177 44.2917 78.6814 44.2269C78.8485 44.1587 79.0225 44.1246 79.2032 44.1246C79.384 44.1246 79.5477 44.1587 79.6943 44.2269C79.841 44.2917 79.9638 44.3821 80.0627 44.4981C80.165 44.614 80.2383 44.7488 80.2827 44.9022C80.327 45.0557 80.3372 45.2211 80.3134 45.3985C80.2861 45.5758 80.2281 45.743 80.1394 45.8998C80.0541 46.0533 79.945 46.188 79.812 46.304C79.679 46.4165 79.5289 46.5069 79.3618 46.5751C79.1981 46.6399 79.0259 46.6723 78.8451 46.6723C78.6643 46.6723 78.4989 46.6399 78.3489 46.5751C78.2022 46.5069 78.0794 46.4165 77.9805 46.304C77.8816 46.188 77.8083 46.0533 77.7605 45.8998C77.7162 45.743 77.7077 45.5758 77.735 45.3985Z" fill="#CC9933"/>
<path d="M81.059 44.186H81.5194L81.4683 44.5595H81.4785C81.5569 44.4299 81.6729 44.3259 81.8264 44.2474C81.9799 44.1656 82.1504 44.1246 82.338 44.1246C82.4539 44.1246 82.5631 44.1434 82.6654 44.1809C82.7677 44.215 82.853 44.2696 82.9212 44.3446C82.9928 44.4196 83.044 44.5168 83.0746 44.6362C83.1053 44.7522 83.1087 44.8903 83.0849 45.0506L82.87 46.6109H82.4096L82.6091 45.1785C82.6227 45.0659 82.6193 44.9705 82.5989 44.892C82.5818 44.8102 82.5511 44.7454 82.5068 44.6976C82.4659 44.6464 82.413 44.6106 82.3482 44.5902C82.2834 44.5663 82.2152 44.5544 82.1436 44.5544C82.0481 44.5544 81.956 44.5697 81.8673 44.6004C81.782 44.6311 81.7036 44.6806 81.632 44.7488C81.5638 44.8136 81.5058 44.8971 81.458 44.9994C81.4103 45.1018 81.3762 45.2228 81.3557 45.3627L81.1818 46.6109H80.7214L81.059 44.186Z" fill="#CC9933"/>
<path d="M83.871 44.4827C84.0177 44.3634 84.1797 44.2747 84.357 44.2167C84.5378 44.1553 84.7134 44.1246 84.884 44.1246C85.0613 44.1246 85.2114 44.1468 85.3342 44.1911C85.4569 44.2355 85.5541 44.2952 85.6258 44.3702C85.6974 44.4452 85.7451 44.5322 85.769 44.6311C85.7929 44.7266 85.798 44.8272 85.7843 44.9329L85.6104 46.171C85.5968 46.2562 85.5865 46.3347 85.5797 46.4063C85.5729 46.4779 85.5695 46.5461 85.5695 46.6109H85.1602C85.1636 46.5496 85.167 46.4882 85.1704 46.4268C85.1773 46.3654 85.1858 46.304 85.196 46.2426H85.1858C85.0596 46.3995 84.9215 46.5103 84.7714 46.5751C84.6247 46.6399 84.4593 46.6723 84.2752 46.6723C84.1626 46.6723 84.0569 46.657 83.958 46.6263C83.8625 46.5956 83.7806 46.5496 83.7124 46.4882C83.6442 46.4268 83.593 46.3517 83.5589 46.2631C83.5282 46.171 83.5214 46.0653 83.5385 45.9459C83.5589 45.789 83.6118 45.6577 83.6971 45.552C83.7823 45.4462 83.8898 45.361 84.0194 45.2962C84.1524 45.228 84.3007 45.1802 84.4644 45.1529C84.6316 45.1222 84.8072 45.1069 84.9914 45.1069H85.329L85.3444 45.0046C85.3546 44.9432 85.3512 44.8818 85.3342 44.8204C85.3205 44.759 85.2932 44.7044 85.2523 44.6567C85.2114 44.6055 85.1568 44.5663 85.0886 44.539C85.0204 44.5083 84.9368 44.493 84.8379 44.493C84.7492 44.493 84.6691 44.5015 84.5975 44.5185C84.5293 44.5356 84.4662 44.5578 84.4082 44.5851C84.3536 44.6089 84.3007 44.6379 84.2496 44.672C84.2018 44.7061 84.1541 44.7385 84.1063 44.7692L83.871 44.4827ZM85.0374 45.4445C84.9283 45.4445 84.8157 45.4513 84.6998 45.465C84.5838 45.4752 84.4764 45.4974 84.3775 45.5315C84.2786 45.5656 84.195 45.6133 84.1268 45.6747C84.0586 45.7361 84.0177 45.8146 84.004 45.9101C83.9836 46.0499 84.016 46.1505 84.1012 46.2119C84.1865 46.2733 84.3093 46.304 84.4696 46.304C84.5958 46.304 84.7049 46.2835 84.797 46.2426C84.8925 46.1983 84.9726 46.142 85.0374 46.0738C85.1022 46.0056 85.1517 45.9305 85.1858 45.8487C85.2233 45.7634 85.2472 45.6799 85.2574 45.598L85.283 45.4445H85.0374Z" fill="#CC9933"/>
<path d="M87.7977 44.5851H87.1378L86.9843 45.685C86.9741 45.7532 86.9655 45.8214 86.9587 45.8896C86.9553 45.9544 86.9604 46.0141 86.9741 46.0687C86.9877 46.1198 87.015 46.1624 87.0559 46.1966C87.1003 46.2273 87.1668 46.2426 87.2554 46.2426C87.31 46.2426 87.3663 46.2375 87.4243 46.2273C87.4857 46.217 87.5419 46.1983 87.5931 46.171L87.5317 46.5905C87.501 46.6075 87.4652 46.6212 87.4243 46.6314C87.3867 46.6416 87.3475 46.6485 87.3066 46.6519C87.2691 46.6587 87.2316 46.6638 87.1941 46.6672C87.16 46.6706 87.131 46.6723 87.1071 46.6723C86.9297 46.6723 86.795 46.6485 86.7029 46.6007C86.6143 46.5496 86.5512 46.4848 86.5136 46.4063C86.4795 46.3279 86.4642 46.2409 86.4676 46.1454C86.4744 46.0465 86.4846 45.9476 86.4983 45.8487L86.6773 44.5851H86.1453L86.2016 44.186H86.7336L86.8308 43.5056H87.2913L87.1941 44.186H87.854L87.7977 44.5851Z" fill="#CC9933"/>
<path d="M88.6015 45.5673C88.5879 45.673 88.5981 45.7702 88.6322 45.8589C88.6663 45.9442 88.7158 46.0175 88.7806 46.0789C88.8488 46.1403 88.9289 46.188 89.021 46.2221C89.1165 46.2562 89.2171 46.2733 89.3229 46.2733C89.4661 46.2733 89.594 46.2409 89.7066 46.1761C89.8225 46.1079 89.9333 46.0192 90.0391 45.9101L90.346 46.1761C90.0459 46.5069 89.6656 46.6723 89.2052 46.6723C89.0142 46.6723 88.8454 46.6399 88.6987 46.5751C88.5555 46.5103 88.4378 46.4217 88.3457 46.3091C88.2536 46.1931 88.1888 46.0584 88.1513 45.905C88.1138 45.7481 88.1087 45.5792 88.136 45.3985C88.1598 45.2177 88.2144 45.0506 88.2997 44.8971C88.3849 44.7402 88.4907 44.6055 88.6169 44.493C88.7465 44.377 88.8914 44.2866 89.0517 44.2218C89.2154 44.157 89.3877 44.1246 89.5684 44.1246C89.7833 44.1246 89.9589 44.1621 90.0954 44.2372C90.2352 44.3122 90.3443 44.4111 90.4228 44.5339C90.5012 44.6533 90.5507 44.7897 90.5711 44.9432C90.5916 45.0932 90.5916 45.2467 90.5711 45.4036L90.5455 45.5673H88.6015ZM90.1056 45.199C90.1158 45.0966 90.1124 45.0029 90.0954 44.9176C90.0783 44.8323 90.0459 44.759 89.9982 44.6976C89.9504 44.6328 89.8856 44.5834 89.8037 44.5492C89.7219 44.5117 89.623 44.493 89.507 44.493C89.3945 44.493 89.2887 44.5151 89.1898 44.5595C89.0909 44.6004 89.0023 44.655 88.9238 44.7232C88.8488 44.7914 88.7874 44.8681 88.7396 44.9534C88.6919 45.0353 88.6629 45.1171 88.6527 45.199H90.1056Z" fill="#CC9933"/>
<path d="M91.3112 46.6416C91.2191 46.6416 91.1441 46.6092 91.0861 46.5444C91.0281 46.4762 91.006 46.3961 91.0196 46.304C91.0332 46.2119 91.0776 46.1335 91.1526 46.0687C91.2277 46.0005 91.3112 45.9663 91.4033 45.9663C91.4954 45.9663 91.5704 46.0005 91.6284 46.0687C91.6864 46.1335 91.7085 46.2119 91.6949 46.304C91.6813 46.3961 91.6369 46.4762 91.5619 46.5444C91.4869 46.6092 91.4033 46.6416 91.3112 46.6416Z" fill="#CC9933"/>
<path d="M94.4249 42.9889H95.6988C95.9307 42.9889 96.1166 43.0213 96.2564 43.0861C96.3997 43.1475 96.5071 43.2276 96.5787 43.3265C96.6538 43.422 96.6998 43.5312 96.7169 43.654C96.7339 43.7733 96.7339 43.8893 96.7169 44.0018C96.6998 44.1144 96.6657 44.2321 96.6145 44.3548C96.5668 44.4742 96.4918 44.5834 96.3894 44.6823C96.2871 44.7778 96.1558 44.8579 95.9955 44.9227C95.8386 44.9841 95.6442 45.0148 95.4123 45.0148H94.6296L94.4096 46.6109H93.9185L94.4249 42.9889ZM94.691 44.5851H95.3356C95.4311 44.5851 95.5266 44.5782 95.6221 44.5646C95.7176 44.5475 95.8045 44.5185 95.883 44.4776C95.9648 44.4367 96.033 44.3787 96.0876 44.3037C96.1422 44.2252 96.178 44.1246 96.195 44.0018C96.2121 43.8791 96.2036 43.7802 96.1695 43.7051C96.1353 43.6267 96.0842 43.567 96.016 43.5261C95.9512 43.4851 95.8727 43.4579 95.7806 43.4442C95.6886 43.4272 95.5948 43.4186 95.4993 43.4186H94.8547L94.691 44.5851Z" fill="#CC9933"/>
<path d="M97.171 44.186H97.6314L97.5803 44.5595H97.5905C97.669 44.4299 97.7815 44.3259 97.9282 44.2474C98.0748 44.1656 98.2249 44.1246 98.3784 44.1246C98.4534 44.1246 98.5199 44.1349 98.5779 44.1553L98.4858 44.6516C98.4483 44.6413 98.4108 44.6328 98.3732 44.626C98.3391 44.6192 98.3033 44.6158 98.2658 44.6158C98.0407 44.6158 97.8599 44.6788 97.7235 44.805C97.5871 44.9312 97.5001 45.1273 97.4626 45.3934L97.2938 46.6109H96.8334L97.171 44.186Z" fill="#CC9933"/>
<path d="M99.1792 45.3985C99.1621 45.5213 99.1638 45.6355 99.1843 45.7412C99.2082 45.8436 99.2491 45.9322 99.3071 46.0073C99.3651 46.0789 99.4401 46.1369 99.5322 46.1812C99.6277 46.2221 99.7368 46.2426 99.8596 46.2426C99.9824 46.2426 100.095 46.2221 100.197 46.1812C100.303 46.1369 100.395 46.0789 100.474 46.0073C100.552 45.9322 100.617 45.8436 100.668 45.7412C100.722 45.6355 100.758 45.5213 100.775 45.3985C100.792 45.2757 100.789 45.1632 100.765 45.0608C100.745 44.9551 100.704 44.8664 100.642 44.7948C100.584 44.7198 100.509 44.6618 100.417 44.6209C100.325 44.5765 100.218 44.5544 100.095 44.5544C99.9722 44.5544 99.8579 44.5765 99.7522 44.6209C99.6499 44.6618 99.5578 44.7198 99.4759 44.7948C99.3975 44.8664 99.3327 44.9551 99.2815 45.0608C99.2304 45.1632 99.1963 45.2757 99.1792 45.3985ZM98.6881 45.3985C98.7119 45.2211 98.7682 45.0557 98.8569 44.9022C98.9456 44.7488 99.0564 44.614 99.1894 44.4981C99.3224 44.3821 99.4708 44.2917 99.6345 44.2269C99.8016 44.1587 99.9756 44.1246 100.156 44.1246C100.337 44.1246 100.501 44.1587 100.647 44.2269C100.794 44.2917 100.917 44.3821 101.016 44.4981C101.118 44.614 101.191 44.7488 101.236 44.9022C101.28 45.0557 101.29 45.2211 101.266 45.3985C101.239 45.5758 101.181 45.743 101.093 45.8998C101.007 46.0533 100.898 46.188 100.765 46.304C100.632 46.4165 100.482 46.5069 100.315 46.5751C100.151 46.6399 99.979 46.6723 99.7982 46.6723C99.6175 46.6723 99.452 46.6399 99.302 46.5751C99.1553 46.5069 99.0325 46.4165 98.9336 46.304C98.8347 46.188 98.7614 46.0533 98.7136 45.8998C98.6693 45.743 98.6608 45.5758 98.6881 45.3985Z" fill="#CC9933"/>
<path d="M102.135 44.5851H101.613L101.669 44.186H102.191L102.268 43.6437C102.316 43.3197 102.411 43.0793 102.554 42.9224C102.701 42.7621 102.926 42.6819 103.23 42.6819C103.281 42.6819 103.334 42.6837 103.388 42.6871C103.446 42.6905 103.506 42.7007 103.567 42.7178L103.46 43.127C103.419 43.11 103.378 43.098 103.337 43.0912C103.296 43.0844 103.252 43.081 103.204 43.081C103.119 43.081 103.049 43.0946 102.994 43.1219C102.94 43.1458 102.895 43.1816 102.861 43.2293C102.827 43.2771 102.8 43.3351 102.779 43.4033C102.762 43.4681 102.747 43.5431 102.733 43.6284L102.657 44.186H103.204L103.148 44.5851H102.595L102.314 46.6109H101.854L102.135 44.5851Z" fill="#CC9933"/>
<path d="M103.869 45.5673C103.856 45.673 103.866 45.7702 103.9 45.8589C103.934 45.9442 103.983 46.0175 104.048 46.0789C104.116 46.1403 104.197 46.188 104.289 46.2221C104.384 46.2562 104.485 46.2733 104.591 46.2733C104.734 46.2733 104.862 46.2409 104.974 46.1761C105.09 46.1079 105.201 46.0192 105.307 45.9101L105.614 46.1761C105.314 46.5069 104.933 46.6723 104.473 46.6723C104.282 46.6723 104.113 46.6399 103.966 46.5751C103.823 46.5103 103.706 46.4217 103.613 46.3091C103.521 46.1931 103.457 46.0584 103.419 45.905C103.382 45.7481 103.376 45.5792 103.404 45.3985C103.428 45.2177 103.482 45.0506 103.567 44.8971C103.653 44.7402 103.758 44.6055 103.885 44.493C104.014 44.377 104.159 44.2866 104.319 44.2218C104.483 44.157 104.655 44.1246 104.836 44.1246C105.051 44.1246 105.227 44.1621 105.363 44.2372C105.503 44.3122 105.612 44.4111 105.69 44.5339C105.769 44.6533 105.818 44.7897 105.839 44.9432C105.859 45.0932 105.859 45.2467 105.839 45.4036L105.813 45.5673H103.869ZM105.373 45.199C105.384 45.0966 105.38 45.0029 105.363 44.9176C105.346 44.8323 105.314 44.759 105.266 44.6976C105.218 44.6328 105.153 44.5834 105.071 44.5492C104.99 44.5117 104.891 44.493 104.775 44.493C104.662 44.493 104.556 44.5151 104.458 44.5595C104.359 44.6004 104.27 44.655 104.192 44.7232C104.116 44.7914 104.055 44.8681 104.007 44.9534C103.96 45.0353 103.931 45.1171 103.92 45.199H105.373Z" fill="#CC9933"/>
<path d="M107.761 44.7948C107.716 44.7266 107.657 44.6703 107.582 44.626C107.51 44.5782 107.416 44.5544 107.3 44.5544C107.191 44.5544 107.092 44.5782 107.004 44.626C106.918 44.6703 106.871 44.7368 106.86 44.8255C106.85 44.8971 106.864 44.9551 106.901 44.9994C106.942 45.0438 106.992 45.0796 107.05 45.1069C107.111 45.1342 107.176 45.1546 107.244 45.1683C107.312 45.1819 107.372 45.1938 107.423 45.2041C107.519 45.228 107.607 45.2569 107.689 45.291C107.771 45.3252 107.839 45.3695 107.894 45.4241C107.952 45.4786 107.993 45.5451 108.016 45.6236C108.04 45.702 108.045 45.7975 108.032 45.9101C108.011 46.0465 107.965 46.1642 107.894 46.2631C107.825 46.3586 107.74 46.437 107.638 46.4984C107.536 46.5598 107.423 46.6041 107.3 46.6314C107.181 46.6587 107.062 46.6723 106.942 46.6723C106.741 46.6723 106.569 46.6416 106.425 46.5802C106.286 46.5189 106.166 46.4063 106.067 46.2426L106.451 45.9561C106.516 46.0311 106.591 46.0976 106.676 46.1556C106.761 46.2136 106.871 46.2426 107.004 46.2426C107.123 46.2426 107.237 46.2187 107.346 46.171C107.455 46.1198 107.519 46.0414 107.536 45.9356C107.546 45.8674 107.532 45.8112 107.495 45.7668C107.461 45.7225 107.415 45.6884 107.357 45.6645C107.302 45.6372 107.241 45.6168 107.172 45.6031C107.108 45.5861 107.051 45.5724 107.004 45.5622C106.908 45.5383 106.818 45.511 106.732 45.4803C106.647 45.4496 106.574 45.4087 106.512 45.3576C106.451 45.3064 106.405 45.2416 106.374 45.1632C106.347 45.0847 106.342 44.9875 106.359 44.8715C106.376 44.7454 106.417 44.6362 106.482 44.5441C106.55 44.4486 106.632 44.3702 106.727 44.3088C106.823 44.2474 106.929 44.2014 107.044 44.1707C107.16 44.14 107.275 44.1246 107.387 44.1246C107.551 44.1246 107.703 44.1553 107.843 44.2167C107.986 44.2781 108.092 44.3804 108.16 44.5237L107.761 44.7948Z" fill="#CC9933"/>
<path d="M110.034 44.7948C109.99 44.7266 109.93 44.6703 109.855 44.626C109.783 44.5782 109.689 44.5544 109.573 44.5544C109.464 44.5544 109.365 44.5782 109.277 44.626C109.191 44.6703 109.144 44.7368 109.133 44.8255C109.123 44.8971 109.137 44.9551 109.174 44.9994C109.215 45.0438 109.265 45.0796 109.323 45.1069C109.384 45.1342 109.449 45.1546 109.517 45.1683C109.585 45.1819 109.645 45.1938 109.696 45.2041C109.792 45.228 109.88 45.2569 109.962 45.291C110.044 45.3252 110.112 45.3695 110.167 45.4241C110.225 45.4786 110.266 45.5451 110.29 45.6236C110.314 45.702 110.319 45.7975 110.305 45.9101C110.285 46.0465 110.238 46.1642 110.167 46.2631C110.099 46.3586 110.013 46.437 109.911 46.4984C109.809 46.5598 109.696 46.6041 109.573 46.6314C109.454 46.6587 109.335 46.6723 109.215 46.6723C109.014 46.6723 108.842 46.6416 108.699 46.5802C108.559 46.5189 108.439 46.4063 108.34 46.2426L108.724 45.9561C108.789 46.0311 108.864 46.0976 108.949 46.1556C109.035 46.2136 109.144 46.2426 109.277 46.2426C109.396 46.2426 109.51 46.2187 109.619 46.171C109.729 46.1198 109.792 46.0414 109.809 45.9356C109.819 45.8674 109.805 45.8112 109.768 45.7668C109.734 45.7225 109.688 45.6884 109.63 45.6645C109.575 45.6372 109.514 45.6168 109.446 45.6031C109.381 45.5861 109.324 45.5724 109.277 45.5622C109.181 45.5383 109.091 45.511 109.006 45.4803C108.92 45.4496 108.847 45.4087 108.786 45.3576C108.724 45.3064 108.678 45.2416 108.647 45.1632C108.62 45.0847 108.615 44.9875 108.632 44.8715C108.649 44.7454 108.69 44.6362 108.755 44.5441C108.823 44.4486 108.905 44.3702 109 44.3088C109.096 44.2474 109.202 44.2014 109.318 44.1707C109.434 44.14 109.548 44.1246 109.66 44.1246C109.824 44.1246 109.976 44.1553 110.116 44.2167C110.259 44.2781 110.365 44.3804 110.433 44.5237L110.034 44.7948Z" fill="#CC9933"/>
<path d="M111.141 44.186H111.601L111.263 46.6109H110.803L111.141 44.186ZM111.156 43.3163C111.17 43.2242 111.214 43.1458 111.289 43.081C111.364 43.0128 111.448 42.9787 111.54 42.9787C111.632 42.9787 111.707 43.0128 111.765 43.081C111.823 43.1458 111.845 43.2242 111.831 43.3163C111.818 43.4084 111.773 43.4886 111.698 43.5568C111.623 43.6216 111.54 43.654 111.448 43.654C111.355 43.654 111.28 43.6216 111.222 43.5568C111.164 43.4886 111.142 43.4084 111.156 43.3163Z" fill="#CC9933"/>
<path d="M112.538 45.3985C112.521 45.5213 112.523 45.6355 112.544 45.7412C112.567 45.8436 112.608 45.9322 112.666 46.0073C112.724 46.0789 112.799 46.1369 112.891 46.1812C112.987 46.2221 113.096 46.2426 113.219 46.2426C113.342 46.2426 113.454 46.2221 113.556 46.1812C113.662 46.1369 113.754 46.0789 113.833 46.0073C113.911 45.9322 113.976 45.8436 114.027 45.7412C114.082 45.6355 114.118 45.5213 114.135 45.3985C114.152 45.2757 114.148 45.1632 114.124 45.0608C114.104 44.9551 114.063 44.8664 114.002 44.7948C113.944 44.7198 113.869 44.6618 113.776 44.6209C113.684 44.5765 113.577 44.5544 113.454 44.5544C113.331 44.5544 113.217 44.5765 113.111 44.6209C113.009 44.6618 112.917 44.7198 112.835 44.7948C112.757 44.8664 112.692 44.9551 112.641 45.0608C112.59 45.1632 112.555 45.2757 112.538 45.3985ZM112.047 45.3985C112.071 45.2211 112.127 45.0557 112.216 44.9022C112.305 44.7488 112.416 44.614 112.549 44.4981C112.682 44.3821 112.83 44.2917 112.994 44.2269C113.161 44.1587 113.335 44.1246 113.516 44.1246C113.696 44.1246 113.86 44.1587 114.007 44.2269C114.153 44.2917 114.276 44.3821 114.375 44.4981C114.477 44.614 114.551 44.7488 114.595 44.9022C114.639 45.0557 114.65 45.2211 114.626 45.3985C114.598 45.5758 114.54 45.743 114.452 45.8998C114.367 46.0533 114.257 46.188 114.124 46.304C113.991 46.4165 113.841 46.5069 113.674 46.5751C113.51 46.6399 113.338 46.6723 113.157 46.6723C112.977 46.6723 112.811 46.6399 112.661 46.5751C112.515 46.5069 112.392 46.4165 112.293 46.304C112.194 46.188 112.121 46.0533 112.073 45.8998C112.029 45.743 112.02 45.5758 112.047 45.3985Z" fill="#CC9933"/>
<path d="M115.371 44.186H115.832L115.781 44.5595H115.791C115.869 44.4299 115.985 44.3259 116.139 44.2474C116.292 44.1656 116.463 44.1246 116.65 44.1246C116.766 44.1246 116.875 44.1434 116.978 44.1809C117.08 44.215 117.165 44.2696 117.234 44.3446C117.305 44.4196 117.356 44.5168 117.387 44.6362C117.418 44.7522 117.421 44.8903 117.397 45.0506L117.182 46.6109H116.722L116.921 45.1785C116.935 45.0659 116.932 44.9705 116.911 44.892C116.894 44.8102 116.863 44.7454 116.819 44.6976C116.778 44.6464 116.725 44.6106 116.661 44.5902C116.596 44.5663 116.528 44.5544 116.456 44.5544C116.36 44.5544 116.268 44.5697 116.18 44.6004C116.094 44.6311 116.016 44.6806 115.944 44.7488C115.876 44.8136 115.818 44.8971 115.77 44.9994C115.723 45.1018 115.689 45.2228 115.668 45.3627L115.494 46.6109H115.034L115.371 44.186Z" fill="#CC9933"/>
<path d="M118.183 44.4827C118.33 44.3634 118.492 44.2747 118.669 44.2167C118.85 44.1553 119.026 44.1246 119.196 44.1246C119.374 44.1246 119.524 44.1468 119.647 44.1911C119.769 44.2355 119.866 44.2952 119.938 44.3702C120.01 44.4452 120.057 44.5322 120.081 44.6311C120.105 44.7266 120.11 44.8272 120.097 44.9329L119.923 46.171C119.909 46.2562 119.899 46.3347 119.892 46.4063C119.885 46.4779 119.882 46.5461 119.882 46.6109H119.473C119.476 46.5496 119.479 46.4882 119.483 46.4268C119.49 46.3654 119.498 46.304 119.508 46.2426H119.498C119.372 46.3995 119.234 46.5103 119.084 46.5751C118.937 46.6399 118.772 46.6723 118.588 46.6723C118.475 46.6723 118.369 46.657 118.27 46.6263C118.175 46.5956 118.093 46.5496 118.025 46.4882C117.957 46.4268 117.905 46.3517 117.871 46.2631C117.841 46.171 117.834 46.0653 117.851 45.9459C117.871 45.789 117.924 45.6577 118.009 45.552C118.095 45.4462 118.202 45.361 118.332 45.2962C118.465 45.228 118.613 45.1802 118.777 45.1529C118.944 45.1222 119.12 45.1069 119.304 45.1069H119.641L119.657 45.0046C119.667 44.9432 119.664 44.8818 119.647 44.8204C119.633 44.759 119.606 44.7044 119.565 44.6567C119.524 44.6055 119.469 44.5663 119.401 44.539C119.333 44.5083 119.249 44.493 119.15 44.493C119.062 44.493 118.981 44.5015 118.91 44.5185C118.842 44.5356 118.779 44.5578 118.721 44.5851C118.666 44.6089 118.613 44.6379 118.562 44.672C118.514 44.7061 118.466 44.7385 118.419 44.7692L118.183 44.4827ZM119.35 45.4445C119.241 45.4445 119.128 45.4513 119.012 45.465C118.896 45.4752 118.789 45.4974 118.69 45.5315C118.591 45.5656 118.507 45.6133 118.439 45.6747C118.371 45.7361 118.33 45.8146 118.316 45.9101C118.296 46.0499 118.328 46.1505 118.414 46.2119C118.499 46.2733 118.622 46.304 118.782 46.304C118.908 46.304 119.017 46.2835 119.109 46.2426C119.205 46.1983 119.285 46.142 119.35 46.0738C119.415 46.0056 119.464 45.9305 119.498 45.8487C119.536 45.7634 119.56 45.6799 119.57 45.598L119.595 45.4445H119.35Z" fill="#CC9933"/>
<path d="M121.107 42.7433H121.568L121.026 46.6109H120.565L121.107 42.7433Z" fill="#CC9933"/>
<path d="M122.116 46.6416C122.024 46.6416 121.949 46.6092 121.891 46.5444C121.833 46.4762 121.811 46.3961 121.825 46.304C121.838 46.2119 121.883 46.1335 121.958 46.0687C122.033 46.0005 122.116 45.9663 122.208 45.9663C122.301 45.9663 122.376 46.0005 122.434 46.0687C122.492 46.1335 122.514 46.2119 122.5 46.304C122.486 46.3961 122.442 46.4762 122.367 46.5444C122.292 46.6092 122.208 46.6416 122.116 46.6416Z" fill="#CC9933"/>
<path d="M125.23 42.9889H127.568L127.502 43.4493H125.655L125.506 44.5288H127.225L127.159 44.9892H125.44L125.276 46.1505H127.215L127.154 46.6109H124.724L125.23 42.9889Z" fill="#CC9933"/>
<path d="M128.194 44.5851H127.672L127.728 44.186H128.25L128.327 43.6437C128.375 43.3197 128.47 43.0793 128.613 42.9224C128.76 42.7621 128.985 42.6819 129.289 42.6819C129.34 42.6819 129.393 42.6837 129.447 42.6871C129.505 42.6905 129.565 42.7007 129.626 42.7178L129.519 43.127C129.478 43.11 129.437 43.098 129.396 43.0912C129.355 43.0844 129.311 43.081 129.263 43.081C129.178 43.081 129.108 43.0946 129.053 43.1219C128.999 43.1458 128.954 43.1816 128.92 43.2293C128.886 43.2771 128.859 43.3351 128.839 43.4033C128.821 43.4681 128.806 43.5431 128.792 43.6284L128.716 44.186H129.263L129.207 44.5851H128.654L128.373 46.6109H127.913L128.194 44.5851Z" fill="#CC9933"/>
<path d="M129.808 44.5851H129.286L129.342 44.186H129.864L129.941 43.6437C129.988 43.3197 130.084 43.0793 130.227 42.9224C130.374 42.7621 130.599 42.6819 130.902 42.6819C130.954 42.6819 131.006 42.6837 131.061 42.6871C131.119 42.6905 131.179 42.7007 131.24 42.7178L131.133 43.127C131.092 43.11 131.051 43.098 131.01 43.0912C130.969 43.0844 130.925 43.081 130.877 43.081C130.792 43.081 130.722 43.0946 130.667 43.1219C130.613 43.1458 130.568 43.1816 130.534 43.2293C130.5 43.2771 130.473 43.3351 130.452 43.4033C130.435 43.4681 130.42 43.5431 130.406 43.6284L130.329 44.186H130.877L130.821 44.5851H130.268L129.987 46.6109H129.526L129.808 44.5851Z" fill="#CC9933"/>
<path d="M131.424 44.186H131.885L131.547 46.6109H131.087L131.424 44.186ZM131.44 43.3163C131.453 43.2242 131.498 43.1458 131.573 43.081C131.648 43.0128 131.731 42.9787 131.823 42.9787C131.915 42.9787 131.99 43.0128 132.048 43.081C132.106 43.1458 132.129 43.2242 132.115 43.3163C132.101 43.4084 132.057 43.4886 131.982 43.5568C131.907 43.6216 131.823 43.654 131.731 43.654C131.639 43.654 131.564 43.6216 131.506 43.5568C131.448 43.4886 131.426 43.4084 131.44 43.3163Z" fill="#CC9933"/>
<path d="M134.26 44.8306C134.188 44.7419 134.108 44.6754 134.019 44.6311C133.934 44.5834 133.827 44.5595 133.697 44.5595C133.571 44.5595 133.456 44.5834 133.354 44.6311C133.255 44.6754 133.168 44.7385 133.093 44.8204C133.018 44.8988 132.957 44.9909 132.909 45.0966C132.865 45.199 132.834 45.3064 132.817 45.4189C132.8 45.5315 132.803 45.6389 132.827 45.7412C132.851 45.8401 132.892 45.9271 132.95 46.0022C133.008 46.0772 133.081 46.1369 133.17 46.1812C133.262 46.2221 133.368 46.2426 133.487 46.2426C133.617 46.2426 133.731 46.2204 133.83 46.1761C133.929 46.1283 134.023 46.0601 134.111 45.9715L134.393 46.2989C134.253 46.4319 134.099 46.5274 133.932 46.5854C133.769 46.6433 133.598 46.6723 133.421 46.6723C133.233 46.6723 133.066 46.6416 132.919 46.5802C132.773 46.5189 132.652 46.4336 132.556 46.3245C132.461 46.2119 132.392 46.0789 132.351 45.9254C132.311 45.7685 132.304 45.5963 132.331 45.4087C132.355 45.2211 132.408 45.0489 132.49 44.892C132.575 44.7351 132.681 44.6004 132.807 44.4879C132.936 44.3753 133.083 44.2883 133.247 44.2269C133.41 44.1621 133.588 44.1297 133.779 44.1297C133.956 44.1297 134.12 44.1621 134.27 44.2269C134.423 44.2883 134.551 44.3838 134.654 44.5134L134.26 44.8306Z" fill="#CC9933"/>
<path d="M135.121 44.186H135.582L135.244 46.6109H134.784L135.121 44.186ZM135.137 43.3163C135.15 43.2242 135.195 43.1458 135.27 43.081C135.345 43.0128 135.428 42.9787 135.52 42.9787C135.612 42.9787 135.687 43.0128 135.745 43.081C135.803 43.1458 135.826 43.2242 135.812 43.3163C135.798 43.4084 135.754 43.4886 135.679 43.5568C135.604 43.6216 135.52 43.654 135.428 43.654C135.336 43.654 135.261 43.6216 135.203 43.5568C135.145 43.4886 135.123 43.4084 135.137 43.3163Z" fill="#CC9933"/>
<path d="M136.468 45.5673C136.454 45.673 136.465 45.7702 136.499 45.8589C136.533 45.9442 136.582 46.0175 136.647 46.0789C136.715 46.1403 136.795 46.188 136.887 46.2221C136.983 46.2562 137.084 46.2733 137.189 46.2733C137.333 46.2733 137.46 46.2409 137.573 46.1761C137.689 46.1079 137.8 46.0192 137.906 45.9101L138.212 46.1761C137.912 46.5069 137.532 46.6723 137.072 46.6723C136.881 46.6723 136.712 46.6399 136.565 46.5751C136.422 46.5103 136.304 46.4217 136.212 46.3091C136.12 46.1931 136.055 46.0584 136.018 45.905C135.98 45.7481 135.975 45.5792 136.002 45.3985C136.026 45.2177 136.081 45.0506 136.166 44.8971C136.251 44.7402 136.357 44.6055 136.483 44.493C136.613 44.377 136.758 44.2866 136.918 44.2218C137.082 44.157 137.254 44.1246 137.435 44.1246C137.65 44.1246 137.825 44.1621 137.962 44.2372C138.102 44.3122 138.211 44.4111 138.289 44.5339C138.368 44.6533 138.417 44.7897 138.438 44.9432C138.458 45.0932 138.458 45.2467 138.438 45.4036L138.412 45.5673H136.468ZM137.972 45.199C137.982 45.0966 137.979 45.0029 137.962 44.9176C137.945 44.8323 137.912 44.759 137.865 44.6976C137.817 44.6328 137.752 44.5834 137.67 44.5492C137.588 44.5117 137.489 44.493 137.373 44.493C137.261 44.493 137.155 44.5151 137.056 44.5595C136.957 44.6004 136.869 44.655 136.79 44.7232C136.715 44.7914 136.654 44.8681 136.606 44.9534C136.558 45.0353 136.529 45.1171 136.519 45.199H137.972Z" fill="#CC9933"/>
<path d="M139.157 44.186H139.618L139.566 44.5595H139.577C139.655 44.4299 139.771 44.3259 139.925 44.2474C140.078 44.1656 140.249 44.1246 140.436 44.1246C140.552 44.1246 140.661 44.1434 140.764 44.1809C140.866 44.215 140.951 44.2696 141.019 44.3446C141.091 44.4196 141.142 44.5168 141.173 44.6362C141.204 44.7522 141.207 44.8903 141.183 45.0506L140.968 46.6109H140.508L140.707 45.1785C140.721 45.0659 140.718 44.9705 140.697 44.892C140.68 44.8102 140.649 44.7454 140.605 44.6976C140.564 44.6464 140.511 44.6106 140.446 44.5902C140.382 44.5663 140.313 44.5544 140.242 44.5544C140.146 44.5544 140.054 44.5697 139.965 44.6004C139.88 44.6311 139.802 44.6806 139.73 44.7488C139.662 44.8136 139.604 44.8971 139.556 44.9994C139.508 45.1018 139.474 45.2228 139.454 45.3627L139.28 46.6109H138.82L139.157 44.186Z" fill="#CC9933"/>
<path d="M143.243 44.5851H142.583L142.43 45.685C142.419 45.7532 142.411 45.8214 142.404 45.8896C142.401 45.9544 142.406 46.0141 142.419 46.0687C142.433 46.1198 142.46 46.1624 142.501 46.1966C142.546 46.2273 142.612 46.2426 142.701 46.2426C142.755 46.2426 142.812 46.2375 142.87 46.2273C142.931 46.217 142.987 46.1983 143.038 46.171L142.977 46.5905C142.946 46.6075 142.911 46.6212 142.87 46.6314C142.832 46.6416 142.793 46.6485 142.752 46.6519C142.714 46.6587 142.677 46.6638 142.639 46.6672C142.605 46.6706 142.576 46.6723 142.552 46.6723C142.375 46.6723 142.24 46.6485 142.148 46.6007C142.06 46.5496 141.996 46.4848 141.959 46.4063C141.925 46.3279 141.91 46.2409 141.913 46.1454C141.92 46.0465 141.93 45.9476 141.944 45.8487L142.123 44.5851H141.591L141.647 44.186H142.179L142.276 43.5056H142.737L142.639 44.186H143.299L143.243 44.5851Z" fill="#CC9933"/>
<path d="M143.914 46.6416C143.822 46.6416 143.747 46.6092 143.689 46.5444C143.631 46.4762 143.609 46.3961 143.622 46.304C143.636 46.2119 143.68 46.1335 143.755 46.0687C143.83 46.0005 143.914 45.9663 144.006 45.9663C144.098 45.9663 144.173 46.0005 144.231 46.0687C144.289 46.1335 144.311 46.2119 144.298 46.304C144.284 46.3961 144.24 46.4762 144.165 46.5444C144.089 46.6092 144.006 46.6416 143.914 46.6416Z" fill="#CC9933"/>
</svg>
