<svg width="171" height="180" viewBox="0 0 171 180" fill="none" xmlns="http://www.w3.org/2000/svg">
<g clip-path="url(#clip0_190_1144)">
<path fill-rule="evenodd" clip-rule="evenodd" d="M76.2763 163.056C75.9456 165.469 76.3071 169.011 76.307 171.487L76.4228 174.06C76.4253 175.796 76.5237 175.005 76.195 176.416H75.971C75.7088 175.291 75.1964 175.382 74.8936 174.693C74.4968 173.79 74.24 173.769 73.8788 173.019C73.6605 172.566 73.6932 172.542 73.352 172.202C72.8389 171.691 73.7116 172.627 73.2367 172.093L72.3216 170.544C72.0997 170.226 72.0585 169.993 71.8944 169.627C71.6835 169.158 71.5882 169.263 71.3391 168.839C71.142 168.503 71.0863 168.208 70.9272 167.906C70.4519 167.005 70.8493 168.155 69.9919 166.153C69.7817 165.662 69.6336 165.769 69.4164 165.385C69.2635 165.114 69.1967 164.709 69.0632 164.394C68.8401 163.865 68.7404 163.967 68.5112 163.602C68.3411 163.331 68.2961 162.946 68.1773 162.591C67.9682 161.966 67.9659 162.169 67.6631 161.762C67.2939 161.265 67.2471 160.389 66.8655 159.871C66.5913 159.498 66.5786 159.444 66.4348 158.958C66.0301 157.59 65.8416 157.808 65.6006 157.104C65.4731 156.731 65.4407 156.336 65.348 156.012C65.1739 155.401 65.1136 155.526 64.8878 155.128C64.5647 154.559 64.5266 153.723 64.2467 153.081C63.9091 152.308 63.7022 151.999 63.5548 151.085C63.3959 150.101 63.049 149.92 62.8216 149.13C62.6019 148.367 62.6313 147.641 62.3802 146.883C62.1067 146.058 61.8494 145.644 61.7254 144.738C61.4097 142.433 61.0673 142.307 60.7826 140.304C60.6588 139.433 60.6589 138.637 60.5319 137.867C60.3942 137.031 60.1967 136.537 60.0482 135.662C59.9311 134.974 59.8368 134.012 59.8411 133.181C59.8503 131.39 59.7231 129.808 59.7301 127.916C59.7337 126.919 59.6187 126.359 59.6172 125.34L59.9537 117.612C60.0547 115.958 60.5157 114.554 60.7079 112.99C60.8221 112.062 60.8061 111.429 60.9871 110.581C61.1427 109.85 61.5219 109.311 61.5219 108.427C61.5219 107.387 60.5139 106.653 60.5139 104.843C60.5139 103.57 61.3749 102.709 61.6816 101.643C61.9218 100.808 62.3789 100.47 62.6285 99.6773C62.8902 98.8466 63.3089 98.5634 63.5925 97.7292C63.7623 97.2295 63.874 97.2024 63.874 96.5545C64.6587 96.5545 65.1803 96.5653 65.8046 97.088C66.2999 97.5026 67.0017 97.6943 67.7041 98.2127C68.1916 98.5726 68.6013 98.4679 69.0553 98.8775C69.5237 99.3001 69.4397 99.2644 70.1184 99.4944C70.5866 99.6531 70.3805 99.4881 70.7355 99.7734C71.4214 100.325 71.6598 100.265 72.332 100.641C72.8232 100.916 72.5811 101 73.3453 101.308L74.4113 101.922C74.9267 102.338 75.0352 102.157 75.5505 102.463C75.9628 102.707 76.0984 102.982 76.5429 103.151C77.7186 103.597 77.3883 103.682 78.7868 104.267C79.2893 104.477 79.2269 104.704 79.7769 104.957C80.5752 105.323 80.7405 105.24 81.2362 105.962C81.3699 106.156 81.4406 106.216 81.5711 106.411C81.2921 106.827 81.3046 106.867 81.0786 107.374C80.9035 107.768 80.6824 107.891 80.4678 108.22C80.1936 108.639 80.2463 108.862 80.0392 109.247C79.7842 109.721 79.7589 109.381 79.4373 109.989C79.1556 110.522 79.0408 110.916 78.6693 111.349C78.3173 111.76 78.2701 112.269 77.9013 112.71C77.5897 113.082 77.6011 113.077 77.4117 113.564C77.1075 114.346 76.7734 114.382 76.39 115.342C76.1336 115.985 76.1144 115.737 75.7914 116.2C75.5648 116.525 75.5546 116.776 75.3769 117.13C75.1463 117.588 75.0017 117.524 74.7717 117.98C74.5921 118.337 74.5941 118.633 74.372 118.925C73.9882 119.428 73.9677 119.043 73.8138 119.83C73.754 120.136 73.5493 120.747 74.0666 120.747C74.5267 120.747 74.5771 120.278 74.7442 119.969C75.0315 119.437 75.4951 119.313 75.8096 118.794C76.0028 118.475 76.2863 118.313 76.5231 118.051C76.8237 117.719 76.817 117.521 77.1813 117.254C77.5427 116.988 77.2638 117.309 77.5328 116.933L78.9537 115.442C79.3427 115.218 79.536 115.161 79.891 114.923L81.4428 116.955C82.1252 117.852 82.0648 117.509 81.5262 119.022C81.069 120.307 81.2198 122.125 80.8013 123.338C80.1446 125.239 80.276 127.11 79.6524 129.021C79.2365 130.295 79.2898 132.172 79.0449 133.566C78.9419 134.152 78.803 134.43 78.6791 134.88C78.1851 136.67 78.3875 139.028 77.9206 140.842C77.6792 141.78 77.5945 142.839 77.4576 143.851C77.2756 145.196 77.3115 147.035 77.0873 148.633C77.0141 149.154 76.9074 149.454 76.8158 150.042C76.5497 151.749 76.5842 153.259 76.5348 154.913C76.5169 155.508 76.4135 155.756 76.4175 156.476L76.3063 159.725C76.2506 160.756 76.411 162.073 76.2763 163.055V163.056ZM50.2093 34.7275C50.2093 35.2886 50.2091 35.8491 50.2068 36.4102C50.2038 37.127 50.3179 37.3242 50.3259 37.9712C50.3454 39.5448 50.1303 41.3082 50.7046 42.7447C50.9282 43.3038 50.9862 43.5316 51.0913 44.1502C51.2449 45.0546 51.4415 46.3372 51.4415 47.2721C51.4415 47.5542 51.1495 47.748 50.9479 47.8986C50.2354 48.4311 49.6174 48.924 49.203 49.7379C48.9008 50.3317 48.5404 50.4896 48.4175 51.3047C48.1709 52.9422 48.1186 55.0349 48.4985 56.5994C48.6474 57.2122 48.8322 57.2477 49.0447 57.7334C49.2513 58.2052 49.2734 58.6539 49.4662 59.1039C49.6797 59.6021 49.8816 59.525 50.1323 60.1179C50.433 60.8287 50.3158 60.7039 50.7965 61.2458C51.1544 61.6492 51.1045 61.8769 51.5242 62.3101C51.8338 62.6296 52.0794 62.959 52.3348 63.2916C52.6542 63.7073 53.7302 64.6639 54.2034 64.8953C54.6132 65.0956 54.8118 65.3774 55.19 65.5886C56.4082 66.2692 57.3612 65.4095 57.8087 68.2342C57.9864 69.3549 58.4609 69.856 58.6422 70.9851C58.7021 71.3572 58.7791 71.9791 58.9015 72.4058C59.0772 73.0178 59.2916 72.977 59.461 73.6386C59.6576 74.407 59.6233 75.0833 59.8907 75.785C60.2164 76.6393 60.3117 76.3955 60.5604 77.6913C60.7626 78.7449 61.2581 79.333 61.4747 80.3614C61.7108 81.4826 62.1443 81.7735 62.4403 82.8679C62.6214 83.5376 62.6871 83.5286 63.0428 84.0576C63.3258 84.4784 63.318 84.8388 63.5562 85.2241C63.6064 85.3051 63.6968 85.4093 63.7545 85.4739L63.9193 85.6451C64.3364 86.1447 64.5087 86.7241 65.0228 87.2297C66.0873 88.2767 65.8919 88.1282 66.4874 89.3493C67.241 90.8945 66.8986 93.2449 66.2312 94.6556C65.6313 95.9235 64.8179 95.2912 63.9098 96.0305C63.523 96.3453 63.838 96.2576 63.312 96.3288C62.0942 96.4932 62.3941 96.6882 61.4354 97.2522C61.2024 97.3892 61.0244 97.4266 60.8358 97.5488C60.6379 97.6769 60.5528 97.8254 60.3778 97.9868C60.0244 98.3127 59.6322 98.3439 59.2028 98.7159L58.142 99.4473C57.9497 99.5905 57.865 99.7299 57.6891 99.8903C57.3475 100.202 57.4416 100.052 57.0627 100.272C56.568 100.56 56.5873 100.806 56.0742 101.076C55.4831 101.386 55.4454 101.534 54.9803 101.886C54.7865 102.032 54.6231 102.111 54.4403 102.242L53.4612 103.055C53.0326 103.326 52.9139 103.623 52.4251 103.923L49.0052 106.999C48.0585 107.945 47.3752 109.093 46.0805 109.563C45.3992 109.81 45.4491 110.038 44.9019 110.289C44.1284 110.643 44.0389 110.572 43.3062 111.045C43.2859 111.058 43.2584 111.076 43.2373 111.088C42.4878 111.529 41.8494 111.437 41.102 111.977C40.6903 112.275 40.151 112.32 39.6554 112.434C38.4724 112.708 38.9718 112.96 36.9062 113.382C35.786 113.61 35.846 113.963 34.0796 114.251C33.5418 114.339 33.0998 114.408 32.6448 114.608C32.3982 114.717 32.3846 114.761 32.0272 114.887C30.7577 115.332 30.0306 115.061 28.288 115.74C27.16 116.18 25.6124 115.992 24.4164 116.461C24.1088 116.581 24.1183 116.619 23.7783 116.718C22.8014 117.005 21.5425 116.996 20.6219 117.258C20.0621 117.417 19.7991 117.647 19.2497 117.79C18.7302 117.925 18.1979 117.953 17.7147 118.047C16.5271 118.278 16.5452 118.625 14.9341 118.963C14.0747 119.143 14.2712 119.279 13.6618 119.595C13.2214 119.823 12.7064 119.829 12.3277 120.053C11.7707 120.382 11.941 120.46 11.1657 120.795C10.6123 121.033 10.5239 121.253 10.1285 121.55L9.07621 122.401C8.63888 122.866 8.58116 122.697 8.18421 123.301C7.86693 123.785 7.60458 123.877 7.34356 124.365C7.04773 124.917 7.13694 125.053 6.72476 125.538C6.26969 126.074 6.36817 126.197 6.19411 126.912C5.90066 128.117 5.4775 128.089 5.40734 129.821C5.363 130.914 5.25976 132.167 5.17425 133.284C5.08557 134.442 4.79066 135.435 4.65446 136.461C4.37954 138.531 4.5389 141.113 3.93824 143.137C3.39938 144.952 3.69045 147.69 3.08489 149.564C2.4371 151.57 2.66847 153.915 2.0322 155.904C1.7038 156.93 1.71055 157.877 1.58176 159.15C1.44133 160.536 1.16151 160.958 0.912532 162.177C0.709221 163.172 0.697044 164.5 0.510808 165.471C0.0996855 167.614 -0.431094 167.694 0.58824 169.697C0.865675 170.242 1.08421 170.31 1.50301 170.686C1.90844 171.051 1.93028 171.225 2.49229 171.489C3.23353 171.839 3.10315 171.859 3.65895 172.227C4.03605 172.476 4.54261 172.487 4.99649 172.681C5.59954 172.94 5.48147 173.117 6.26056 173.321C6.81291 173.466 7.19002 173.48 7.68215 173.692C8.95231 174.237 9.27793 174.203 10.5617 174.508L11.9721 175.002C12.9784 175.304 14.1884 175.233 15.1407 175.53C15.5795 175.666 16.0159 175.854 16.5008 175.962C18.0865 176.314 19.9197 176.247 21.3847 176.678C22.5691 177.026 23.3053 176.959 24.655 177.104L29.3902 177.745C32.2465 178.234 35.1226 177.949 37.9862 178.445C43.0156 179.318 48.0444 178.777 51.92 179.296C54.1089 179.59 58.4077 179.783 60.6261 179.775C61.4029 179.772 61.7887 179.872 62.4142 179.891C63.6202 179.927 64.8996 179.887 66.1142 179.887L87.0593 179.999C89.2311 179.999 91.0994 179.887 93.3317 179.887C95.0163 179.887 98.0528 180.065 99.5735 179.857C101.491 179.594 103.738 179.825 105.758 179.657C109.444 179.352 114.04 178.991 117.749 178.991C119.335 178.991 122.269 178.914 123.734 178.704C124.276 178.626 124.631 178.612 125.125 178.527C128.54 177.941 132.125 178.232 135.415 177.728C137.161 177.46 139.299 177.077 141.156 177.085C143.457 177.095 144.722 176.417 146.646 176.303C147.945 176.226 149.58 176.242 150.853 175.805C152.207 175.34 153.568 175.358 155.004 175.14C156.039 174.982 156.431 174.599 157.444 174.444C158.383 174.3 159.379 174.308 160.123 173.987C162.332 173.035 162.377 173.651 163.806 172.853C164.463 172.487 165.553 172.465 166.137 172.048C166.639 171.69 166.493 171.76 167.188 171.531C167.744 171.347 167.805 171.3 168.18 170.955C168.793 170.39 168.765 170.7 169.47 169.892C170.277 168.966 170.28 169.045 170.28 167.678C170.28 165.834 170.008 165.339 169.605 163.762C169.317 162.635 169.336 160.782 168.935 159.839C168.464 158.733 168.463 157.235 168.18 156.002C168.02 155.307 167.752 154.924 167.621 154.209C167.383 152.912 167.315 151.591 166.875 150.363C166.65 149.736 166.621 149.112 166.518 148.367C166.365 147.268 166.345 146.379 165.992 145.421C165.422 143.873 165.598 141.983 165.288 140.3C165.149 139.541 164.981 139.207 164.853 138.383C164.548 136.41 164.668 134.058 164.164 132.128C163.969 131.381 163.953 130.902 163.887 130.053C163.844 129.495 163.809 128.486 163.721 127.867C163.591 126.962 163.704 126.738 163.289 126.058C162.677 125.057 163.136 125.195 162.102 123.774C161.907 123.506 161.818 123.226 161.653 122.99C161.436 122.678 161.33 122.749 161.034 122.489C160.778 122.264 160.759 122.083 160.444 121.847L159.121 120.93C158.783 120.744 158.61 120.773 158.294 120.637C157.888 120.464 157.919 120.353 157.552 120.147C157.11 119.898 156.193 119.787 155.693 119.654C154.958 119.457 154.83 119.199 153.961 119.034C152.767 118.807 151.188 118.791 149.994 118.408C148.28 117.859 145.62 118.062 143.716 117.742C142.975 117.617 142.47 117.421 141.8 117.306C140.171 117.025 138.275 117.116 136.787 116.494C136.528 116.386 136.248 116.315 135.92 116.241C135.326 116.108 134.528 116.084 133.896 115.913C133.221 115.731 132.976 115.41 132.211 115.246C131.368 115.066 131.117 115.11 130.428 114.677C129.785 114.274 129.508 114.347 128.789 114.075C128.184 113.847 128.029 113.489 127.256 113.256C126.848 113.133 126.757 113.188 126.455 112.938C125.531 112.173 125.671 112.485 125.027 112.013C124.719 111.788 124.708 111.677 124.322 111.486C123.877 111.267 123.96 111.424 123.597 111.091C123.178 110.707 122.786 110.44 122.491 109.957C122.175 109.441 122.227 109.704 121.868 109.349C121.616 109.101 121.655 108.999 121.362 108.734C120.993 108.399 121.075 108.595 120.725 108.139C120.468 107.804 120.486 107.83 120.135 107.609C119.608 107.276 119.908 107.395 119.516 106.995C119.222 106.695 119.114 106.762 118.853 106.539C118.522 106.259 118.731 106.246 118.308 105.964L116.962 104.957C116.187 104.484 115.862 104.107 115.604 103.964C115.049 103.657 114.825 103.277 114.24 102.975C113.936 102.818 113.775 102.779 113.525 102.571L112.219 101.637C111.876 101.296 111.893 101.356 111.476 101.147C110.913 100.864 110.644 100.473 110.054 100.218C109.856 100.132 109.839 100.15 109.664 100.047L109.359 99.7917C109.043 99.4656 109.144 99.4912 108.631 99.2878C107.814 98.9636 107.824 98.7043 107.255 98.4243C105.858 97.7372 106.35 97.8514 105.771 97.5561C105.418 97.3761 104.867 97.2917 104.58 97.0593C104.486 96.9839 104.493 96.8148 104.168 96.8036C103.487 96.7802 104.251 97.9753 104.383 98.2719L105.189 99.7061C105.511 100.169 105.461 100.836 105.859 101.388C106.414 102.159 106.243 102.185 106.532 103.067C106.892 104.166 107.221 103.787 107.221 105.291C107.221 106.144 105.559 106.833 106.67 110.209C106.9 110.906 107.254 111.464 107.325 112.243C107.555 114.783 108.053 115.167 108.214 116.73L108.339 119.294C108.333 119.904 108.409 120.072 108.447 120.53C108.482 120.97 108.422 121.391 108.483 121.837C108.585 122.579 108.697 126.305 108.595 127.051L108.337 132.169C108.338 133.649 108.227 135.92 107.851 137.059C107.254 138.868 107.502 140.767 106.787 142.716C106.396 143.783 106.518 145.139 106.144 146.217C105.818 147.16 105.683 147.002 105.507 148.268C105.467 148.551 105.406 149.127 105.322 149.427C105.214 149.816 105.076 149.996 104.904 150.353C104.389 151.424 104.741 151.934 103.934 153.415C103.745 153.76 103.707 154.029 103.626 154.451C103.324 156.009 103.207 155.476 102.862 156.376C102.567 157.148 102.697 157.727 102.226 158.428C101.97 158.809 101.946 158.847 101.803 159.348C101.353 160.919 101.37 160.352 100.99 161.224C100.54 162.256 101.008 161.854 100.167 163.201C99.764 163.845 99.9249 164.214 99.3322 165.054C98.9857 165.546 98.9621 166.181 98.63 166.704C98.4143 167.044 98.1501 167.325 98.0047 167.759C97.7205 168.607 97.3313 168.786 97.0446 169.599C96.8598 170.124 96.945 170.114 96.5917 170.49C96.1748 170.934 96.1045 171.638 95.6015 172.188C95.2866 172.533 95.0197 173.191 94.5461 173.821C94.3077 174.138 94.2787 174.388 94.1001 174.719C93.8203 175.238 93.7938 174.865 93.4763 175.439C93.2151 175.911 93.323 176.009 92.8837 176.303C92.3799 175.351 92.6597 175.648 92.6597 174.623L92.5515 160.73C92.5505 160.01 92.4345 159.729 92.4379 158.939C92.4429 157.795 92.17 156.602 92.0049 155.452C91.6556 153.018 91.6967 150.585 91.4093 148.207C91.3394 147.628 91.1741 147.146 91.0461 146.554C90.8077 145.454 90.7802 144.149 90.6607 143.02L90.1105 139.649C89.7272 138.034 89.8688 136.296 89.4588 134.589C89.3092 133.966 89.1506 133.727 89.0253 133.007C88.82 131.828 88.8274 130.634 88.6158 129.496C88.507 128.911 88.2888 128.613 88.1653 128.042C87.9337 126.973 87.9403 125.743 87.7024 124.585C87.5952 124.062 87.3688 123.666 87.2128 123.058C86.9279 121.946 86.9947 120.776 86.654 119.697C86.3927 118.869 85.6875 117.502 86.3653 116.693C86.6116 116.399 86.596 116.588 86.8536 116.285C87.4041 115.639 86.8078 116.005 87.7983 115.214C88.1649 114.921 87.9516 114.948 88.2915 114.699C88.5717 115.118 88.535 115.164 88.9863 115.46C89.6305 115.884 89.2534 115.762 89.6655 116.237C90.0115 116.636 90.0187 116.395 90.3972 116.962C90.7466 117.484 90.802 117.321 91.1587 117.768C91.3714 118.035 91.5831 118.356 91.7961 118.587L92.5018 119.337C92.8613 119.877 92.9242 119.699 93.2472 120.048C93.5736 120.401 93.5425 120.86 94.1156 120.86C95.0888 120.86 93.6064 119.014 93.4848 118.69C93.331 118.282 93.1468 118.179 92.8567 117.862C92.5806 117.561 92.6089 117.279 92.3421 116.921C91.9912 116.451 91.4409 115.476 91.138 115.213C90.6416 114.781 90.9067 114.782 90.5979 114.297C90.3346 113.884 90.2203 113.982 89.9317 113.395C89.5446 112.608 89.3991 112.67 89.0416 112.157C88.7933 111.801 88.6473 111.363 88.3579 111.049C88.3031 110.989 88.1877 110.853 88.1542 110.804C87.9185 110.461 87.8559 110.122 87.5891 109.801C87.2298 109.37 87.2193 109.544 86.9598 108.975L85.1552 106.299C85.8408 105.84 86.3447 105.335 87.1588 105.054C87.6087 104.899 87.8434 104.691 88.2262 104.441C88.5626 104.222 89.076 104.132 89.4076 103.943C89.8147 103.71 89.7439 103.535 90.3575 103.325C91.7233 102.856 91.4134 102.614 92.6199 102.227C93.4474 101.962 93.1452 101.909 93.651 101.578C93.932 101.394 94.4403 101.334 94.7942 101.153C95.2984 100.896 95.2985 100.682 95.8072 100.486C96.4353 100.244 96.4305 100.386 96.9515 99.9501C97.3981 99.5767 97.48 99.5991 98.0815 99.3999C98.8074 99.1597 98.5863 99.0532 99.1157 98.754C99.5247 98.5226 99.9077 98.5065 100.317 98.2751C100.846 97.9757 100.625 97.8698 101.351 97.6291L102.516 97.1145C102.173 95.6401 101.249 96.1849 101.038 94.897C100.852 93.7668 101.056 92.5562 101.057 91.2863C101.057 90.3771 101.25 89.726 101.613 89.0428C101.814 88.666 101.925 88.0377 102.162 87.6876C102.425 87.2991 102.541 87.4395 103.021 86.6425C103.193 86.3577 103.299 86.339 103.495 86.1078L104.712 83.517C104.868 82.7688 104.859 82.6667 105.167 82.0685C105.653 81.1267 105.664 80.0101 105.901 78.9943C106.031 78.4397 106.247 78.2409 106.392 77.5811C106.629 76.5109 106.622 75.1863 106.856 74.2367C107.139 73.0872 107.484 72.5594 107.553 71.2378C107.59 70.5327 107.652 70.1257 107.767 69.5472C107.906 68.8536 108.1 68.7423 108.256 68.1316C108.528 67.0647 108.367 65.8671 109.151 65.2189C109.622 64.8295 110.005 64.9205 110.469 64.6328L111.543 63.8028C112.143 63.3392 112.934 62.3809 113.267 61.718C113.555 61.1434 113.826 61.1519 114.041 60.5884C114.52 59.3358 114.787 59.3485 115.149 57.8876C115.218 57.6062 115.249 57.4435 115.364 57.2067C115.533 56.8603 115.588 56.9299 115.714 56.5484C116.12 55.3145 116.309 51.0718 115.812 49.6573L114.906 47.9866C114.66 47.6519 114.553 47.7588 114.26 47.4004C113.897 46.9552 114.14 47.0497 113.511 46.8057C111.829 46.1527 112.144 44.6799 112.51 43.1522C112.584 42.8416 112.714 42.5903 112.798 42.3201C112.883 42.0498 112.989 41.525 113.017 41.307C113.238 39.5846 113.04 38.482 113.048 36.7402L112.815 32.2687C112.762 31.6034 112.643 30.8667 112.593 30.1384C112.55 29.4953 112.457 28.4937 112.39 27.8778C112.227 26.3891 112.3 24.9227 112.119 23.4438L111.639 21.5723C111.424 20.9672 111.365 20.1521 111.256 19.4915C111.135 18.7648 110.894 18.4077 110.613 17.7816C110.311 17.1067 110.49 16.6405 109.989 16.0534C109.665 15.6736 109.754 15.9219 109.525 15.3982C109.181 14.6149 106.999 11.9508 106.588 11.166C106.315 10.6439 106.444 10.8462 106.056 10.466C105.684 10.1005 105.555 9.69971 105.163 9.34286C104.864 9.07045 104.758 8.70804 104.496 8.44212C104.137 8.0772 104.244 8.38785 103.896 7.81008C103.634 7.3758 103.705 7.53172 103.348 7.23841C102.884 6.85746 102.404 6.12708 101.506 5.49544L99.5268 3.89092C99.2152 3.73804 98.967 3.71303 98.6763 3.50945L98.3801 3.24552C97.9085 2.84896 97.0211 2.70534 96.4035 2.30997C96.0716 2.09726 95.9551 2.07317 95.5068 1.97456C94.8396 1.82803 94.3112 1.69699 93.7238 1.4054C93.1034 1.09739 92.5174 1.0766 91.7005 0.964492C87.4915 0.386459 88.936 0.00485401 83.0275 0.00485401C81.284 0.00485401 79.2281 -0.0811824 77.6357 0.437287C77.3053 0.545031 77.2747 0.612007 76.9092 0.719089C75.8368 1.03306 74.4846 0.971772 73.507 1.46099C72.7884 1.82062 71.8945 1.81744 71.0531 2.14332C70.6463 2.30084 70.6749 2.40448 70.3522 2.56252C69.8528 2.80726 69.2127 2.81838 68.7232 3.06153C68.1036 3.36928 68.3064 3.49794 67.3953 3.74969C67.1015 3.83083 66.8848 3.88947 66.6528 4.01521C66.3593 4.17418 66.2546 4.34731 66.0169 4.4994C65.5071 4.82581 65.2763 4.67875 64.6834 5.182C64.229 5.56771 63.8022 5.62158 63.3946 6.02132C62.694 6.70855 61.8499 7.18903 61.1845 7.95555C60.9274 8.25152 60.9254 8.1361 60.6702 8.44927C60.4855 8.67575 60.4077 8.91837 60.2228 9.12181C60.0094 9.35662 59.9035 9.33095 59.7309 9.63816C59.5882 9.8923 59.5701 10.1681 59.4281 10.4554C59.2031 10.911 58.8789 11.2443 58.7676 11.8109C58.6074 12.6253 58.9856 13.0287 57.9553 13.1269C57.424 13.1774 56.6433 13.2216 56.2593 13.4471C55.9952 13.6019 55.9666 13.7203 55.6941 13.89C54.0721 14.9 54.3551 15.1675 53.699 16.039C52.8954 17.1065 53.2393 17.2881 52.7305 18.3187C51.9373 19.9248 52.2925 20.4033 51.8463 21.5788C50.9822 23.8556 51.3316 24.9807 50.7561 26.873C50.2328 28.5931 50.2096 32.7611 50.2096 34.7269L50.2093 34.7275Z" fill="#666666"/>
<path fill-rule="evenodd" clip-rule="evenodd" d="M94.4519 121.084C94.4519 121.576 94.5864 121.59 94.9 121.756C95.3162 121.157 95.0401 120.86 94.5639 120.86C94.562 120.862 94.4518 121.069 94.4518 121.084H94.4519Z" fill="#666666"/>
<path fill-rule="evenodd" clip-rule="evenodd" d="M72.9468 121.42L73.2693 121.661C73.7813 121.286 73.6926 121.305 73.3947 120.86C73.0304 121.104 73.1452 121.045 72.9468 121.42Z" fill="#666666"/>
</g>
<defs>
<clipPath id="clip0_190_1144">
<rect width="170.281" height="180" fill="white"/>
</clipPath>
</defs>
</svg>
