<svg width="571" height="168" viewBox="0 0 571 168" fill="none" xmlns="http://www.w3.org/2000/svg">
<g clip-path="url(#clip0_1_87)">
<path fill-rule="evenodd" clip-rule="evenodd" d="M80.7317 5.66864C81.8404 5.66864 82.9418 5.69699 84.0391 5.74159C44.5267 7.41566 13.0066 39.9729 13.0066 79.8965C13.0066 120.891 46.2393 154.124 87.2349 154.124C127.159 154.124 159.715 122.604 161.39 83.0919C161.434 84.19 161.463 85.2914 161.463 86.4C161.463 130.987 125.318 167.131 80.7314 167.131C36.1442 167.131 -0.000366211 130.987 -0.000366211 86.4C-0.000366211 41.8129 36.1446 5.66864 80.7317 5.66864Z" fill="#006633"/>
<path fill-rule="evenodd" clip-rule="evenodd" d="M132.707 31.4079L161.463 60.1645V75.4288L132.707 46.6722L62.9562 116.422H47.6922L132.707 31.4079Z" fill="#CC9933"/>
<path fill-rule="evenodd" clip-rule="evenodd" d="M82.3476 9.15527e-05L104.798 4.66813L82.3476 11.3368L88.1265 5.66864L82.3476 9.15527e-05Z" fill="#006633"/>
<path fill-rule="evenodd" clip-rule="evenodd" d="M122.05 81.2973H130.095V89.3418H122.05V81.2973Z" fill="#CC9933"/>
<path fill-rule="evenodd" clip-rule="evenodd" d="M133.8 81.2973H141.845V89.3418H133.8V81.2973Z" fill="#CC9933"/>
<path fill-rule="evenodd" clip-rule="evenodd" d="M122.05 91.8176H130.095V99.8621H122.05V91.8176Z" fill="#CC9933"/>
<path fill-rule="evenodd" clip-rule="evenodd" d="M133.8 91.8176H141.845V99.8621H133.8V91.8176Z" fill="#CC9933"/>
<path fill-rule="evenodd" clip-rule="evenodd" d="M72.609 70.7933L88.52 70.3643L42.0808 116.422H27.2644L72.609 70.7933Z" fill="#CC9933"/>
<path d="M217.592 51.4392C217.876 51.4392 218.046 51.553 218.16 51.8365L222.699 63.8672C222.983 64.5483 222.586 65.0589 222.188 65.1727C221.621 65.2294 221.394 65.3428 221.394 65.6834C221.394 66.0806 222.075 66.0806 223.096 66.1373C227.636 66.2507 231.779 66.2507 233.822 66.2507C235.922 66.2507 236.433 66.1373 236.433 65.6834C236.433 65.2861 236.149 65.2294 235.695 65.2294C235.014 65.2294 234.162 65.1727 233.311 65.0022C232.119 64.7188 230.474 63.9239 228.317 58.8166C224.685 50.1911 215.606 27.038 214.244 23.9167C213.676 22.6112 213.336 22.1005 212.825 22.1005C212.258 22.1005 211.917 22.7249 211.236 24.3707L196.992 60.008C195.857 62.8455 194.779 64.7751 192.169 65.1156C191.715 65.1723 190.921 65.229 190.409 65.229C189.956 65.229 189.729 65.3424 189.729 65.683C189.729 66.1369 190.069 66.2503 190.807 66.2503C193.758 66.2503 196.879 66.0802 197.503 66.0802C199.262 66.0802 201.702 66.2503 203.519 66.2503C204.143 66.2503 204.484 66.1369 204.484 65.683C204.484 65.3424 204.313 65.229 203.632 65.229H202.781C201.022 65.229 200.511 64.4912 200.511 63.4695C200.511 62.7888 200.794 61.4266 201.362 60.008L204.426 51.8936C204.54 51.553 204.653 51.4392 204.937 51.4392H217.592ZM206.072 48.6021C205.845 48.6021 205.788 48.432 205.845 48.2049L211.066 34.245C211.123 34.0182 211.236 33.7343 211.406 33.7343C211.577 33.7343 211.633 34.0182 211.69 34.245L216.797 48.2616C216.854 48.432 216.797 48.6021 216.513 48.6021H206.072Z" fill="#006633"/>
<path d="M246.078 66.8747C248.746 66.8747 252.037 66.5909 254.42 64.8885C258.052 62.3345 259.414 59.4407 259.414 55.8657C259.414 51.4963 257.371 47.8072 250.788 44.1756L248.745 43.0405C244.262 40.5432 243.467 38.8412 243.467 36.6848C243.467 33.3934 246.702 31.5205 250.278 31.5205C253.512 31.5205 255.101 32.8827 255.839 33.7906C256.917 35.0391 257.144 36.5144 257.144 36.9683C257.144 37.536 257.314 37.8195 257.655 37.8195C258.052 37.8195 258.279 37.3089 258.279 36.2872C258.279 32.4855 258.449 31.1232 258.449 30.4992C258.449 30.1586 258.222 29.9882 257.768 29.8748C256.463 29.5342 253.91 29.0803 250.675 29.0803C243.751 29.0803 238.076 32.8824 238.076 38.7841C238.076 43.0402 240.006 46.2749 245.908 49.7364L248.802 51.4389C253.228 54.0495 253.739 56.1488 253.739 58.2489C253.739 61.6537 251.128 64.3778 246.816 64.3778C243.695 64.3778 239.949 63.1861 238.871 59.6107C238.587 58.7595 238.417 57.7382 238.417 57.1138C238.417 56.7733 238.36 56.3193 237.906 56.3193C237.509 56.3193 237.281 56.83 237.281 57.5678C237.225 58.3623 236.998 61.3699 236.998 63.9806C236.998 65.0586 237.168 65.2857 237.963 65.6263C240.119 66.5909 243.184 66.8747 246.078 66.8747ZM276.722 66.8747C279.389 66.8747 282.681 66.5909 285.064 64.8885C288.696 62.3345 290.058 59.4407 290.058 55.8657C290.058 51.4963 288.015 47.8072 281.432 44.1756L279.389 43.0405C274.906 40.5432 274.111 38.8412 274.111 36.6848C274.111 33.3934 277.346 31.5205 280.921 31.5205C284.156 31.5205 285.745 32.8827 286.483 33.7906C287.561 35.0391 287.788 36.5144 287.788 36.9683C287.788 37.536 287.958 37.8195 288.299 37.8195C288.696 37.8195 288.923 37.3089 288.923 36.2872C288.923 32.4855 289.093 31.1232 289.093 30.4992C289.093 30.1586 288.866 29.9882 288.412 29.8748C287.107 29.5342 284.553 29.0803 281.319 29.0803C274.395 29.0803 268.72 32.8824 268.72 38.7841C268.72 43.0402 270.65 46.2749 276.552 49.7364L279.446 51.4389C283.872 54.0495 284.383 56.1488 284.383 58.2489C284.383 61.6537 281.772 64.3778 277.46 64.3778C274.339 64.3778 270.593 63.1861 269.514 59.6107C269.231 58.7595 269.06 57.7382 269.06 57.1138C269.06 56.7733 269.004 56.3193 268.55 56.3193C268.153 56.3193 267.925 56.83 267.925 57.5678C267.869 58.3623 267.642 61.3699 267.642 63.9806C267.642 65.0586 267.812 65.2857 268.607 65.6263C270.763 66.5909 273.828 66.8747 276.722 66.8747Z" fill="#006633"/>
<path d="M300.839 52.2337C300.839 56.6602 300.839 60.4623 300.612 62.5053C300.442 63.9239 300.158 64.8322 299.137 65.0589C298.683 65.1727 298.115 65.2294 297.377 65.2294C296.753 65.2294 296.583 65.5133 296.583 65.7401C296.583 66.0806 296.924 66.2507 297.548 66.2507C298.569 66.2507 299.818 66.194 301.009 66.1373C302.201 66.1373 303.279 66.0806 303.847 66.0806C305.322 66.0806 307.194 66.1373 309.635 66.194C312.075 66.3078 315.083 66.3645 318.828 66.3645C320.701 66.3645 321.155 66.3645 321.495 65.116C321.779 64.151 322.176 60.86 322.176 59.7816C322.176 59.2709 322.12 58.6465 321.722 58.6465C321.382 58.6465 321.268 58.8733 321.155 59.3843C320.814 61.3706 320.247 62.3919 318.998 62.9593C317.693 63.5266 315.593 63.5837 314.288 63.5837C309.181 63.5837 307.648 62.8459 307.535 59.5544C307.478 58.1359 307.535 54.0499 307.535 52.4042V48.5454C307.535 48.2616 307.592 48.0348 307.819 48.0348C309.067 48.0348 314.742 48.1482 315.65 48.2616C317.523 48.432 318.147 49.1698 318.431 50.1344C318.544 50.7589 318.544 51.3829 318.601 51.8939C318.601 52.1207 318.714 52.2912 319.055 52.2912C319.509 52.2912 319.566 51.6101 319.566 51.2128C319.566 50.8723 319.679 48.9427 319.793 47.9785C320.076 45.5378 320.19 44.7437 320.19 44.4598C320.19 44.1764 320.02 43.9492 319.793 43.9492C319.566 43.9492 319.396 44.2331 318.998 44.5736C318.544 45.0843 317.806 45.1977 316.615 45.3114C315.48 45.4248 309.01 45.4248 307.875 45.4248C307.592 45.4248 307.535 45.1977 307.535 44.9142V32.9969C307.535 32.713 307.648 32.5429 307.875 32.5429C308.897 32.5429 314.856 32.6563 315.707 32.7697C318.204 32.9969 318.601 33.678 318.998 34.5292C319.282 35.0966 319.339 35.9481 319.339 36.2883C319.339 36.686 319.396 36.9127 319.736 36.9127C320.133 36.9127 320.247 36.3454 320.303 36.1182C320.417 35.5509 320.531 33.4508 320.587 32.9406C320.701 30.7271 320.985 30.1602 320.985 29.8196C320.985 29.5924 320.928 29.3656 320.644 29.3656C320.417 29.3656 320.133 29.5357 319.849 29.5924C319.452 29.6491 318.658 29.8196 317.749 29.8763C316.785 29.933 305.719 29.8763 304.13 29.8763C302.712 29.8763 299.534 29.7629 296.923 29.7629C296.185 29.7629 295.788 29.8763 295.788 30.2169C295.788 30.5574 296.129 30.7275 296.639 30.7275C297.377 30.7275 298.228 30.7842 298.626 30.898C300.215 31.3519 300.669 31.8626 300.782 33.5083C300.839 35.0406 300.839 36.4025 300.839 43.7232V52.2349L300.839 52.2337ZM340.165 52.2337C340.165 56.6602 340.165 60.4623 339.938 62.5053C339.768 63.9239 339.484 64.8322 338.463 65.0589C338.066 65.1727 337.441 65.2294 336.704 65.2294C336.079 65.2294 335.909 65.5133 335.909 65.7401C335.909 66.0806 336.25 66.2507 336.874 66.2507C338.86 66.2507 342.265 66.0806 343.4 66.0806C344.819 66.0806 348.167 66.2507 351.458 66.2507C352.026 66.2507 352.423 66.0806 352.423 65.7401C352.423 65.5133 352.196 65.2294 351.628 65.2294C350.891 65.2294 349.756 65.1727 349.075 65.0589C347.599 64.8322 347.315 63.9239 347.145 62.562C346.918 60.4623 346.861 56.6602 346.861 52.2337V32.7126L353.16 32.8264C357.644 32.8831 358.949 34.3587 359.062 35.6068L359.119 36.1175C359.176 36.8553 359.289 37.0825 359.687 37.0825C359.97 37.0825 360.084 36.7986 360.14 36.2876C360.14 35.0391 360.254 31.4642 360.254 30.4425C360.254 29.7051 360.197 29.4212 359.857 29.4212C359.687 29.4212 359.289 29.5346 358.495 29.648C357.757 29.7618 356.679 29.8752 355.09 29.8752H334.831C333.185 29.8752 331.313 29.8185 329.838 29.648C328.589 29.4779 328.078 29.0806 327.681 29.0806C327.397 29.0806 327.227 29.3645 327.113 29.9886C327 30.3858 326.035 35.0391 326.035 35.8336C326.035 36.3446 326.148 36.6281 326.489 36.6281C326.83 36.6281 326.943 36.4013 327.056 36.0041C327.17 35.6635 327.397 35.0391 327.908 34.3584C328.645 33.28 329.838 32.9394 332.731 32.8827L340.165 32.7123V52.2337Z" fill="#006633"/>
<path d="M209.647 129.283C210.157 130.759 210.385 131.383 210.952 131.383C211.633 131.383 211.917 130.702 212.995 128.376C215.435 123.155 222.983 103.066 224.061 100.172H224.174L235.978 128.602C236.829 130.703 237.17 131.383 237.737 131.383C238.475 131.383 238.759 130.702 239.383 128.716C242.163 120.204 248.122 102.158 250.733 95.0073C251.924 91.773 252.549 89.5028 253.911 88.9922C254.535 88.765 255.329 88.7083 255.897 88.7083C256.408 88.7083 256.691 88.5378 256.691 88.1406C256.691 87.8004 256.294 87.6866 255.67 87.6866C253.797 87.6866 251.357 87.8571 250.96 87.8571C250.449 87.8571 248.066 87.6866 245.058 87.6866C244.207 87.6866 243.752 87.8004 243.752 88.1977C243.752 88.5378 244.15 88.7083 244.717 88.7083C246.931 88.7083 247.441 89.5028 247.441 90.4107C247.441 91.2052 247.271 92.397 246.873 93.7022C244.887 100.342 240.348 115.323 239.326 119.125H239.156L227.352 90.5808C226.614 88.7646 226.331 87.9134 225.706 87.9134C225.252 87.9134 224.855 88.3674 224.287 89.9564L213.278 119.522H213.108C212.087 116.345 206.809 99.15 205.844 95.4042C205.163 92.8506 204.596 90.9214 204.596 90.1836C204.596 89.5591 204.709 89.1619 205.22 88.9347C205.617 88.7079 206.185 88.7079 206.639 88.7079C207.206 88.7079 207.66 88.6512 207.66 88.1973C207.66 87.8567 207.263 87.6863 206.469 87.6863C203.177 87.6863 200.68 87.8567 200.169 87.8567C199.659 87.8567 196.538 87.6863 193.587 87.6863C192.792 87.6863 192.338 87.8 192.338 88.1973C192.338 88.6512 192.678 88.7079 193.246 88.7079C193.757 88.7079 194.892 88.8213 195.516 89.2186C196.311 89.7863 196.935 91.1482 197.616 93.2478L209.647 129.283ZM278.084 131.213C290.967 131.213 299.024 122.531 299.024 111.465C299.024 100.399 291.193 93.4187 278.595 93.4187C263.444 93.4187 257.655 104.087 257.655 112.316C257.655 120.885 263.557 131.213 278.084 131.213ZM280.128 128.602C270.708 128.602 265.033 120.771 265.033 110.84C265.033 98.9228 271.559 95.9723 277.12 95.9723C285.179 95.9723 291.591 102.555 291.591 113.224C291.591 126.956 283.646 128.602 280.128 128.602Z" fill="#006633"/>
<path d="M308.331 116.572C308.331 120.998 308.331 124.8 308.103 126.843C307.933 128.262 307.649 129.17 306.628 129.397C306.174 129.511 305.606 129.567 304.869 129.567C304.244 129.567 304.074 129.851 304.074 130.078C304.074 130.419 304.415 130.589 305.039 130.589C307.025 130.589 310.203 130.419 311.168 130.419C311.905 130.419 316.048 130.589 318.942 130.589C319.567 130.589 319.964 130.419 319.964 130.078C319.964 129.851 319.737 129.567 319.34 129.567C318.716 129.567 317.637 129.511 316.899 129.397C315.367 129.17 315.14 128.262 314.97 126.843C314.743 124.8 314.686 121.055 314.686 116.572V115.891C314.686 115.607 314.856 115.494 315.083 115.494L319.566 115.607C319.907 115.607 320.19 115.664 320.474 115.948C321.099 116.686 323.198 119.92 325.184 122.531C327.965 126.276 329.838 128.546 331.994 129.624C333.299 130.305 334.662 130.589 337.442 130.589H342.209C342.833 130.589 343.173 130.475 343.173 130.078C343.173 129.851 342.947 129.567 342.549 129.567C342.152 129.567 341.868 129.567 341.358 129.454C340.563 129.284 338.804 129.057 336.023 126.276C333.016 123.269 329.497 118.899 325.071 113.451C329.951 109.535 331.994 106.357 331.994 102.782C331.994 99.548 329.894 97.1074 328.476 96.1428C325.809 94.3833 322.177 94.0998 318.999 94.0998C317.467 94.0998 312.927 94.2132 311.224 94.2132C310.203 94.2132 307.025 94.0998 304.415 94.0998C303.677 94.0998 303.28 94.2132 303.28 94.5538C303.28 94.8943 303.62 95.0644 304.131 95.0644C304.869 95.0644 305.72 95.1211 306.117 95.2349C307.706 95.6888 308.16 96.1995 308.274 97.8452C308.331 99.3775 308.331 100.739 308.331 108.06V116.572ZM314.686 97.4479C314.686 97.0507 314.8 96.8806 315.14 96.7672C315.651 96.6534 316.843 96.5967 318.091 96.5967C321.042 96.5967 325.696 98.3562 325.696 105.166C325.696 109.138 323.993 111.238 322.461 112.316C321.61 112.94 320.929 113.111 318.943 113.111C317.694 113.111 316.219 112.997 315.141 112.656C314.8 112.486 314.687 112.316 314.687 111.805L314.686 97.4479ZM353.956 108.06C353.956 100.739 353.956 99.3775 354.069 97.8452C354.183 96.1428 354.58 95.4617 355.942 95.2349C356.51 95.1211 357.305 95.0644 357.872 95.0644C358.496 95.0644 358.78 94.8943 358.78 94.5538C358.78 94.2132 358.44 94.0998 357.702 94.0998C355.772 94.0998 351.686 94.2132 350.494 94.2132C349.133 94.2132 345.955 94.0998 343.628 94.0998C342.89 94.0998 342.55 94.2132 342.55 94.5538C342.55 94.8943 342.834 95.0644 343.401 95.0644C344.025 95.0644 344.649 95.1211 345.047 95.2349C346.636 95.6888 347.09 96.1995 347.203 97.8452C347.26 99.3775 347.26 100.739 347.26 108.06V116.572C347.26 120.998 347.26 124.8 347.033 126.843C346.863 128.262 346.579 129.17 345.558 129.397C345.103 129.511 344.536 129.567 343.798 129.567C343.174 129.567 343.004 129.851 343.004 130.078C343.004 130.419 343.344 130.589 343.969 130.589C344.99 130.589 346.238 130.532 347.43 130.475C348.622 130.475 349.7 130.419 350.267 130.419C352.31 130.419 354.41 130.475 356.907 130.532C359.404 130.646 362.298 130.703 365.873 130.703C368.483 130.703 368.71 130.475 369.051 129.397C369.448 127.978 369.788 124.403 369.788 123.836C369.788 123.268 369.675 122.757 369.334 122.757C368.937 122.757 368.823 123.041 368.767 123.495C368.653 124.403 368.143 125.765 367.518 126.389C366.27 127.695 364.341 127.751 361.673 127.751C357.814 127.751 355.885 127.467 355.034 126.73C353.955 125.822 353.955 122.757 353.955 116.572L353.956 108.06ZM378.584 116.572C378.584 120.999 378.584 124.801 378.357 126.844C378.187 128.262 377.903 129.171 376.882 129.397C376.428 129.511 375.86 129.568 375.122 129.568C374.498 129.568 374.328 129.852 374.328 130.078C374.328 130.419 374.668 130.589 375.293 130.589C376.314 130.589 377.563 130.532 378.754 130.476C379.946 130.476 381.024 130.419 381.592 130.419C382.84 130.419 384.656 130.532 386.642 130.703C388.628 130.816 390.784 130.986 392.601 130.986C401.794 130.986 407.071 127.582 409.341 125.312C412.178 122.531 414.789 117.934 414.789 111.862C414.789 106.131 412.576 102.102 410.079 99.6047C404.631 94.1002 396.233 94.1002 389.99 94.1002C386.983 94.1002 383.407 94.2136 381.875 94.2136C380.457 94.2136 377.279 94.1002 374.668 94.1002C373.931 94.1002 373.533 94.2136 373.533 94.5541C373.533 94.8947 373.874 95.0648 374.385 95.0648C375.122 95.0648 375.974 95.1215 376.371 95.2353C377.96 95.6892 378.414 96.1998 378.528 97.8456C378.584 99.3779 378.584 100.74 378.584 108.06V116.572ZM385.281 107.323C385.281 103.521 385.281 99.548 385.337 97.9023C385.337 97.3349 385.508 97.1077 385.962 96.9377C386.359 96.7105 388.005 96.5971 389.026 96.5971C392.941 96.5971 398.389 97.1078 402.986 101.194C405.199 103.123 407.639 107.095 407.639 113.224C407.639 118.218 406.618 122.531 403.383 125.198C400.376 127.695 397.027 128.489 392.488 128.489C388.572 128.489 386.586 127.468 385.961 126.56C385.564 126.049 385.451 124.346 385.394 123.155C385.337 122.19 385.28 118.502 385.28 113.394L385.281 107.323ZM431.7 129.454C432.154 130.703 432.438 131.214 433.062 131.214C433.8 131.214 434.084 130.646 434.992 128.66C437.035 124.233 443.731 107.152 444.582 105.109H444.696L454.854 128.887C455.591 130.646 455.932 131.214 456.613 131.214C457.351 131.214 457.634 130.646 458.202 128.943C460.642 121.736 465.75 106.414 468.076 100.342C469.097 97.5621 469.665 95.7459 470.857 95.292C471.424 95.1215 472.105 95.0648 472.616 95.0648C473.07 95.0648 473.297 94.838 473.297 94.4974C473.297 94.2136 472.956 94.1002 472.389 94.1002C470.743 94.1002 468.587 94.2136 468.246 94.2136C467.792 94.2136 465.522 94.1002 462.912 94.1002C462.117 94.1002 461.72 94.2136 461.72 94.5541C461.72 94.838 462.117 95.0648 462.572 95.0648C464.558 95.0648 465.012 95.6325 465.012 96.427C465.012 97.1078 464.841 98.0727 464.501 99.2074C462.742 104.825 458.94 117.537 457.975 120.318H457.805L447.817 96.54C447.193 95.0077 446.739 94.2699 446.171 94.2699C445.717 94.2699 445.206 94.6672 444.696 96.0294L435.162 120.658H434.992C434.254 118.444 429.714 103.86 428.863 100.683C428.239 98.4692 427.785 96.8806 427.785 96.2562C427.785 95.7455 427.841 95.4617 428.296 95.2916C428.693 95.1211 429.147 95.0644 429.544 95.0644C430.055 95.0644 430.452 94.8943 430.452 94.5538C430.452 94.2132 430.112 94.0998 429.374 94.0998C426.48 94.0998 424.04 94.2132 423.585 94.2132C423.131 94.2132 420.351 94.0998 417.797 94.0998C417.06 94.0998 416.662 94.2132 416.662 94.5538C416.662 94.8943 416.946 95.0644 417.457 95.0644C417.911 95.0644 418.875 95.1211 419.386 95.4617C420.124 95.9156 420.521 97.0507 421.146 98.8098L431.7 129.454ZM479.936 116.573C479.936 121.226 479.936 125.085 479.709 127.071C479.539 128.49 479.255 129.171 478.234 129.398C477.779 129.511 477.212 129.568 476.474 129.568C475.85 129.568 475.68 129.852 475.68 130.079C475.68 130.419 476.02 130.589 476.645 130.589C478.631 130.589 482.035 130.419 483.17 130.419C484.533 130.419 487.937 130.589 491.229 130.589C491.796 130.589 492.193 130.419 492.193 130.079C492.193 129.852 491.967 129.568 491.399 129.568C490.661 129.568 489.526 129.511 488.845 129.398C487.37 129.171 487.029 128.433 486.859 127.128C486.632 125.085 486.632 121.226 486.632 116.573V108.061C486.632 100.74 486.632 99.3783 486.745 97.8459C486.859 96.1435 487.256 95.4624 488.618 95.2356C489.186 95.1219 489.583 95.0652 490.094 95.0652C490.604 95.0652 490.888 94.9518 490.888 94.4978C490.888 94.214 490.491 94.1006 489.867 94.1006C487.937 94.1006 484.703 94.214 483.454 94.214C482.035 94.214 478.631 94.1006 476.758 94.1006C475.963 94.1006 475.566 94.214 475.566 94.4978C475.566 94.9518 475.85 95.0652 476.361 95.0652C476.985 95.0652 477.609 95.1219 478.176 95.2923C479.255 95.6329 479.766 96.2002 479.879 97.8459C479.936 99.3783 479.936 100.74 479.936 108.061V116.573ZM503.032 116.573C503.032 120.999 503.032 124.801 502.805 126.844C502.635 128.263 502.351 129.171 501.33 129.398C500.876 129.511 500.308 129.568 499.57 129.568C498.946 129.568 498.776 129.852 498.776 130.079C498.776 130.419 499.117 130.589 499.741 130.589C500.762 130.589 502.011 130.533 503.202 130.476C504.394 130.476 505.472 130.419 506.04 130.419C507.288 130.419 509.104 130.533 511.09 130.703C513.076 130.817 515.232 130.987 517.049 130.987C526.242 130.987 531.519 127.582 533.789 125.312C536.626 122.532 539.237 117.935 539.237 111.863C539.237 106.131 537.024 102.102 534.527 99.6051C529.079 94.1006 520.681 94.1006 514.438 94.1006C511.431 94.1006 507.855 94.214 506.323 94.214C504.905 94.214 501.727 94.1006 499.116 94.1006C498.379 94.1006 497.981 94.214 497.981 94.5545C497.981 94.8951 498.322 95.0652 498.833 95.0652C499.57 95.0652 500.422 95.1219 500.819 95.2356C502.408 95.6896 502.862 96.2002 502.976 97.8459C503.032 99.3783 503.032 100.74 503.032 108.061V116.573ZM509.729 107.323C509.729 103.521 509.729 99.5484 509.785 97.9026C509.785 97.3353 509.956 97.1081 510.41 96.938C510.807 96.7109 512.453 96.5975 513.474 96.5975C517.389 96.5975 522.837 97.1081 527.434 101.194C529.647 103.124 532.087 107.096 532.087 113.225C532.087 118.219 531.066 122.531 527.831 125.199C524.824 127.696 521.475 128.49 516.936 128.49C513.02 128.49 511.034 127.468 510.409 126.56C510.012 126.05 509.899 124.347 509.842 123.155C509.785 122.191 509.728 118.502 509.728 113.395L509.729 107.323Z" fill="#006633"/>
<path d="M549.621 116.572C549.621 120.998 549.621 124.8 549.394 126.843C549.224 128.262 548.94 129.17 547.918 129.397C547.464 129.511 546.897 129.567 546.159 129.567C545.534 129.567 545.364 129.851 545.364 130.078C545.364 130.419 545.705 130.589 546.329 130.589C547.351 130.589 548.599 130.532 549.791 130.475C550.982 130.475 552.061 130.419 552.628 130.419C554.104 130.419 555.976 130.475 558.416 130.532C560.857 130.646 563.864 130.702 567.609 130.702C569.482 130.702 569.936 130.702 570.277 129.454C570.561 128.489 570.958 125.198 570.958 124.12C570.958 123.609 570.901 122.985 570.504 122.985C570.163 122.985 570.049 123.211 569.936 123.722C569.596 125.709 569.028 126.73 567.78 127.297C566.474 127.865 564.375 127.922 563.07 127.922C557.962 127.922 556.43 127.184 556.316 123.892C556.26 122.474 556.316 118.388 556.316 116.742V112.883C556.316 112.6 556.373 112.373 556.6 112.373C557.849 112.373 563.524 112.486 564.432 112.6C566.304 112.77 566.929 113.508 567.212 114.472C567.325 115.097 567.325 115.721 567.382 116.232C567.382 116.459 567.496 116.629 567.836 116.629C568.29 116.629 568.347 115.948 568.347 115.551C568.347 115.21 568.46 113.281 568.574 112.316C568.858 109.876 568.971 109.082 568.971 108.798C568.971 108.514 568.801 108.287 568.574 108.287C568.347 108.287 568.177 108.571 567.78 108.912C567.325 109.422 566.588 109.536 565.396 109.649C564.261 109.763 557.792 109.763 556.657 109.763C556.373 109.763 556.316 109.536 556.316 109.252V97.3349C556.316 97.0511 556.43 96.881 556.657 96.881C557.679 96.881 563.637 96.9944 564.488 97.1077C566.986 97.3349 567.382 98.016 567.78 98.8672C568.063 99.4346 568.12 100.286 568.12 100.626C568.12 101.024 568.177 101.251 568.518 101.251C568.915 101.251 569.028 100.683 569.085 100.456C569.198 99.8889 569.312 97.7889 569.369 97.2786C569.482 95.0652 569.766 94.4982 569.766 94.1576C569.766 93.9305 569.709 93.7037 569.425 93.7037C569.198 93.7037 568.915 93.8738 568.631 93.9305C568.234 93.9872 567.439 94.1576 566.531 94.2143C565.566 94.271 554.501 94.2143 552.912 94.2143C551.493 94.2143 548.315 94.1009 545.705 94.1009C544.967 94.1009 544.57 94.2143 544.57 94.5549C544.57 94.8954 544.91 95.0655 545.421 95.0655C546.159 95.0655 547.01 95.1222 547.407 95.236C548.996 95.69 549.45 96.2006 549.564 97.8463C549.62 99.3786 549.62 100.741 549.62 108.061V116.573L549.621 116.572Z" fill="#006633"/>
<path d="M202.545 152.409C202.248 151.946 201.845 151.589 201.334 151.34C200.823 151.091 200.277 150.966 199.695 150.966C198.983 150.966 198.318 151.102 197.7 151.376C197.094 151.637 196.548 151.999 196.061 152.462C195.586 152.925 195.194 153.472 194.886 154.101C194.577 154.719 194.369 155.384 194.262 156.096C194.167 156.761 194.185 157.39 194.316 157.984C194.446 158.578 194.684 159.101 195.028 159.552C195.373 160.003 195.818 160.359 196.364 160.621C196.91 160.882 197.552 161.012 198.288 161.012C199.012 161.012 199.666 160.864 200.247 160.567C200.841 160.27 201.364 159.855 201.815 159.32L203.097 160.407C202.991 160.537 202.801 160.727 202.527 160.977C202.254 161.214 201.904 161.458 201.477 161.707C201.049 161.945 200.544 162.152 199.962 162.331C199.392 162.521 198.745 162.616 198.021 162.616C197.023 162.616 196.15 162.426 195.402 162.046C194.654 161.666 194.043 161.167 193.568 160.549C193.093 159.932 192.76 159.237 192.57 158.465C192.38 157.681 192.338 156.892 192.445 156.096C192.588 155.122 192.873 154.226 193.3 153.406C193.74 152.575 194.292 151.863 194.957 151.269C195.622 150.663 196.382 150.194 197.237 149.862C198.092 149.529 199.006 149.363 199.98 149.363C200.811 149.363 201.601 149.523 202.349 149.844C203.109 150.152 203.697 150.645 204.113 151.322L202.545 152.409Z" fill="#CC9933"/>
<path d="M206.395 158.073C206.335 158.501 206.341 158.899 206.413 159.267C206.496 159.623 206.638 159.932 206.84 160.193C207.042 160.442 207.303 160.644 207.624 160.799C207.956 160.941 208.336 161.012 208.764 161.012C209.191 161.012 209.583 160.941 209.939 160.799C210.308 160.644 210.628 160.442 210.901 160.193C211.175 159.932 211.4 159.623 211.578 159.267C211.768 158.899 211.893 158.501 211.952 158.073C212.012 157.646 212 157.254 211.917 156.898C211.845 156.53 211.703 156.221 211.489 155.971C211.287 155.71 211.026 155.508 210.705 155.366C210.385 155.211 210.011 155.134 209.583 155.134C209.156 155.134 208.758 155.211 208.39 155.366C208.033 155.508 207.713 155.71 207.428 155.971C207.155 156.221 206.929 156.53 206.751 156.898C206.573 157.254 206.454 157.646 206.395 158.073ZM204.685 158.073C204.768 157.456 204.964 156.88 205.272 156.345C205.581 155.811 205.967 155.342 206.43 154.938C206.893 154.534 207.41 154.22 207.98 153.994C208.562 153.757 209.168 153.638 209.797 153.638C210.426 153.638 210.996 153.757 211.507 153.994C212.018 154.22 212.445 154.534 212.79 154.938C213.146 155.342 213.401 155.811 213.556 156.345C213.71 156.88 213.746 157.456 213.662 158.073C213.567 158.691 213.366 159.273 213.057 159.819C212.76 160.353 212.38 160.822 211.917 161.226C211.454 161.618 210.931 161.933 210.349 162.17C209.779 162.396 209.179 162.509 208.55 162.509C207.921 162.509 207.345 162.396 206.822 162.17C206.312 161.933 205.884 161.618 205.54 161.226C205.195 160.822 204.94 160.353 204.774 159.819C204.619 159.273 204.59 158.691 204.685 158.073Z" fill="#CC9933"/>
<path d="M216.259 153.852H217.755L217.577 155.17H217.612C217.672 155.051 217.785 154.903 217.951 154.724C218.117 154.546 218.331 154.38 218.592 154.226C218.853 154.059 219.144 153.923 219.465 153.816C219.797 153.697 220.154 153.638 220.534 153.638C221.757 153.638 222.559 154.16 222.939 155.205C223.295 154.683 223.74 154.291 224.275 154.03C224.809 153.769 225.331 153.638 225.842 153.638C226.495 153.638 227.012 153.745 227.392 153.959C227.784 154.172 228.069 154.457 228.247 154.814C228.437 155.158 228.544 155.556 228.567 156.007C228.603 156.446 228.585 156.904 228.514 157.379L227.837 162.295H226.234L226.893 157.592C226.941 157.272 226.958 156.963 226.946 156.666C226.946 156.369 226.899 156.108 226.804 155.882C226.709 155.657 226.549 155.479 226.323 155.348C226.109 155.205 225.806 155.134 225.415 155.134C224.643 155.134 224.055 155.372 223.651 155.847C223.259 156.322 223.01 156.933 222.903 157.681L222.262 162.295H220.658L221.264 157.877C221.323 157.474 221.353 157.105 221.353 156.773C221.365 156.44 221.323 156.155 221.228 155.918C221.145 155.669 220.997 155.479 220.783 155.348C220.569 155.205 220.267 155.134 219.875 155.134C219.59 155.134 219.305 155.194 219.02 155.312C218.735 155.419 218.473 155.585 218.236 155.811C218.01 156.037 217.814 156.328 217.648 156.684C217.482 157.028 217.363 157.438 217.292 157.913L216.686 162.295H215.083L216.259 153.852Z" fill="#CC9933"/>
<path d="M231.428 153.852H233.031L232.87 155.063H232.906C233.286 154.612 233.761 154.261 234.331 154.012C234.901 153.763 235.471 153.638 236.041 153.638C236.694 153.638 237.27 153.751 237.769 153.976C238.268 154.202 238.671 154.517 238.98 154.92C239.301 155.324 239.521 155.799 239.639 156.345C239.77 156.88 239.794 157.456 239.711 158.073C239.616 158.703 239.426 159.291 239.141 159.837C238.867 160.371 238.517 160.84 238.09 161.244C237.662 161.636 237.169 161.945 236.611 162.17C236.053 162.396 235.447 162.509 234.794 162.509C234.189 162.509 233.636 162.384 233.138 162.135C232.639 161.873 232.277 161.523 232.051 161.084H232.015L231.143 167.318H229.539L231.428 153.852ZM235.631 155.134C235.204 155.134 234.806 155.211 234.438 155.366C234.082 155.508 233.761 155.71 233.476 155.971C233.203 156.221 232.977 156.53 232.799 156.898C232.621 157.254 232.502 157.646 232.443 158.073C232.383 158.501 232.389 158.899 232.461 159.267C232.544 159.623 232.686 159.932 232.888 160.193C233.09 160.442 233.351 160.644 233.672 160.799C234.004 160.941 234.385 161.012 234.812 161.012C235.24 161.012 235.631 160.941 235.988 160.799C236.356 160.644 236.676 160.442 236.95 160.193C237.223 159.932 237.448 159.623 237.626 159.267C237.816 158.899 237.941 158.501 238.001 158.073C238.06 157.646 238.048 157.254 237.965 156.898C237.894 156.53 237.751 156.221 237.537 155.971C237.336 155.71 237.074 155.508 236.754 155.366C236.433 155.211 236.059 155.134 235.631 155.134Z" fill="#CC9933"/>
<path d="M242.21 154.885C242.721 154.469 243.285 154.16 243.902 153.959C244.532 153.745 245.143 153.638 245.737 153.638C246.355 153.638 246.877 153.715 247.305 153.869C247.732 154.024 248.071 154.232 248.32 154.493C248.57 154.754 248.736 155.057 248.819 155.401C248.902 155.734 248.92 156.084 248.872 156.452L248.267 160.763C248.219 161.06 248.184 161.333 248.16 161.582C248.136 161.832 248.124 162.069 248.124 162.295H246.699C246.711 162.081 246.723 161.867 246.735 161.654C246.759 161.44 246.788 161.226 246.824 161.012H246.788C246.349 161.559 245.868 161.945 245.345 162.17C244.835 162.396 244.259 162.509 243.617 162.509C243.226 162.509 242.857 162.455 242.513 162.348C242.181 162.242 241.896 162.081 241.658 161.867C241.421 161.654 241.242 161.392 241.124 161.084C241.017 160.763 240.993 160.395 241.052 159.979C241.124 159.433 241.308 158.976 241.605 158.608C241.901 158.24 242.276 157.943 242.727 157.717C243.19 157.48 243.707 157.313 244.277 157.218C244.858 157.111 245.47 157.058 246.111 157.058H247.287L247.34 156.702C247.376 156.488 247.364 156.274 247.305 156.06C247.257 155.847 247.162 155.657 247.02 155.49C246.877 155.312 246.687 155.176 246.45 155.081C246.212 154.974 245.921 154.92 245.577 154.92C245.268 154.92 244.989 154.95 244.74 155.009C244.502 155.069 244.282 155.146 244.081 155.241C243.891 155.324 243.707 155.425 243.528 155.544C243.362 155.663 243.196 155.775 243.03 155.882L242.21 154.885ZM246.272 158.234C245.892 158.234 245.5 158.257 245.096 158.305C244.692 158.341 244.318 158.418 243.974 158.536C243.629 158.655 243.338 158.821 243.101 159.035C242.863 159.249 242.721 159.522 242.673 159.855C242.602 160.342 242.715 160.692 243.012 160.906C243.309 161.119 243.736 161.226 244.294 161.226C244.734 161.226 245.114 161.155 245.434 161.012C245.767 160.858 246.046 160.662 246.272 160.425C246.497 160.187 246.669 159.926 246.788 159.641C246.919 159.344 247.002 159.053 247.038 158.768L247.127 158.234H246.272Z" fill="#CC9933"/>
<path d="M255.74 155.971C255.586 155.734 255.378 155.538 255.117 155.384C254.867 155.217 254.541 155.134 254.137 155.134C253.757 155.134 253.413 155.217 253.104 155.384C252.807 155.538 252.641 155.77 252.605 156.078C252.569 156.328 252.617 156.53 252.748 156.684C252.89 156.838 253.062 156.963 253.264 157.058C253.478 157.153 253.704 157.224 253.941 157.272C254.179 157.319 254.386 157.361 254.565 157.396C254.897 157.48 255.206 157.58 255.491 157.699C255.776 157.818 256.013 157.972 256.203 158.162C256.405 158.352 256.548 158.584 256.631 158.857C256.714 159.13 256.732 159.463 256.684 159.855C256.613 160.33 256.453 160.739 256.203 161.084C255.966 161.416 255.669 161.689 255.313 161.903C254.956 162.117 254.565 162.271 254.137 162.366C253.721 162.461 253.306 162.509 252.89 162.509C252.189 162.509 251.59 162.402 251.091 162.188C250.604 161.974 250.188 161.582 249.844 161.012L251.18 160.015C251.406 160.276 251.667 160.508 251.964 160.71C252.261 160.912 252.641 161.012 253.104 161.012C253.52 161.012 253.917 160.929 254.297 160.763C254.677 160.585 254.897 160.312 254.956 159.944C254.992 159.706 254.945 159.51 254.814 159.356C254.695 159.201 254.535 159.083 254.333 159C254.143 158.905 253.929 158.833 253.692 158.786C253.466 158.726 253.27 158.679 253.104 158.643C252.771 158.56 252.457 158.465 252.16 158.358C251.863 158.251 251.608 158.109 251.394 157.931C251.18 157.753 251.02 157.527 250.913 157.254C250.818 156.981 250.8 156.642 250.859 156.239C250.919 155.799 251.061 155.419 251.287 155.099C251.524 154.766 251.809 154.493 252.142 154.279C252.474 154.065 252.843 153.905 253.246 153.798C253.65 153.691 254.048 153.638 254.44 153.638C255.01 153.638 255.538 153.745 256.025 153.959C256.524 154.172 256.892 154.529 257.13 155.027L255.74 155.971Z" fill="#CC9933"/>
<path d="M263.655 155.971C263.501 155.734 263.293 155.538 263.032 155.384C262.782 155.217 262.456 155.134 262.052 155.134C261.672 155.134 261.328 155.217 261.019 155.384C260.722 155.538 260.556 155.77 260.52 156.078C260.484 156.328 260.532 156.53 260.663 156.684C260.805 156.838 260.977 156.963 261.179 157.058C261.393 157.153 261.619 157.224 261.856 157.272C262.094 157.319 262.301 157.361 262.479 157.396C262.812 157.48 263.121 157.58 263.406 157.699C263.691 157.818 263.928 157.972 264.118 158.162C264.32 158.352 264.463 158.584 264.546 158.857C264.629 159.13 264.647 159.463 264.599 159.855C264.528 160.33 264.368 160.739 264.118 161.084C263.881 161.416 263.584 161.689 263.228 161.903C262.871 162.117 262.48 162.271 262.052 162.366C261.636 162.461 261.221 162.509 260.805 162.509C260.104 162.509 259.505 162.402 259.006 162.188C258.519 161.974 258.103 161.582 257.759 161.012L259.095 160.015C259.321 160.276 259.582 160.508 259.879 160.71C260.176 160.912 260.556 161.012 261.019 161.012C261.434 161.012 261.832 160.929 262.212 160.763C262.592 160.585 262.812 160.312 262.871 159.944C262.907 159.706 262.859 159.51 262.729 159.356C262.61 159.201 262.45 159.083 262.248 159C262.058 158.905 261.844 158.833 261.607 158.786C261.381 158.726 261.185 158.679 261.019 158.643C260.686 158.56 260.372 158.465 260.075 158.358C259.778 158.251 259.523 158.109 259.309 157.931C259.095 157.753 258.935 157.527 258.828 157.254C258.733 156.981 258.715 156.642 258.774 156.239C258.834 155.799 258.976 155.419 259.202 155.099C259.439 154.766 259.724 154.493 260.057 154.279C260.389 154.065 260.758 153.905 261.161 153.798C261.565 153.691 261.963 153.638 262.355 153.638C262.925 153.638 263.453 153.745 263.94 153.959C264.439 154.172 264.807 154.529 265.045 155.027L263.655 155.971Z" fill="#CC9933"/>
<path d="M267.509 153.852H269.112L267.936 162.295H266.333L267.509 153.852ZM267.562 150.823C267.61 150.503 267.764 150.23 268.025 150.004C268.287 149.767 268.578 149.648 268.898 149.648C269.219 149.648 269.48 149.767 269.682 150.004C269.884 150.23 269.961 150.503 269.914 150.823C269.866 151.144 269.712 151.423 269.45 151.661C269.189 151.886 268.898 151.999 268.578 151.999C268.257 151.999 267.996 151.886 267.794 151.661C267.592 151.423 267.515 151.144 267.562 150.823Z" fill="#CC9933"/>
<path d="M272.376 158.073C272.316 158.501 272.322 158.899 272.394 159.267C272.477 159.623 272.619 159.932 272.821 160.193C273.023 160.442 273.284 160.644 273.605 160.799C273.938 160.941 274.317 161.012 274.745 161.012C275.173 161.012 275.564 160.941 275.921 160.799C276.289 160.644 276.609 160.442 276.883 160.193C277.156 159.932 277.381 159.623 277.559 159.267C277.749 158.899 277.874 158.501 277.934 158.073C277.993 157.646 277.981 157.254 277.898 156.898C277.827 156.53 277.684 156.221 277.47 155.971C277.269 155.71 277.007 155.508 276.687 155.366C276.366 155.211 275.992 155.134 275.564 155.134C275.137 155.134 274.739 155.211 274.371 155.366C274.015 155.508 273.694 155.71 273.409 155.971C273.136 156.221 272.91 156.53 272.732 156.898C272.554 157.254 272.435 157.646 272.376 158.073ZM270.666 158.073C270.749 157.456 270.945 156.88 271.254 156.345C271.562 155.811 271.948 155.342 272.411 154.938C272.875 154.534 273.391 154.22 273.961 153.994C274.543 153.757 275.149 153.638 275.778 153.638C276.408 153.638 276.978 153.757 277.488 153.994C277.999 154.22 278.426 154.534 278.771 154.938C279.127 155.342 279.382 155.811 279.537 156.345C279.691 156.88 279.727 157.456 279.644 158.073C279.549 158.691 279.347 159.273 279.038 159.819C278.741 160.353 278.361 160.822 277.898 161.226C277.435 161.618 276.912 161.933 276.33 162.17C275.76 162.396 275.161 162.509 274.531 162.509C273.902 162.509 273.326 162.396 272.803 162.17C272.293 161.933 271.865 161.618 271.521 161.226C271.176 160.822 270.921 160.353 270.755 159.819C270.6 159.273 270.571 158.691 270.666 158.073Z" fill="#CC9933"/>
<path d="M282.24 153.852H283.843L283.665 155.152H283.701C283.974 154.701 284.377 154.339 284.912 154.065C285.446 153.78 286.04 153.638 286.693 153.638C287.097 153.638 287.477 153.703 287.833 153.834C288.189 153.953 288.486 154.143 288.724 154.404C288.973 154.665 289.151 155.004 289.258 155.419C289.365 155.823 289.377 156.304 289.294 156.862L288.546 162.295H286.942L287.637 157.307C287.685 156.915 287.673 156.583 287.602 156.31C287.542 156.025 287.435 155.799 287.281 155.633C287.138 155.455 286.954 155.33 286.729 155.259C286.503 155.176 286.266 155.134 286.016 155.134C285.684 155.134 285.363 155.188 285.054 155.294C284.757 155.401 284.484 155.574 284.235 155.811C283.997 156.037 283.796 156.328 283.629 156.684C283.463 157.04 283.344 157.462 283.273 157.949L282.667 162.295H281.064L282.24 153.852Z" fill="#CC9933"/>
<path d="M292.031 154.885C292.542 154.469 293.106 154.16 293.723 153.959C294.353 153.745 294.964 153.638 295.558 153.638C296.176 153.638 296.698 153.715 297.126 153.869C297.553 154.024 297.891 154.232 298.141 154.493C298.39 154.754 298.556 155.057 298.64 155.401C298.723 155.734 298.741 156.084 298.693 156.452L298.087 160.763C298.04 161.06 298.004 161.333 297.981 161.582C297.957 161.832 297.945 162.069 297.945 162.295H296.52C296.532 162.081 296.544 161.867 296.556 161.654C296.579 161.44 296.609 161.226 296.645 161.012H296.609C296.17 161.559 295.689 161.945 295.166 162.17C294.655 162.396 294.079 162.509 293.438 162.509C293.046 162.509 292.678 162.455 292.334 162.348C292.001 162.242 291.716 162.081 291.479 161.867C291.241 161.654 291.063 161.392 290.944 161.084C290.838 160.763 290.814 160.395 290.873 159.979C290.944 159.433 291.128 158.976 291.425 158.608C291.722 158.24 292.096 157.943 292.548 157.717C293.011 157.48 293.527 157.313 294.097 157.218C294.679 157.111 295.291 157.058 295.932 157.058H297.108L297.161 156.702C297.197 156.488 297.185 156.274 297.126 156.06C297.078 155.847 296.983 155.657 296.841 155.49C296.698 155.312 296.508 155.176 296.27 155.081C296.033 154.974 295.742 154.92 295.398 154.92C295.089 154.92 294.81 154.95 294.56 155.009C294.323 155.069 294.103 155.146 293.901 155.241C293.711 155.324 293.527 155.425 293.349 155.544C293.183 155.663 293.017 155.775 292.85 155.882L292.031 154.885ZM296.092 158.234C295.712 158.234 295.32 158.257 294.917 158.305C294.513 158.341 294.139 158.418 293.794 158.536C293.45 158.655 293.159 158.821 292.922 159.035C292.684 159.249 292.542 159.522 292.494 159.855C292.423 160.342 292.536 160.692 292.833 160.906C293.129 161.119 293.557 161.226 294.115 161.226C294.555 161.226 294.935 161.155 295.255 161.012C295.588 160.858 295.867 160.662 296.092 160.425C296.318 160.187 296.49 159.926 296.609 159.641C296.74 159.344 296.823 159.053 296.858 158.768L296.947 158.234H296.092Z" fill="#CC9933"/>
<path d="M305.703 155.241H303.406L302.871 159.071C302.836 159.308 302.806 159.546 302.782 159.783C302.77 160.009 302.788 160.217 302.836 160.407C302.883 160.585 302.978 160.733 303.121 160.852C303.275 160.959 303.507 161.012 303.815 161.012C304.005 161.012 304.201 160.995 304.403 160.959C304.617 160.923 304.813 160.858 304.991 160.763L304.777 162.224C304.67 162.283 304.546 162.331 304.403 162.366C304.272 162.402 304.136 162.426 303.993 162.438C303.863 162.461 303.732 162.479 303.602 162.491C303.483 162.503 303.382 162.509 303.299 162.509C302.681 162.509 302.212 162.426 301.891 162.259C301.583 162.081 301.363 161.856 301.232 161.582C301.114 161.309 301.06 161.007 301.072 160.674C301.096 160.33 301.131 159.985 301.179 159.641L301.802 155.241H299.95L300.146 153.852H301.998L302.337 151.483H303.94L303.602 153.852H305.899L305.703 155.241Z" fill="#CC9933"/>
<path d="M308.502 158.661C308.455 159.029 308.49 159.368 308.609 159.676C308.728 159.973 308.9 160.229 309.126 160.442C309.363 160.656 309.642 160.822 309.963 160.941C310.295 161.06 310.646 161.119 311.014 161.119C311.513 161.119 311.958 161.007 312.35 160.781C312.754 160.543 313.139 160.235 313.508 159.855L314.576 160.781C313.531 161.933 312.207 162.509 310.604 162.509C309.939 162.509 309.351 162.396 308.841 162.17C308.342 161.945 307.932 161.636 307.612 161.244C307.291 160.84 307.065 160.371 306.935 159.837C306.804 159.291 306.786 158.703 306.881 158.073C306.964 157.444 307.154 156.862 307.451 156.328C307.748 155.781 308.116 155.312 308.556 154.92C309.007 154.517 309.512 154.202 310.07 153.976C310.64 153.751 311.239 153.638 311.869 153.638C312.617 153.638 313.229 153.769 313.704 154.03C314.19 154.291 314.57 154.635 314.844 155.063C315.117 155.479 315.289 155.954 315.36 156.488C315.431 157.01 315.431 157.545 315.36 158.091L315.271 158.661H308.502ZM313.739 157.379C313.775 157.022 313.763 156.696 313.704 156.399C313.644 156.102 313.531 155.847 313.365 155.633C313.199 155.407 312.973 155.235 312.688 155.116C312.403 154.986 312.059 154.92 311.655 154.92C311.263 154.92 310.895 154.998 310.551 155.152C310.206 155.294 309.898 155.484 309.624 155.722C309.363 155.96 309.149 156.227 308.983 156.524C308.817 156.809 308.716 157.094 308.68 157.379H313.739Z" fill="#CC9933"/>
<path d="M317.937 162.402C317.616 162.402 317.355 162.289 317.153 162.063C316.951 161.826 316.874 161.547 316.922 161.226C316.969 160.906 317.124 160.632 317.385 160.407C317.646 160.169 317.937 160.051 318.258 160.051C318.578 160.051 318.84 160.169 319.042 160.407C319.243 160.632 319.321 160.906 319.273 161.226C319.226 161.547 319.071 161.826 318.81 162.063C318.549 162.289 318.258 162.402 317.937 162.402Z" fill="#CC9933"/>
<path d="M328.779 149.683H333.214C334.022 149.683 334.669 149.796 335.156 150.022C335.655 150.236 336.029 150.515 336.278 150.859C336.539 151.192 336.7 151.572 336.759 151.999C336.818 152.415 336.818 152.818 336.759 153.21C336.7 153.602 336.581 154.012 336.403 154.439C336.237 154.855 335.975 155.235 335.619 155.579C335.263 155.912 334.806 156.191 334.247 156.417C333.701 156.63 333.024 156.737 332.217 156.737H329.491L328.725 162.295H327.015L328.779 149.683ZM329.705 155.241H331.95C332.282 155.241 332.615 155.217 332.947 155.17C333.28 155.11 333.582 155.009 333.855 154.867C334.141 154.724 334.378 154.523 334.568 154.261C334.758 153.988 334.883 153.638 334.942 153.21C335.001 152.783 334.972 152.438 334.853 152.177C334.734 151.904 334.556 151.696 334.319 151.554C334.093 151.411 333.82 151.316 333.499 151.269C333.179 151.209 332.852 151.18 332.52 151.18H330.275L329.705 155.241Z" fill="#CC9933"/>
<path d="M338.34 153.852H339.944L339.765 155.152H339.801C340.074 154.701 340.466 154.339 340.977 154.065C341.487 153.78 342.01 153.638 342.544 153.638C342.805 153.638 343.037 153.674 343.239 153.745L342.918 155.473C342.788 155.437 342.657 155.407 342.526 155.384C342.408 155.36 342.283 155.348 342.152 155.348C341.369 155.348 340.739 155.568 340.264 156.007C339.789 156.446 339.486 157.129 339.356 158.056L338.768 162.295H337.165L338.34 153.852Z" fill="#CC9933"/>
<path d="M345.333 158.073C345.273 158.501 345.279 158.899 345.35 159.267C345.434 159.623 345.576 159.932 345.778 160.193C345.98 160.442 346.241 160.644 346.562 160.799C346.894 160.941 347.274 161.012 347.702 161.012C348.129 161.012 348.521 160.941 348.877 160.799C349.246 160.644 349.566 160.442 349.839 160.193C350.112 159.932 350.338 159.623 350.516 159.267C350.706 158.899 350.831 158.501 350.89 158.073C350.95 157.646 350.938 157.254 350.855 156.898C350.783 156.53 350.641 156.221 350.427 155.971C350.225 155.71 349.964 155.508 349.643 155.366C349.323 155.211 348.949 155.134 348.521 155.134C348.094 155.134 347.696 155.211 347.328 155.366C346.971 155.508 346.651 155.71 346.366 155.971C346.093 156.221 345.867 156.53 345.689 156.898C345.511 157.254 345.392 157.646 345.333 158.073ZM343.623 158.073C343.706 157.456 343.902 156.88 344.21 156.345C344.519 155.811 344.905 155.342 345.368 154.938C345.831 154.534 346.348 154.22 346.918 153.994C347.5 153.757 348.106 153.638 348.735 153.638C349.364 153.638 349.934 153.757 350.445 153.994C350.956 154.22 351.383 154.534 351.728 154.938C352.084 155.342 352.339 155.811 352.493 156.345C352.648 156.88 352.684 157.456 352.6 158.073C352.505 158.691 352.303 159.273 351.995 159.819C351.698 160.353 351.318 160.822 350.855 161.226C350.392 161.618 349.869 161.933 349.287 162.17C348.717 162.396 348.117 162.509 347.488 162.509C346.859 162.509 346.283 162.396 345.76 162.17C345.25 161.933 344.822 161.618 344.478 161.226C344.133 160.822 343.878 160.353 343.712 159.819C343.557 159.273 343.528 158.691 343.623 158.073Z" fill="#CC9933"/>
<path d="M355.624 155.241H353.807L354.003 153.852H355.82L356.087 151.963C356.254 150.835 356.586 149.998 357.085 149.452C357.595 148.894 358.379 148.615 359.436 148.615C359.614 148.615 359.798 148.621 359.988 148.632C360.19 148.644 360.398 148.68 360.612 148.739L360.238 150.164C360.095 150.105 359.953 150.063 359.81 150.04C359.668 150.016 359.513 150.004 359.347 150.004C359.05 150.004 358.807 150.052 358.617 150.147C358.427 150.23 358.272 150.354 358.154 150.521C358.035 150.687 357.94 150.889 357.869 151.126C357.809 151.352 357.756 151.613 357.708 151.91L357.441 153.852H359.347L359.151 155.241H357.227L356.248 162.295H354.644L355.624 155.241Z" fill="#CC9933"/>
<path d="M361.663 158.661C361.615 159.029 361.651 159.368 361.77 159.676C361.888 159.973 362.061 160.229 362.286 160.442C362.524 160.656 362.803 160.822 363.124 160.941C363.456 161.06 363.806 161.119 364.174 161.119C364.673 161.119 365.119 161.007 365.51 160.781C365.914 160.543 366.3 160.235 366.668 159.855L367.737 160.781C366.692 161.933 365.368 162.509 363.765 162.509C363.1 162.509 362.512 162.396 362.001 162.17C361.503 161.945 361.093 161.636 360.772 161.244C360.452 160.84 360.226 160.371 360.095 159.837C359.965 159.291 359.947 158.703 360.042 158.073C360.125 157.444 360.315 156.862 360.612 156.328C360.909 155.781 361.277 155.312 361.716 154.92C362.168 154.517 362.672 154.202 363.23 153.976C363.8 153.751 364.4 153.638 365.03 153.638C365.778 153.638 366.389 153.769 366.864 154.03C367.351 154.291 367.731 154.635 368.004 155.063C368.277 155.479 368.45 155.954 368.521 156.488C368.592 157.01 368.592 157.545 368.521 158.091L368.432 158.661H361.663ZM366.9 157.379C366.936 157.022 366.924 156.696 366.864 156.399C366.805 156.102 366.692 155.847 366.526 155.633C366.36 155.407 366.134 155.235 365.849 155.116C365.564 154.986 365.22 154.92 364.816 154.92C364.424 154.92 364.056 154.998 363.711 155.152C363.367 155.294 363.058 155.484 362.785 155.722C362.524 155.96 362.31 156.227 362.144 156.524C361.978 156.809 361.877 157.094 361.841 157.379H366.9Z" fill="#CC9933"/>
<path d="M375.213 155.971C375.058 155.734 374.85 155.538 374.589 155.384C374.34 155.217 374.013 155.134 373.609 155.134C373.229 155.134 372.885 155.217 372.576 155.384C372.279 155.538 372.113 155.77 372.077 156.078C372.042 156.328 372.089 156.53 372.22 156.684C372.363 156.838 372.535 156.963 372.737 157.058C372.95 157.153 373.176 157.224 373.413 157.272C373.651 157.319 373.859 157.361 374.037 157.396C374.369 157.48 374.678 157.58 374.963 157.699C375.248 157.818 375.486 157.972 375.676 158.162C375.878 158.352 376.02 158.584 376.103 158.857C376.186 159.13 376.204 159.463 376.157 159.855C376.085 160.33 375.925 160.739 375.676 161.084C375.438 161.416 375.141 161.689 374.785 161.903C374.429 162.117 374.037 162.271 373.609 162.366C373.194 162.461 372.778 162.509 372.363 162.509C371.662 162.509 371.062 162.402 370.563 162.188C370.077 161.974 369.661 161.582 369.316 161.012L370.652 160.015C370.878 160.276 371.139 160.508 371.436 160.71C371.733 160.912 372.113 161.012 372.576 161.012C372.992 161.012 373.39 160.929 373.77 160.763C374.15 160.585 374.369 160.312 374.429 159.944C374.464 159.706 374.417 159.51 374.286 159.356C374.168 159.201 374.007 159.083 373.805 159C373.615 158.905 373.402 158.833 373.164 158.786C372.938 158.726 372.743 158.679 372.576 158.643C372.244 158.56 371.929 158.465 371.632 158.358C371.335 158.251 371.08 158.109 370.866 157.931C370.652 157.753 370.492 157.527 370.385 157.254C370.29 156.981 370.272 156.642 370.332 156.239C370.391 155.799 370.534 155.419 370.759 155.099C370.997 154.766 371.282 154.493 371.614 154.279C371.947 154.065 372.315 153.905 372.719 153.798C373.123 153.691 373.52 153.638 373.912 153.638C374.482 153.638 375.011 153.745 375.498 153.959C375.996 154.172 376.364 154.529 376.602 155.027L375.213 155.971Z" fill="#CC9933"/>
<path d="M383.128 155.971C382.973 155.734 382.765 155.538 382.504 155.384C382.255 155.217 381.928 155.134 381.524 155.134C381.144 155.134 380.8 155.217 380.491 155.384C380.194 155.538 380.028 155.77 379.992 156.078C379.957 156.328 380.004 156.53 380.135 156.684C380.277 156.838 380.45 156.963 380.652 157.058C380.865 157.153 381.091 157.224 381.328 157.272C381.566 157.319 381.774 157.361 381.952 157.396C382.284 157.48 382.593 157.58 382.878 157.699C383.163 157.818 383.401 157.972 383.591 158.162C383.793 158.352 383.935 158.584 384.018 158.857C384.101 159.13 384.119 159.463 384.072 159.855C384 160.33 383.84 160.739 383.591 161.084C383.353 161.416 383.056 161.689 382.7 161.903C382.344 162.117 381.952 162.271 381.524 162.366C381.109 162.461 380.693 162.509 380.277 162.509C379.577 162.509 378.977 162.402 378.478 162.188C377.991 161.974 377.576 161.582 377.231 161.012L378.567 160.015C378.793 160.276 379.054 160.508 379.351 160.71C379.648 160.912 380.028 161.012 380.491 161.012C380.907 161.012 381.305 160.929 381.685 160.763C382.065 160.585 382.284 160.312 382.344 159.944C382.379 159.706 382.332 159.51 382.201 159.356C382.083 159.201 381.922 159.083 381.72 159C381.53 158.905 381.317 158.833 381.079 158.786C380.853 158.726 380.657 158.679 380.491 158.643C380.159 158.56 379.844 158.465 379.547 158.358C379.25 158.251 378.995 158.109 378.781 157.931C378.567 157.753 378.407 157.527 378.3 157.254C378.205 156.981 378.187 156.642 378.247 156.239C378.306 155.799 378.449 155.419 378.674 155.099C378.912 154.766 379.197 154.493 379.529 154.279C379.862 154.065 380.23 153.905 380.634 153.798C381.037 153.691 381.435 153.638 381.827 153.638C382.397 153.638 382.926 153.745 383.413 153.959C383.911 154.172 384.279 154.529 384.517 155.027L383.128 155.971Z" fill="#CC9933"/>
<path d="M386.981 153.852H388.584L387.409 162.295H385.805L386.981 153.852ZM387.035 150.823C387.082 150.503 387.236 150.23 387.498 150.004C387.759 149.767 388.05 149.648 388.371 149.648C388.691 149.648 388.952 149.767 389.154 150.004C389.356 150.23 389.433 150.503 389.386 150.823C389.338 151.144 389.184 151.423 388.923 151.661C388.661 151.886 388.371 151.999 388.05 151.999C387.729 151.999 387.468 151.886 387.266 151.661C387.064 151.423 386.987 151.144 387.035 150.823Z" fill="#CC9933"/>
<path d="M391.848 158.073C391.789 158.501 391.795 158.899 391.866 159.267C391.949 159.623 392.092 159.932 392.294 160.193C392.495 160.442 392.757 160.644 393.077 160.799C393.41 160.941 393.79 161.012 394.217 161.012C394.645 161.012 395.037 160.941 395.393 160.799C395.761 160.644 396.082 160.442 396.355 160.193C396.628 159.932 396.854 159.623 397.032 159.267C397.222 158.899 397.347 158.501 397.406 158.073C397.465 157.646 397.453 157.254 397.37 156.898C397.299 156.53 397.157 156.221 396.943 155.971C396.741 155.71 396.48 155.508 396.159 155.366C395.838 155.211 395.464 155.134 395.037 155.134C394.609 155.134 394.211 155.211 393.843 155.366C393.487 155.508 393.166 155.71 392.881 155.971C392.608 156.221 392.383 156.53 392.205 156.898C392.026 157.254 391.908 157.646 391.848 158.073ZM390.138 158.073C390.221 157.456 390.417 156.88 390.726 156.345C391.035 155.811 391.421 155.342 391.884 154.938C392.347 154.534 392.864 154.22 393.434 153.994C394.016 153.757 394.621 153.638 395.251 153.638C395.88 153.638 396.45 153.757 396.961 153.994C397.471 154.22 397.899 154.534 398.243 154.938C398.599 155.342 398.855 155.811 399.009 156.345C399.163 156.88 399.199 157.456 399.116 158.073C399.021 158.691 398.819 159.273 398.51 159.819C398.213 160.353 397.833 160.822 397.37 161.226C396.907 161.618 396.385 161.933 395.803 162.17C395.233 162.396 394.633 162.509 394.004 162.509C393.374 162.509 392.798 162.396 392.276 162.17C391.765 161.933 391.338 161.618 390.993 161.226C390.649 160.822 390.394 160.353 390.227 159.819C390.073 159.273 390.043 158.691 390.138 158.073Z" fill="#CC9933"/>
<path d="M401.712 153.852H403.315L403.137 155.152H403.173C403.446 154.701 403.85 154.339 404.384 154.065C404.919 153.78 405.512 153.638 406.165 153.638C406.569 153.638 406.949 153.703 407.306 153.834C407.662 153.953 407.959 154.143 408.196 154.404C408.446 154.665 408.624 155.004 408.731 155.419C408.837 155.823 408.849 156.304 408.766 156.862L408.018 162.295H406.415L407.11 157.307C407.157 156.915 407.145 156.583 407.074 156.31C407.015 156.025 406.908 155.799 406.753 155.633C406.611 155.455 406.427 155.33 406.201 155.259C405.975 155.176 405.738 155.134 405.489 155.134C405.156 155.134 404.835 155.188 404.527 155.294C404.23 155.401 403.957 155.574 403.707 155.811C403.47 156.037 403.268 156.328 403.102 156.684C402.935 157.04 402.817 157.462 402.745 157.949L402.14 162.295H400.537L401.712 153.852Z" fill="#CC9933"/>
<path d="M411.503 154.885C412.014 154.469 412.578 154.16 413.196 153.959C413.825 153.745 414.437 153.638 415.03 153.638C415.648 153.638 416.17 153.715 416.598 153.869C417.025 154.024 417.364 154.232 417.613 154.493C417.863 154.754 418.029 155.057 418.112 155.401C418.195 155.734 418.213 156.084 418.165 156.452L417.56 160.763C417.512 161.06 417.477 161.333 417.453 161.582C417.429 161.832 417.417 162.069 417.417 162.295H415.992C416.004 162.081 416.016 161.867 416.028 161.654C416.052 161.44 416.081 161.226 416.117 161.012H416.081C415.642 161.559 415.161 161.945 414.638 162.17C414.128 162.396 413.552 162.509 412.911 162.509C412.519 162.509 412.151 162.455 411.806 162.348C411.474 162.242 411.189 162.081 410.951 161.867C410.714 161.654 410.536 161.392 410.417 161.084C410.31 160.763 410.286 160.395 410.346 159.979C410.417 159.433 410.601 158.976 410.898 158.608C411.195 158.24 411.569 157.943 412.02 157.717C412.483 157.48 413 157.313 413.57 157.218C414.152 157.111 414.763 157.058 415.404 157.058H416.58L416.634 156.702C416.669 156.488 416.657 156.274 416.598 156.06C416.55 155.847 416.455 155.657 416.313 155.49C416.17 155.312 415.98 155.176 415.743 155.081C415.505 154.974 415.214 154.92 414.87 154.92C414.561 154.92 414.282 154.95 414.033 155.009C413.795 155.069 413.576 155.146 413.374 155.241C413.184 155.324 413 155.425 412.822 155.544C412.655 155.663 412.489 155.775 412.323 155.882L411.503 154.885ZM415.565 158.234C415.185 158.234 414.793 158.257 414.389 158.305C413.985 158.341 413.611 158.418 413.267 158.536C412.922 158.655 412.632 158.821 412.394 159.035C412.156 159.249 412.014 159.522 411.967 159.855C411.895 160.342 412.008 160.692 412.305 160.906C412.602 161.119 413.029 161.226 413.587 161.226C414.027 161.226 414.407 161.155 414.728 161.012C415.06 160.858 415.339 160.662 415.565 160.425C415.79 160.187 415.963 159.926 416.081 159.641C416.212 159.344 416.295 159.053 416.331 158.768L416.42 158.234H415.565Z" fill="#CC9933"/>
<path d="M421.685 148.828H423.288L421.399 162.295H419.796L421.685 148.828Z" fill="#CC9933"/>
<path d="M425.198 162.402C424.877 162.402 424.616 162.289 424.414 162.063C424.212 161.826 424.135 161.547 424.182 161.226C424.23 160.906 424.384 160.632 424.646 160.407C424.907 160.169 425.198 160.051 425.518 160.051C425.839 160.051 426.1 160.169 426.302 160.407C426.504 160.632 426.581 160.906 426.534 161.226C426.486 161.547 426.332 161.826 426.071 162.063C425.809 162.289 425.518 162.402 425.198 162.402Z" fill="#CC9933"/>
<path d="M436.04 149.683H444.18L443.949 151.287H437.518L437.001 155.045H442.987L442.755 156.648H436.77L436.2 160.692H442.951L442.737 162.295H434.276L436.04 149.683Z" fill="#CC9933"/>
<path d="M446.359 155.241H444.542L444.738 153.852H446.555L446.822 151.963C446.989 150.835 447.321 149.998 447.82 149.452C448.33 148.894 449.114 148.615 450.171 148.615C450.349 148.615 450.533 148.621 450.723 148.632C450.925 148.644 451.133 148.68 451.347 148.739L450.973 150.164C450.83 150.105 450.688 150.063 450.545 150.04C450.403 150.016 450.248 150.004 450.082 150.004C449.785 150.004 449.542 150.052 449.352 150.147C449.162 150.23 449.007 150.354 448.889 150.521C448.77 150.687 448.675 150.889 448.604 151.126C448.544 151.352 448.491 151.613 448.443 151.91L448.176 153.852H450.082L449.886 155.241H447.962L446.983 162.295H445.379L446.359 155.241Z" fill="#CC9933"/>
<path d="M451.978 155.241H450.161L450.357 153.852H452.174L452.441 151.963C452.607 150.835 452.94 149.998 453.439 149.452C453.949 148.894 454.733 148.615 455.79 148.615C455.968 148.615 456.152 148.621 456.342 148.632C456.544 148.644 456.752 148.68 456.966 148.739L456.591 150.164C456.449 150.105 456.306 150.063 456.164 150.04C456.021 150.016 455.867 150.004 455.701 150.004C455.404 150.004 455.16 150.052 454.97 150.147C454.78 150.23 454.626 150.354 454.507 150.521C454.389 150.687 454.294 150.889 454.222 151.126C454.163 151.352 454.109 151.613 454.062 151.91L453.795 153.852H455.701L455.505 155.241H453.581L452.601 162.295H450.998L451.978 155.241Z" fill="#CC9933"/>
<path d="M457.607 153.852H459.21L458.034 162.295H456.431L457.607 153.852ZM457.66 150.823C457.708 150.503 457.862 150.23 458.124 150.004C458.385 149.767 458.676 149.648 458.996 149.648C459.317 149.648 459.578 149.767 459.78 150.004C459.982 150.23 460.059 150.503 460.012 150.823C459.964 151.144 459.81 151.423 459.549 151.661C459.287 151.886 458.996 151.999 458.676 151.999C458.355 151.999 458.094 151.886 457.892 151.661C457.69 151.423 457.613 151.144 457.66 150.823Z" fill="#CC9933"/>
<path d="M467.479 156.096C467.23 155.787 466.951 155.556 466.642 155.401C466.345 155.235 465.971 155.152 465.52 155.152C465.081 155.152 464.683 155.235 464.327 155.401C463.982 155.556 463.679 155.775 463.418 156.06C463.157 156.334 462.943 156.654 462.777 157.022C462.622 157.379 462.516 157.753 462.456 158.145C462.397 158.536 462.409 158.911 462.492 159.267C462.575 159.611 462.717 159.914 462.919 160.175C463.121 160.437 463.377 160.644 463.685 160.799C464.006 160.941 464.374 161.012 464.79 161.012C465.241 161.012 465.639 160.935 465.983 160.781C466.328 160.615 466.654 160.377 466.963 160.068L467.943 161.208C467.456 161.672 466.921 162.004 466.339 162.206C465.769 162.408 465.176 162.509 464.558 162.509C463.905 162.509 463.323 162.402 462.812 162.188C462.302 161.974 461.88 161.677 461.548 161.297C461.215 160.906 460.978 160.442 460.835 159.908C460.693 159.362 460.669 158.762 460.764 158.109C460.847 157.456 461.031 156.856 461.316 156.31C461.613 155.764 461.981 155.294 462.421 154.903C462.872 154.511 463.383 154.208 463.953 153.994C464.523 153.769 465.14 153.656 465.805 153.656C466.423 153.656 466.993 153.769 467.515 153.994C468.05 154.208 468.495 154.54 468.851 154.992L467.479 156.096Z" fill="#CC9933"/>
<path d="M470.48 153.852H472.083L470.907 162.295H469.304L470.48 153.852ZM470.533 150.823C470.581 150.503 470.735 150.23 470.996 150.004C471.257 149.767 471.548 149.648 471.869 149.648C472.19 149.648 472.451 149.767 472.653 150.004C472.855 150.23 472.932 150.503 472.884 150.823C472.837 151.144 472.682 151.423 472.421 151.661C472.16 151.886 471.869 151.999 471.548 151.999C471.228 151.999 470.966 151.886 470.765 151.661C470.563 151.423 470.486 151.144 470.533 150.823Z" fill="#CC9933"/>
<path d="M475.169 158.661C475.121 159.029 475.157 159.368 475.275 159.676C475.394 159.973 475.566 160.229 475.792 160.442C476.03 160.656 476.309 160.822 476.629 160.941C476.962 161.06 477.312 161.119 477.68 161.119C478.179 161.119 478.624 161.007 479.016 160.781C479.42 160.543 479.806 160.235 480.174 159.855L481.243 160.781C480.198 161.933 478.874 162.509 477.271 162.509C476.606 162.509 476.018 162.396 475.507 162.17C475.008 161.945 474.599 161.636 474.278 161.244C473.957 160.84 473.732 160.371 473.601 159.837C473.47 159.291 473.453 158.703 473.548 158.073C473.631 157.444 473.821 156.862 474.118 156.328C474.415 155.781 474.783 155.312 475.222 154.92C475.673 154.517 476.178 154.202 476.736 153.976C477.306 153.751 477.906 153.638 478.535 153.638C479.283 153.638 479.895 153.769 480.37 154.03C480.857 154.291 481.237 154.635 481.51 155.063C481.783 155.479 481.955 155.954 482.027 156.488C482.098 157.01 482.098 157.545 482.027 158.091L481.938 158.661H475.169ZM480.406 157.379C480.441 157.022 480.429 156.696 480.37 156.399C480.311 156.102 480.198 155.847 480.032 155.633C479.865 155.407 479.64 155.235 479.355 155.116C479.07 154.986 478.725 154.92 478.322 154.92C477.93 154.92 477.561 154.998 477.217 155.152C476.873 155.294 476.564 155.484 476.291 155.722C476.03 155.96 475.816 156.227 475.65 156.524C475.483 156.809 475.382 157.094 475.347 157.379H480.406Z" fill="#CC9933"/>
<path d="M484.532 153.852H486.135L485.957 155.152H485.993C486.266 154.701 486.67 154.339 487.204 154.065C487.739 153.78 488.332 153.638 488.986 153.638C489.389 153.638 489.769 153.703 490.126 153.834C490.482 153.953 490.779 154.143 491.016 154.404C491.266 154.665 491.444 155.004 491.551 155.419C491.657 155.823 491.669 156.304 491.586 156.862L490.838 162.295H489.235L489.93 157.307C489.977 156.915 489.965 156.583 489.894 156.31C489.835 156.025 489.728 155.799 489.573 155.633C489.431 155.455 489.247 155.33 489.021 155.259C488.796 155.176 488.558 155.134 488.309 155.134C487.976 155.134 487.655 155.188 487.347 155.294C487.05 155.401 486.777 155.574 486.527 155.811C486.29 156.037 486.088 156.328 485.922 156.684C485.755 157.04 485.637 157.462 485.565 157.949L484.96 162.295H483.357L484.532 153.852Z" fill="#CC9933"/>
<path d="M498.759 155.241H496.461L495.927 159.071C495.891 159.308 495.861 159.546 495.838 159.783C495.826 160.009 495.843 160.217 495.891 160.407C495.938 160.585 496.033 160.733 496.176 160.852C496.33 160.959 496.562 161.012 496.871 161.012C497.061 161.012 497.257 160.995 497.458 160.959C497.672 160.923 497.868 160.858 498.046 160.763L497.833 162.224C497.726 162.283 497.601 162.331 497.458 162.366C497.328 162.402 497.191 162.426 497.049 162.438C496.918 162.461 496.788 162.479 496.657 162.491C496.538 162.503 496.437 162.509 496.354 162.509C495.737 162.509 495.268 162.426 494.947 162.259C494.638 162.081 494.418 161.856 494.288 161.582C494.169 161.309 494.116 161.007 494.127 160.674C494.151 160.33 494.187 159.985 494.234 159.641L494.858 155.241H493.005L493.201 153.852H495.054L495.392 151.483H496.995L496.657 153.852H498.955L498.759 155.241Z" fill="#CC9933"/>
<path d="M501.094 162.402C500.774 162.402 500.513 162.289 500.311 162.063C500.109 161.826 500.032 161.547 500.079 161.226C500.127 160.906 500.281 160.632 500.542 160.407C500.803 160.169 501.094 160.051 501.415 160.051C501.736 160.051 501.997 160.169 502.199 160.407C502.401 160.632 502.478 160.906 502.43 161.226C502.383 161.547 502.229 161.826 501.967 162.063C501.706 162.289 501.415 162.402 501.094 162.402Z" fill="#CC9933"/>
</g>
<defs>
<clipPath id="clip0_1_87">
<rect width="570.958" height="167.131" fill="white"/>
</clipPath>
</defs>
</svg>
