<svg width="25" height="24" viewBox="0 0 25 24" fill="none" xmlns="http://www.w3.org/2000/svg">
<path d="M8.66864 7.99999L17.0886 7.99999C17.4211 7.99951 17.7468 8.09318 18.0282 8.27015C18.3096 8.44712 18.5351 8.70017 18.6786 8.99999C18.8467 9.35573 18.9114 9.75152 18.8654 10.1423C18.8195 10.533 18.6646 10.903 18.4186 11.21L14.2086 16.31C14.0434 16.5006 13.8392 16.6535 13.6097 16.7583C13.3802 16.8631 13.1309 16.9173 12.8786 16.9173C12.6264 16.9173 12.3771 16.8631 12.1476 16.7583C11.9181 16.6535 11.7139 16.5006 11.5486 16.31L7.33864 11.21C7.09263 10.903 6.93782 10.533 6.89185 10.1423C6.84589 9.75152 6.91061 9.35573 7.07864 8.99999C7.22218 8.70017 7.4477 8.44712 7.72908 8.27015C8.01047 8.09318 8.33623 7.99951 8.66864 7.99999Z" fill="#00060F"/>
</svg>
