<svg width="25" height="24" viewBox="0 0 25 24" fill="none" xmlns="http://www.w3.org/2000/svg">
<path d="M8.66872 7.99999L17.0887 7.99999C17.4211 7.99951 17.7469 8.09318 18.0283 8.27015C18.3097 8.44712 18.5352 8.70017 18.6787 8.99999C18.8467 9.35573 18.9115 9.75152 18.8655 10.1423C18.8195 10.533 18.6647 10.903 18.4187 11.21L14.2087 16.31C14.0435 16.5006 13.8392 16.6535 13.6098 16.7583C13.3803 16.8631 13.131 16.9173 12.8787 16.9173C12.6265 16.9173 12.3771 16.8631 12.1477 16.7583C11.9182 16.6535 11.7139 16.5006 11.5487 16.31L7.33871 11.21C7.09271 10.903 6.9379 10.533 6.89193 10.1423C6.84596 9.75152 6.91068 9.35573 7.07872 8.99999C7.22226 8.70017 7.44777 8.44712 7.72916 8.27015C8.01055 8.09318 8.3363 7.99951 8.66872 7.99999Z" fill="#006633"/>
</svg>
