<svg width="20" height="21" viewBox="0 0 20 21" fill="none" xmlns="http://www.w3.org/2000/svg">
<g clip-path="url(#clip0_223_377)">
<path d="M16 0.5H4C1.79086 0.5 0 2.29086 0 4.5V16.5C0 18.7091 1.79086 20.5 4 20.5H16C18.2091 20.5 20 18.7091 20 16.5V4.5C20 2.29086 18.2091 0.5 16 0.5Z" fill="#CC9933"/>
<path d="M13 8.625H10.75V7.125C10.75 6.711 11.086 6.375 11.5 6.375H12.25V4.5H10.75C9.50725 4.5 8.5 5.50725 8.5 6.75V8.625H7V10.5H8.5V16.5H10.75V10.5H12.25L13 8.625Z" fill="white"/>
</g>
<defs>
<clipPath id="clip0_223_377">
<rect width="20" height="20" fill="white" transform="translate(0 0.5)"/>
</clipPath>
</defs>
</svg>
