<svg width="20" height="21" viewBox="0 0 20 21" fill="none" xmlns="http://www.w3.org/2000/svg">
<g clip-path="url(#clip0_223_389)">
<path d="M16 0.5H4C1.79086 0.5 0 2.29086 0 4.5V16.5C0 18.7091 1.79086 20.5 4 20.5H16C18.2091 20.5 20 18.7091 20 16.5V4.5C20 2.29086 18.2091 0.5 16 0.5Z" fill="#CC9933"/>
<path d="M12.2403 5.5H7.75956C6.23794 5.5 5 6.738 5 8.25962V12.7403C5 14.262 6.23794 15.4999 7.75956 15.4999H12.2403C13.762 15.4999 14.9999 14.2619 14.9999 12.7403V8.25962C15 6.738 13.762 5.5 12.2403 5.5ZM14.1128 12.7403C14.1128 13.7728 13.2728 14.6127 12.2403 14.6127H7.75956C6.72717 14.6128 5.88724 13.7728 5.88724 12.7403V8.25962C5.88724 7.22723 6.72717 6.38724 7.75956 6.38724H12.2403C13.2727 6.38724 14.1127 7.22723 14.1127 8.25962L14.1128 12.7403Z" fill="white"/>
<path d="M10.0001 7.92383C8.57924 7.92383 7.42334 9.07973 7.42334 10.5006C7.42334 11.9213 8.57924 13.0772 10.0001 13.0772C11.4209 13.0772 12.5768 11.9213 12.5768 10.5006C12.5768 9.07973 11.4209 7.92383 10.0001 7.92383ZM10.0001 12.1899C9.06853 12.1899 8.31058 11.4321 8.31058 10.5005C8.31058 9.5689 9.06847 8.81101 10.0001 8.81101C10.9317 8.81101 11.6896 9.5689 11.6896 10.5005C11.6896 11.4321 10.9316 12.1899 10.0001 12.1899Z" fill="white"/>
<path d="M12.6848 7.1709C12.5139 7.1709 12.346 7.2401 12.2252 7.36136C12.1039 7.48203 12.0342 7.65001 12.0342 7.82154C12.0342 7.99254 12.104 8.16047 12.2252 8.28173C12.3459 8.40239 12.5139 8.47219 12.6848 8.47219C12.8564 8.47219 13.0237 8.40239 13.145 8.28173C13.2663 8.16047 13.3355 7.99249 13.3355 7.82154C13.3355 7.65001 13.2663 7.48203 13.145 7.36136C13.0243 7.2401 12.8564 7.1709 12.6848 7.1709Z" fill="white"/>
</g>
<defs>
<clipPath id="clip0_223_389">
<rect width="20" height="20" fill="white" transform="translate(0 0.5)"/>
</clipPath>
</defs>
</svg>
